{"glyphs":{"0":{"ha":765,"x_min":72,"x_max":696,"o":"m 72 301 l 72 706 q 157 940 72 865 q 383 1015 242 1015 q 610 940 525 1015 q 696 706 696 865 l 696 301 q 610 67 696 142 q 383 -8 525 -8 q 157 67 242 -8 q 72 301 72 142 m 219 301 q 383 122 219 122 q 506 167 463 122 q 549 301 549 211 l 549 706 q 506 840 549 796 q 383 885 463 885 q 219 706 219 885 l 219 301 m 342 460 q 333 468 342 460 q 325 503 325 476 q 342 545 325 529 q 385 561 358 561 q 427 545 411 561 q 443 503 443 529 q 427 460 443 476 q 385 443 411 443 q 342 460 358 443 z "},"1":{"ha":371,"x_min":10,"x_max":286,"o":"m 10 806 q 39 863 10 842 l 183 1001 q 221 1017 199 1017 q 266 1003 246 1017 q 286 968 286 990 l 286 49 q 264 13 286 26 q 213 0 242 0 q 160 13 182 0 q 139 49 139 26 l 139 821 l 90 760 q 60 746 76 746 q 24 765 39 746 q 10 806 10 783 z "},"2":{"ha":688,"x_min":42,"x_max":650,"o":"m 42 49 l 42 183 q 88 306 42 246 q 203 414 135 365 l 336 511 q 449 618 403 560 q 496 735 496 676 q 458 837 496 793 q 346 881 419 881 q 244 846 283 881 q 206 743 206 811 q 184 704 206 721 q 128 688 163 688 q 61 769 61 688 q 145 947 61 878 q 346 1015 229 1015 q 556 938 469 1015 q 643 739 643 861 q 597 583 643 656 q 484 459 550 510 q 352 363 418 408 q 240 272 286 318 q 193 183 193 226 l 193 131 l 601 131 q 635 112 621 131 q 650 67 650 93 q 635 20 650 40 q 601 0 621 0 l 107 0 q 63 14 85 0 q 42 49 42 28 z "},"3":{"ha":707,"x_min":33,"x_max":657,"o":"m 33 236 q 49 285 33 272 q 101 299 64 299 q 162 285 146 299 q 178 243 178 272 q 220 158 178 193 q 342 122 263 122 q 469 163 428 122 q 510 294 510 204 l 510 321 q 340 472 510 472 q 293 531 293 472 q 340 590 293 590 q 448 622 411 590 q 485 743 485 654 q 346 886 485 886 q 235 853 268 886 q 201 772 201 821 q 132 713 201 713 q 70 726 85 713 q 56 781 56 740 q 69 856 56 818 q 115 931 83 893 q 206 992 146 968 q 347 1015 267 1015 q 626 768 626 1015 q 597 622 626 683 q 515 536 567 561 q 657 321 657 481 l 657 294 q 569 65 657 138 q 340 -8 482 -8 q 112 67 190 -8 q 33 236 33 142 z "},"4":{"ha":669,"x_min":4,"x_max":663,"o":"m 4 282 q 13 313 4 297 l 349 975 q 413 1015 369 1015 q 461 999 436 1015 q 486 958 486 982 q 479 936 486 950 l 193 365 l 397 365 l 397 557 q 471 606 397 606 q 523 593 501 606 q 544 557 544 581 l 544 365 l 613 365 q 649 344 636 365 q 663 296 663 324 q 647 249 663 271 q 613 228 632 228 l 544 228 l 544 49 q 522 13 544 26 q 471 0 500 0 q 419 13 440 0 q 397 49 397 26 l 397 228 l 56 228 q 19 242 33 228 q 4 282 4 257 z "},"5":{"ha":690,"x_min":31,"x_max":654,"o":"m 31 238 q 103 306 31 306 q 178 247 178 306 q 224 156 178 189 q 340 122 271 122 q 507 297 507 122 l 507 324 q 464 455 507 411 q 342 499 421 499 l 140 499 q 78 556 78 499 q 81 589 78 569 l 113 967 q 146 1015 117 1015 l 558 1015 q 592 996 581 1015 q 604 950 604 976 q 592 904 604 924 q 558 885 581 885 l 238 885 l 218 615 l 342 615 q 569 545 485 615 q 654 324 654 475 l 654 297 q 569 66 654 140 q 343 -8 483 -8 q 115 63 199 -8 q 31 238 31 135 z "},"6":{"ha":744,"x_min":69,"x_max":693,"o":"m 69 301 l 69 706 q 156 940 69 865 q 388 1015 243 1015 q 613 941 533 1015 q 693 768 693 867 q 676 719 693 733 q 624 706 660 706 q 547 761 547 706 q 501 851 547 817 q 385 885 454 885 q 215 706 215 885 l 215 531 q 410 610 279 610 q 693 326 693 610 l 693 301 q 608 67 693 142 q 382 -8 524 -8 q 155 67 240 -8 q 69 301 69 142 m 215 293 q 382 114 215 114 q 546 293 546 114 l 546 317 q 381 492 546 492 q 215 329 215 492 l 215 293 z "},"7":{"ha":672,"x_min":29,"x_max":653,"o":"m 29 754 l 29 967 q 50 1000 29 985 q 94 1015 71 1015 l 588 1015 q 631 1000 610 1015 q 653 967 653 985 l 653 824 q 626 742 653 792 l 253 18 q 208 -4 240 -4 q 144 17 172 -4 q 117 68 117 38 q 124 96 117 83 l 506 799 l 506 885 l 176 885 l 176 754 q 153 719 176 733 q 101 706 131 706 q 51 719 72 706 q 29 754 29 733 z "},"8":{"ha":724,"x_min":50,"x_max":674,"o":"m 50 278 l 50 294 q 210 554 50 496 q 81 771 81 604 q 156 956 81 897 q 363 1015 232 1015 q 569 956 493 1015 q 644 771 644 897 q 514 554 644 603 q 674 294 674 496 l 674 278 q 589 61 674 131 q 363 -8 504 -8 q 135 61 221 -8 q 50 278 50 131 m 197 293 q 241 158 197 203 q 363 114 285 114 q 526 293 526 114 l 526 318 q 363 492 526 492 q 197 318 197 492 l 197 293 m 224 754 q 363 614 224 614 q 501 754 501 614 q 363 893 501 893 q 224 754 224 893 z "},"9":{"ha":744,"x_min":51,"x_max":675,"o":"m 51 239 q 68 288 51 274 q 121 301 85 301 q 197 246 197 301 q 244 156 197 190 q 360 122 290 122 q 528 301 528 122 l 528 476 q 335 397 465 397 q 51 681 51 397 l 51 706 q 136 940 51 865 q 363 1015 221 1015 q 590 940 504 1015 q 675 706 675 865 l 675 301 q 588 67 675 142 q 356 -8 501 -8 q 131 66 211 -8 q 51 239 51 140 m 199 690 q 364 515 199 515 q 528 678 528 515 l 528 714 q 363 893 528 893 q 199 714 199 893 l 199 690 z "},"\u0000":{"ha":0,"x_min":0,"x_max":0,"o":""},"\r":{"ha":0,"x_min":0,"x_max":0,"o":""}," ":{"ha":278,"x_min":0,"x_max":0,"o":""},"!":{"ha":292,"x_min":64,"x_max":229,"o":"m 64 75 q 88 134 64 110 q 147 158 113 158 q 205 134 181 158 q 229 75 229 110 q 205 17 229 42 q 147 -8 181 -8 q 88 17 113 -8 q 64 75 64 42 m 72 958 q 93 1008 72 990 q 146 1025 114 1025 q 199 1007 178 1025 q 219 958 219 989 q 210 632 219 858 q 201 306 201 406 q 183 273 201 285 q 146 261 165 261 q 89 306 89 261 q 81 632 89 406 q 72 958 72 858 z "},"\"":{"ha":404,"x_min":44,"x_max":360,"o":"m 44 1026 q 62 1055 44 1043 q 101 1067 79 1067 q 142 1055 124 1067 q 161 1026 161 1043 l 147 831 q 135 801 147 814 q 101 789 124 789 q 58 831 58 789 l 44 1026 m 243 1026 q 261 1055 243 1043 q 301 1067 279 1067 q 342 1055 324 1067 q 360 1026 360 1043 l 346 831 q 334 801 346 814 q 301 789 322 789 q 257 831 257 789 l 243 1026 z "},"#":{"ha":892,"x_min":33,"x_max":860,"o":"m 45 338 q 39 345 45 338 q 33 376 33 353 q 45 417 33 400 q 75 433 57 433 l 217 433 l 249 624 l 131 624 q 86 678 86 624 q 98 717 86 701 q 128 733 110 733 l 271 733 l 308 958 q 328 981 310 972 q 368 990 346 990 q 417 976 397 990 q 436 932 436 961 l 403 733 l 564 733 l 603 958 q 622 981 604 972 q 663 990 640 990 q 710 976 690 990 q 731 932 729 961 l 696 733 l 814 733 q 846 718 832 733 q 860 679 860 703 q 847 640 860 656 q 817 624 833 624 l 676 624 l 643 433 l 761 433 q 794 417 779 433 q 808 378 808 401 q 794 338 808 354 q 764 322 781 322 l 622 322 l 581 79 q 560 53 578 64 q 522 43 542 43 q 472 58 493 43 q 451 100 451 74 l 489 322 l 329 322 l 288 81 q 267 54 285 65 q 231 43 249 43 q 181 58 201 43 q 160 100 160 74 l 194 322 l 78 322 q 45 338 57 322 m 350 433 l 510 433 l 543 624 l 382 624 l 350 433 z "},"$":{"ha":715,"x_min":43,"x_max":667,"o":"m 43 167 q 63 219 43 193 q 107 246 82 246 q 151 222 124 246 q 224 169 178 197 q 332 138 271 142 l 332 464 q 268 488 290 479 q 209 515 246 497 q 152 551 172 532 q 110 596 132 569 q 78 658 88 622 q 68 736 68 693 q 144 919 68 857 q 332 994 219 982 l 332 1035 q 344 1057 332 1047 q 372 1067 356 1067 q 401 1057 388 1067 q 414 1035 414 1047 l 414 997 q 570 969 499 994 q 642 897 642 943 q 625 845 642 872 q 581 818 608 818 q 519 842 569 818 q 414 869 469 865 l 414 588 q 506 548 469 567 q 584 496 543 529 q 646 412 625 463 q 667 293 667 361 q 599 97 667 169 q 414 7 531 24 l 414 -40 q 401 -62 414 -53 q 372 -72 388 -72 q 344 -62 356 -72 q 332 -40 332 -53 l 332 3 q 127 58 211 4 q 43 167 43 111 m 207 750 q 240 667 207 696 q 340 614 274 639 l 340 867 q 207 750 207 850 m 406 140 q 528 278 528 163 q 496 374 528 339 q 406 433 464 408 l 406 140 z "},"%":{"ha":1075,"x_min":43,"x_max":1032,"o":"m 43 639 l 43 844 q 231 1015 43 1015 q 367 974 315 1015 q 418 844 418 933 l 418 639 q 367 509 418 550 q 231 468 315 468 q 43 639 43 468 m 144 639 q 231 557 144 557 q 318 639 318 557 l 318 844 q 231 926 318 926 q 144 844 144 926 l 144 639 m 233 3 q 239 24 233 14 l 749 1044 q 790 1069 760 1069 q 831 1054 813 1069 q 849 1017 849 1039 q 844 994 849 1006 l 335 -22 q 288 -49 322 -49 q 249 -33 264 -49 q 233 3 233 -17 m 657 167 l 657 372 q 844 543 657 543 q 981 502 929 543 q 1032 372 1032 461 l 1032 167 q 981 37 1032 78 q 844 -4 929 -4 q 657 167 657 -4 m 758 167 q 844 85 758 85 q 932 167 932 85 l 932 372 q 844 454 932 454 q 758 372 758 454 l 758 167 z "},"&":{"ha":874,"x_min":36,"x_max":856,"o":"m 36 288 q 88 455 36 382 q 215 568 139 528 q 139 676 165 625 q 113 793 113 728 q 192 973 113 907 q 389 1039 271 1039 q 572 988 500 1039 q 644 888 644 936 q 623 840 644 861 q 575 819 601 819 q 533 844 554 819 q 477 894 511 869 q 392 919 443 919 q 292 884 329 919 q 254 786 254 849 q 265 726 254 756 q 302 662 276 696 q 343 611 328 628 l 392 557 l 638 293 q 674 504 667 361 q 690 541 676 529 q 740 553 704 553 q 789 536 776 553 q 801 482 801 519 q 728 200 801 331 l 846 75 q 856 49 856 64 q 835 8 856 26 q 788 -11 814 -11 q 750 7 768 -11 l 654 107 q 374 -14 543 -14 q 129 74 222 -14 q 36 288 36 163 m 185 300 q 240 168 185 221 q 392 115 294 115 q 567 197 506 115 l 299 481 q 185 300 185 403 z "},"'":{"ha":206,"x_min":44,"x_max":161,"o":"m 44 1026 q 62 1055 44 1043 q 101 1067 79 1067 q 142 1055 124 1067 q 161 1026 161 1043 l 147 831 q 135 801 147 814 q 101 789 124 789 q 58 831 58 789 l 44 1026 z "},"(":{"ha":451,"x_min":74,"x_max":428,"o":"m 74 222 l 74 797 q 160 989 74 911 q 356 1067 246 1067 q 428 1003 428 1067 q 414 956 428 974 q 379 938 400 938 q 263 895 307 938 q 219 797 219 853 l 219 222 q 267 128 219 156 q 379 101 314 101 q 428 36 428 101 q 351 -28 428 -28 q 155 37 236 -28 q 74 222 74 101 z "},")":{"ha":453,"x_min":25,"x_max":379,"o":"m 25 36 q 72 101 25 101 q 185 128 138 101 q 232 222 232 156 l 232 797 q 188 895 232 853 q 72 938 144 938 q 38 956 51 938 q 25 1003 25 974 q 96 1067 25 1067 q 292 989 206 1067 q 379 797 379 911 l 379 222 q 297 37 379 101 q 100 -28 215 -28 q 41 -11 57 -28 q 25 36 25 6 z "},"*":{"ha":626,"x_min":35,"x_max":592,"o":"m 35 804 q 50 844 35 826 q 89 861 65 861 q 104 858 97 861 l 267 803 l 260 967 q 276 1003 261 990 q 314 1015 292 1015 q 351 1003 336 1015 q 367 967 365 990 l 361 800 l 524 858 q 539 861 535 861 q 576 842 561 861 q 592 799 592 822 q 557 754 592 763 l 397 713 l 503 565 q 511 536 511 556 q 492 497 511 513 q 450 482 474 482 q 413 501 425 482 l 314 649 l 214 500 q 179 482 203 482 q 138 497 158 482 q 117 535 117 511 q 128 567 117 553 l 231 707 l 68 754 q 35 804 35 763 z "},"+":{"ha":601,"x_min":31,"x_max":571,"o":"m 44 290 q 37 298 44 290 q 31 333 31 307 q 44 378 31 360 q 78 396 57 396 l 239 396 l 239 556 q 258 590 239 575 q 301 604 276 604 q 345 590 328 604 q 363 556 363 575 l 363 396 l 522 396 q 556 377 542 396 q 571 333 571 358 q 556 290 571 307 q 522 272 542 272 l 363 272 l 363 111 q 345 77 363 90 q 301 64 328 64 q 257 77 275 64 q 239 111 239 90 l 239 272 l 78 272 q 44 290 57 272 z "},",":{"ha":257,"x_min":46,"x_max":211,"o":"m 46 75 q 69 134 46 110 q 128 158 93 158 q 186 134 161 158 q 211 75 211 110 q 143 -110 211 53 q 110 -131 133 -131 q 76 -120 92 -131 q 60 -92 60 -110 q 64 -74 60 -81 l 94 0 q 46 75 46 21 z "},"-":{"ha":572,"x_min":57,"x_max":515,"o":"m 70 290 q 64 298 70 290 q 57 333 57 307 q 70 378 57 360 q 104 396 83 396 l 465 396 q 500 377 485 396 q 515 333 515 358 q 500 290 515 307 q 465 272 485 272 l 104 272 q 70 290 83 272 z "},".":{"ha":256,"x_min":46,"x_max":211,"o":"m 69 16 q 58 28 69 16 q 46 75 46 40 q 69 134 46 110 q 129 158 93 158 q 187 134 163 158 q 211 75 211 110 q 187 17 211 42 q 129 -8 163 -8 q 69 16 93 -8 z "},"/":{"ha":668,"x_min":26,"x_max":642,"o":"m 26 3 q 31 24 26 14 l 542 1044 q 583 1069 553 1069 q 624 1054 606 1069 q 642 1017 642 1039 q 636 994 642 1004 l 126 -22 q 81 -49 114 -49 q 42 -33 57 -49 q 26 3 26 -17 z "},":":{"ha":304,"x_min":69,"x_max":235,"o":"m 93 16 q 81 28 93 16 q 69 75 69 40 q 93 134 69 110 q 153 158 117 158 q 210 134 186 158 q 235 75 235 110 q 210 17 235 42 q 153 -8 186 -8 q 93 16 117 -8 m 93 444 q 81 456 93 444 q 69 503 69 468 q 93 562 69 538 q 153 586 117 586 q 210 562 186 586 q 235 503 235 538 q 210 444 235 469 q 153 419 186 419 q 93 444 117 419 z "},";":{"ha":304,"x_min":67,"x_max":238,"o":"m 67 75 q 90 134 67 110 q 149 158 114 158 q 207 134 182 158 q 232 75 232 110 q 164 -110 232 53 q 131 -131 154 -131 q 97 -120 113 -131 q 81 -92 81 -110 q 85 -74 81 -81 l 115 0 q 67 75 67 21 m 96 444 q 84 456 96 444 q 72 503 72 468 q 96 562 72 538 q 156 586 119 586 q 213 562 189 586 q 238 503 238 538 q 213 444 238 469 q 156 419 189 419 q 96 444 119 419 z "},"<":{"ha":571,"x_min":29,"x_max":513,"o":"m 29 385 q 60 442 29 421 l 425 681 q 446 686 432 686 q 491 665 469 686 q 513 617 513 644 q 492 576 513 590 l 200 385 l 492 193 q 513 153 513 182 q 491 105 513 125 q 446 85 469 85 q 425 90 432 85 l 60 329 q 29 385 29 350 z "},"=":{"ha":614,"x_min":81,"x_max":533,"o":"m 81 211 q 94 256 81 238 q 129 274 108 274 l 483 274 q 518 255 503 274 q 533 211 533 236 q 518 167 533 185 q 483 150 503 150 l 129 150 q 94 167 107 150 q 81 211 81 183 m 81 493 q 94 538 81 519 q 129 556 108 556 l 483 556 q 518 537 503 556 q 533 493 533 518 q 518 449 533 467 q 483 432 503 432 l 129 432 q 94 449 107 432 q 81 493 81 465 z "},">":{"ha":569,"x_min":58,"x_max":540,"o":"m 80 105 q 69 115 80 105 q 58 153 58 125 q 78 193 58 181 l 371 385 l 78 576 q 58 617 58 592 q 80 665 58 644 q 125 686 101 686 q 144 681 138 686 l 510 442 q 540 385 540 421 q 510 329 540 349 l 144 90 q 125 85 138 85 q 80 105 101 85 z "},"?":{"ha":586,"x_min":31,"x_max":549,"o":"m 31 883 q 99 978 31 932 q 271 1025 167 1025 q 474 958 400 1025 q 549 786 549 890 q 536 703 549 743 q 500 631 524 664 q 458 577 476 599 q 410 530 439 556 q 376 499 382 504 q 325 422 335 461 q 315 304 315 383 q 257 261 315 261 q 215 275 228 261 q 203 325 203 289 q 278 553 203 483 q 313 583 286 561 q 355 620 340 606 q 389 659 369 635 q 417 712 408 683 q 426 772 426 740 q 384 876 426 839 q 267 913 342 913 q 191 899 222 913 q 147 869 160 886 q 119 840 135 853 q 88 826 104 826 q 49 842 67 826 q 31 883 31 857 m 176 75 q 200 134 176 110 q 258 158 224 158 q 316 134 292 158 q 340 75 340 110 q 316 17 340 42 q 258 -8 292 -8 q 200 17 224 -8 q 176 75 176 42 z "},"@":{"ha":1013,"x_min":61,"x_max":969,"o":"m 61 294 q 177 649 61 513 q 522 785 293 785 q 852 665 735 785 q 969 329 969 546 q 922 112 969 197 q 779 26 875 26 q 685 54 724 26 q 638 124 646 82 q 465 36 561 36 q 341 75 392 36 q 290 193 290 114 q 362 322 290 285 q 567 358 433 358 l 618 358 l 618 382 q 496 486 618 486 q 405 468 444 486 q 361 450 365 450 q 335 470 346 450 q 324 507 324 490 q 383 565 324 540 q 513 589 443 589 q 667 541 607 589 q 726 407 726 493 l 726 174 q 788 106 736 106 q 872 310 872 106 q 521 696 872 696 q 348 664 421 696 q 235 574 275 632 q 178 448 196 517 q 160 296 160 379 q 176 153 160 218 q 227 35 192 89 q 326 -49 263 -19 q 478 -79 390 -79 q 606 -60 547 -79 q 668 -42 664 -42 q 695 -56 685 -42 q 706 -85 706 -71 q 624 -144 706 -121 q 461 -168 543 -168 q 311 -140 382 -168 q 184 -56 240 -111 q 94 89 128 -1 q 61 294 61 179 m 410 194 q 431 138 410 157 q 489 119 453 119 q 583 155 543 119 q 622 232 622 190 l 622 289 l 581 289 q 453 268 496 289 q 410 194 410 247 z "},"A":{"ha":781,"x_min":19,"x_max":763,"o":"m 19 61 q 21 74 19 69 l 297 974 q 390 1024 314 1024 q 485 974 468 1024 l 760 74 q 763 61 763 65 q 733 18 763 36 q 669 0 703 0 q 619 31 629 0 l 563 228 l 219 228 l 163 31 q 111 0 153 0 q 49 18 78 0 q 19 61 19 36 m 251 346 l 529 346 l 390 822 l 251 346 z "},"B":{"ha":768,"x_min":92,"x_max":715,"o":"m 92 47 l 92 967 q 111 1002 92 989 q 157 1015 131 1015 l 410 1015 q 614 963 538 1015 q 690 775 690 910 q 572 550 690 603 q 679 470 643 522 q 715 318 715 418 l 715 292 q 640 69 715 139 q 439 0 565 0 l 157 0 q 110 14 128 0 q 92 47 92 28 m 238 131 l 411 131 q 568 303 568 131 l 568 325 q 528 453 568 414 q 411 492 489 492 l 238 492 l 238 131 m 238 608 l 403 608 q 543 751 543 608 q 400 885 543 885 l 238 885 l 238 608 z "},"C":{"ha":751,"x_min":82,"x_max":706,"o":"m 82 301 l 82 706 q 167 940 82 865 q 390 1015 253 1015 q 619 945 532 1015 q 706 764 706 875 q 689 703 706 719 q 632 688 672 688 q 558 736 560 688 q 396 885 550 885 q 229 706 229 885 l 229 301 q 399 122 229 122 q 482 137 449 122 q 530 179 515 151 q 550 228 544 207 q 558 279 556 249 q 631 328 563 328 q 688 312 671 328 q 706 251 706 296 q 618 64 706 136 q 389 -8 531 -8 q 167 67 251 -8 q 82 301 82 142 z "},"D":{"ha":796,"x_min":92,"x_max":715,"o":"m 92 47 l 92 968 q 110 1001 92 988 q 157 1015 129 1015 l 403 1015 q 630 940 544 1015 q 715 706 715 865 l 715 310 q 630 75 715 150 q 403 0 544 0 l 157 0 q 110 14 129 0 q 92 47 92 28 m 239 131 l 403 131 q 568 310 568 131 l 568 706 q 403 885 568 885 l 239 885 l 239 131 z "},"E":{"ha":726,"x_min":92,"x_max":700,"o":"m 92 49 l 92 967 q 111 1002 92 989 q 157 1015 131 1015 l 651 1015 q 688 996 675 1015 q 700 951 700 976 q 687 904 700 924 q 651 885 674 885 l 239 885 l 239 567 l 453 567 q 488 549 475 567 q 501 507 501 532 q 489 467 501 485 q 453 450 476 450 l 239 450 l 239 131 l 651 131 q 687 111 674 131 q 700 64 700 92 q 688 19 700 39 q 651 0 675 0 l 157 0 q 111 13 131 0 q 92 49 92 26 z "},"F":{"ha":697,"x_min":92,"x_max":692,"o":"m 92 49 l 92 967 q 111 1002 92 989 q 157 1015 131 1015 l 644 1015 q 680 997 668 1015 q 692 951 692 978 q 679 904 692 924 q 644 885 667 885 l 239 885 l 239 567 l 454 567 q 489 549 476 567 q 501 507 501 532 q 490 467 501 485 q 454 450 478 450 l 239 450 l 239 49 q 217 13 239 25 q 165 0 196 0 q 114 13 136 0 q 92 49 92 25 z "},"G":{"ha":772,"x_min":82,"x_max":706,"o":"m 82 301 l 82 706 q 167 940 82 865 q 389 1015 251 1015 q 617 945 529 1015 q 706 758 706 875 q 688 703 706 718 q 632 688 671 688 q 558 736 560 688 q 393 885 543 885 q 229 706 229 885 l 229 301 q 393 122 229 122 q 515 167 472 122 q 558 301 558 211 l 558 415 l 418 415 q 383 433 396 415 q 371 475 371 450 q 383 515 371 497 q 418 533 396 533 l 657 533 q 692 519 679 533 q 706 483 706 504 l 706 301 q 620 67 706 142 q 393 -8 535 -8 q 167 67 251 -8 q 82 301 82 142 z "},"H":{"ha":824,"x_min":92,"x_max":732,"o":"m 92 49 l 92 968 q 113 1003 92 992 q 165 1015 135 1015 q 217 1003 196 1015 q 239 968 239 992 l 239 585 l 585 585 l 585 968 q 606 1003 585 992 q 658 1015 628 1015 q 710 1003 689 1015 q 732 968 732 992 l 732 49 q 710 13 732 26 q 658 0 689 0 q 607 13 629 0 q 585 49 585 26 l 585 468 l 239 468 l 239 49 q 217 13 239 26 q 165 0 196 0 q 114 13 136 0 q 92 49 92 26 z "},"I":{"ha":331,"x_min":92,"x_max":239,"o":"m 92 49 l 92 968 q 113 1003 92 992 q 165 1015 135 1015 q 217 1003 196 1015 q 239 968 239 992 l 239 49 q 217 13 239 26 q 165 0 196 0 q 114 13 136 0 q 92 49 92 26 z "},"J":{"ha":736,"x_min":24,"x_max":649,"o":"m 24 257 q 42 313 24 297 q 99 328 60 328 q 171 279 169 328 q 214 167 174 211 q 335 122 254 122 q 501 301 501 122 l 501 885 l 339 885 q 303 904 317 885 q 290 951 290 924 q 303 997 290 978 q 339 1015 315 1015 l 583 1015 q 629 1002 610 1015 q 649 967 649 989 l 649 301 q 564 67 649 142 q 340 -8 479 -8 q 112 65 200 -8 q 24 257 24 138 z "},"K":{"ha":751,"x_min":92,"x_max":751,"o":"m 92 49 l 92 968 q 113 1003 92 992 q 165 1015 135 1015 q 217 1003 196 1015 q 239 968 239 992 l 239 546 l 578 994 q 619 1015 592 1015 q 676 991 649 1015 q 704 939 704 967 q 693 910 704 922 l 426 576 l 743 94 q 751 68 751 82 q 724 19 751 42 q 665 -4 697 -4 q 613 24 631 -4 l 329 453 l 239 339 l 239 49 q 217 13 239 26 q 165 0 196 0 q 114 13 136 0 q 92 49 92 26 z "},"L":{"ha":663,"x_min":92,"x_max":644,"o":"m 92 49 l 92 968 q 113 1003 92 992 q 165 1015 135 1015 q 217 1003 196 1015 q 239 968 239 992 l 239 131 l 600 131 q 633 111 621 131 q 644 65 644 92 q 633 19 644 39 q 600 0 621 0 l 157 0 q 111 13 131 0 q 92 49 92 26 z "},"M":{"ha":954,"x_min":92,"x_max":863,"o":"m 92 49 l 92 942 q 113 997 92 979 q 165 1015 133 1015 q 231 998 206 1015 q 282 932 257 981 l 476 564 l 674 932 q 724 998 699 981 q 789 1015 749 1015 q 842 997 821 1015 q 863 942 863 979 l 863 49 q 841 13 863 26 q 789 0 819 0 q 738 13 760 0 q 715 49 715 26 l 715 715 l 529 371 q 475 338 508 338 q 425 371 442 338 l 239 724 l 239 49 q 217 13 239 26 q 165 0 196 0 q 114 13 136 0 q 92 49 92 26 z "},"N":{"ha":824,"x_min":92,"x_max":732,"o":"m 92 49 l 92 967 q 165 1015 92 1015 q 228 998 204 1015 q 276 932 251 981 l 585 331 l 585 968 q 606 1003 585 992 q 658 1015 628 1015 q 710 1003 689 1015 q 732 968 732 992 l 732 49 q 710 13 732 26 q 658 0 689 0 q 571 54 600 0 l 239 686 l 239 49 q 217 13 239 26 q 165 0 196 0 q 114 13 136 0 q 92 49 92 26 z "},"O":{"ha":786,"x_min":82,"x_max":706,"o":"m 82 301 l 82 706 q 167 940 82 865 q 393 1015 251 1015 q 620 940 535 1015 q 706 706 706 865 l 706 301 q 620 67 706 142 q 393 -8 535 -8 q 167 67 251 -8 q 82 301 82 142 m 229 301 q 393 122 229 122 q 515 167 472 122 q 558 301 558 211 l 558 706 q 515 840 558 796 q 393 885 472 885 q 229 706 229 885 l 229 301 z "},"P":{"ha":757,"x_min":92,"x_max":724,"o":"m 92 49 l 92 968 q 108 1001 92 988 q 149 1015 124 1015 l 419 1015 q 641 942 558 1015 q 724 710 724 868 l 724 699 q 638 466 724 540 q 411 392 553 392 l 239 392 l 239 49 q 217 13 239 26 q 165 0 196 0 q 114 13 136 0 q 92 49 92 26 m 239 508 l 411 508 q 533 553 490 508 q 576 689 576 599 l 576 706 q 533 840 576 796 q 411 885 490 885 l 239 885 l 239 508 z "},"Q":{"ha":786,"x_min":82,"x_max":706,"o":"m 82 301 l 82 706 q 167 941 82 867 q 393 1015 251 1015 q 620 941 535 1015 q 706 706 706 867 l 706 301 q 635 81 706 156 q 443 -6 564 6 l 443 -103 q 428 -138 443 -125 q 393 -151 414 -151 q 359 -138 374 -151 q 344 -103 344 -125 l 344 -6 q 153 80 224 6 q 82 301 82 154 m 229 301 q 344 131 229 154 l 344 215 q 393 263 344 263 q 428 251 414 263 q 443 215 443 239 l 443 132 q 558 301 558 157 l 558 706 q 515 840 558 796 q 393 885 472 885 q 229 706 229 885 l 229 301 z "},"R":{"ha":776,"x_min":92,"x_max":728,"o":"m 92 49 l 92 968 q 106 1001 92 988 q 140 1015 119 1015 l 404 1015 q 724 732 724 1015 q 671 547 724 614 q 528 457 618 479 l 722 92 q 728 71 728 82 q 699 19 728 43 q 639 -4 671 -4 q 581 39 603 -4 l 378 436 l 238 436 l 238 49 q 216 13 238 26 q 164 0 194 0 q 113 13 135 0 q 92 49 92 26 m 238 554 l 404 554 q 576 719 576 554 q 404 885 576 885 l 238 885 l 238 554 z "},"S":{"ha":711,"x_min":40,"x_max":664,"o":"m 40 153 q 60 206 40 179 q 104 232 79 232 q 141 215 119 232 q 183 177 163 197 q 247 140 204 157 q 342 122 289 122 q 469 160 421 122 q 517 269 517 197 q 470 381 517 336 q 358 451 424 425 q 225 508 292 478 q 112 600 158 539 q 65 753 65 661 q 94 881 65 826 q 171 964 122 935 q 273 1006 219 993 q 386 1019 326 1019 q 465 1015 424 1019 q 546 999 506 1010 q 613 967 586 988 q 639 919 639 946 q 622 867 639 893 q 578 840 606 840 q 540 853 564 840 q 477 880 517 867 q 386 893 438 893 q 260 862 307 893 q 213 767 213 831 q 238 695 213 725 q 302 646 263 665 q 390 608 342 626 q 487 564 439 589 q 574 506 535 539 q 639 417 614 474 q 664 285 664 360 q 577 65 664 140 q 347 -11 490 -11 q 130 42 219 -11 q 40 153 40 96 z "},"T":{"ha":713,"x_min":19,"x_max":693,"o":"m 19 949 q 32 995 19 975 q 68 1015 44 1015 l 644 1015 q 681 996 668 1015 q 693 950 693 976 q 680 901 693 921 q 644 881 667 881 l 431 881 l 431 49 q 408 13 431 26 q 357 0 386 0 q 305 13 326 0 q 283 49 283 26 l 283 881 l 68 881 q 33 901 46 881 q 19 949 19 921 z "},"U":{"ha":810,"x_min":88,"x_max":722,"o":"m 88 301 l 88 968 q 109 1003 88 992 q 161 1015 131 1015 q 213 1003 192 1015 q 235 968 235 992 l 235 301 q 279 167 235 211 q 404 122 324 122 q 575 301 575 122 l 575 968 q 597 1003 575 992 q 649 1015 618 1015 q 701 1003 679 1015 q 722 968 722 992 l 722 301 q 635 67 722 142 q 404 -8 549 -8 q 174 67 261 -8 q 88 301 88 142 z "},"V":{"ha":779,"x_min":18,"x_max":761,"o":"m 18 954 q 47 997 18 979 q 110 1015 76 1015 q 161 985 151 1015 l 390 193 l 618 985 q 668 1015 628 1015 q 731 997 701 1015 q 761 954 761 979 q 758 942 761 950 l 483 42 q 450 5 476 18 q 390 -8 424 -8 q 297 42 314 -8 l 19 942 q 18 954 18 946 z "},"W":{"ha":1176,"x_min":19,"x_max":1157,"o":"m 19 956 q 49 998 19 981 q 111 1015 78 1015 q 163 985 154 1015 l 390 193 l 515 690 q 589 733 525 733 q 661 690 650 733 l 788 193 l 1014 985 q 1065 1015 1022 1015 q 1128 998 1099 1015 q 1157 956 1157 981 q 1156 942 1157 946 l 881 42 q 845 5 872 18 q 786 -8 818 -8 q 727 5 754 -8 q 694 42 700 18 l 589 461 l 483 42 q 451 5 478 18 q 390 -8 424 -8 q 331 5 357 -8 q 297 42 304 18 l 21 942 q 19 956 19 946 z "},"X":{"ha":740,"x_min":25,"x_max":717,"o":"m 25 68 q 33 97 25 81 l 274 508 l 40 917 q 29 953 29 936 q 58 1000 29 981 q 122 1019 88 1019 q 178 978 156 1019 l 369 622 l 564 978 q 619 1019 583 1019 q 682 1000 653 1019 q 711 953 711 981 q 700 917 711 936 l 467 508 l 707 97 q 717 68 717 78 q 685 17 717 39 q 621 -4 654 -4 q 575 29 592 -4 l 369 399 l 167 29 q 119 -4 147 -4 q 56 17 88 -4 q 25 68 25 39 z "},"Y":{"ha":775,"x_min":18,"x_max":757,"o":"m 18 954 q 49 997 18 979 q 111 1015 79 1015 q 160 982 142 1015 l 389 542 l 617 982 q 665 1015 633 1015 q 727 997 697 1015 q 757 954 757 979 q 753 933 757 942 l 465 415 q 463 400 463 407 l 463 49 q 440 13 463 26 q 389 0 418 0 q 337 13 358 0 q 315 49 315 26 l 315 400 q 311 415 315 403 l 24 933 q 18 954 18 944 z "},"Z":{"ha":706,"x_min":25,"x_max":682,"o":"m 25 43 q 40 94 25 69 l 471 885 l 94 885 q 59 903 72 885 q 46 950 46 922 q 58 996 46 976 q 94 1015 71 1015 l 613 1015 q 660 974 660 1015 q 643 919 660 949 l 213 131 l 633 131 q 669 110 656 131 q 682 65 682 90 q 669 20 682 40 q 633 0 656 0 l 71 0 q 25 43 25 0 z "},"[":{"ha":456,"x_min":83,"x_max":431,"o":"m 83 19 l 83 1018 q 103 1053 83 1040 q 150 1067 124 1067 l 382 1067 q 417 1047 404 1067 q 431 1003 431 1028 q 417 956 431 975 q 382 936 403 936 l 231 936 l 231 101 l 382 101 q 417 82 403 101 q 431 35 431 63 q 417 -10 431 10 q 382 -29 404 -29 l 150 -29 q 103 -16 124 -29 q 83 19 83 -3 z "},"\\":{"ha":503,"x_min":29,"x_max":474,"o":"m 29 996 q 47 1033 29 1017 q 88 1049 64 1049 q 132 1018 119 1049 l 472 67 q 474 51 474 61 q 458 15 474 31 q 419 -1 442 -1 q 372 32 383 -1 l 33 979 q 29 996 29 988 z "},"]":{"ha":454,"x_min":25,"x_max":371,"o":"m 25 35 q 38 82 25 63 q 72 101 51 101 l 224 101 l 224 936 l 72 936 q 38 956 51 936 q 25 1003 25 975 q 38 1047 25 1028 q 72 1067 50 1067 l 306 1067 q 351 1053 332 1067 q 371 1018 371 1040 l 371 19 q 351 -16 371 -3 q 306 -29 332 -29 l 72 -29 q 38 -10 50 -29 q 25 35 25 10 z "},"^":{"ha":388,"x_min":0,"x_max":388,"o":"m 0 857 q 25 900 0 886 l 169 978 q 193 985 183 985 q 217 978 206 985 l 361 901 q 388 856 388 885 q 377 823 388 838 q 351 808 367 808 q 343 810 349 808 q 338 813 340 813 l 193 890 l 49 813 q 36 808 42 808 q 10 823 21 808 q 0 857 0 838 z "},"_":{"ha":450,"x_min":-44,"x_max":497,"o":"m -31 -106 q -38 -98 -31 -106 q -44 -62 -44 -89 q -31 -18 -44 -36 q 3 0 -18 0 l 447 0 q 482 -19 467 0 q 497 -62 497 -37 q 482 -106 497 -89 q 447 -124 467 -124 l 3 -124 q -31 -106 -18 -124 z "},"`":{"ha":256,"x_min":0,"x_max":256,"o":"m 0 928 q 14 967 0 949 q 47 985 28 985 q 63 982 51 985 l 235 894 q 256 858 256 883 q 242 819 256 838 q 208 801 228 801 q 190 806 199 801 l 22 890 q 0 928 0 900 z "},"a":{"ha":639,"x_min":35,"x_max":567,"o":"m 35 172 q 118 327 35 283 q 360 371 201 371 l 421 371 l 421 396 q 387 501 421 457 q 283 546 353 546 q 178 525 224 546 q 129 504 133 504 q 91 527 106 504 q 76 578 76 550 q 144 640 76 614 q 286 667 211 667 q 498 590 429 667 q 567 397 567 513 l 567 49 q 547 15 567 29 q 496 0 526 0 q 449 15 468 0 q 429 49 429 29 l 429 97 q 219 -11 336 -11 q 87 36 139 -11 q 35 172 35 83 m 182 190 q 207 123 182 146 q 272 100 232 100 q 373 144 325 100 q 421 239 421 189 l 421 290 l 386 290 q 284 285 324 290 q 213 256 244 279 q 182 190 182 232 z "},"b":{"ha":703,"x_min":78,"x_max":651,"o":"m 78 49 l 78 1003 q 97 1037 78 1024 q 149 1050 117 1050 q 202 1037 181 1050 q 224 1003 224 1024 l 224 561 q 294 636 247 606 q 403 667 342 667 q 578 586 506 667 q 651 393 651 506 l 651 265 q 578 73 651 157 q 407 -11 504 -11 q 292 21 344 -11 q 215 97 239 53 l 215 49 q 195 15 215 31 q 149 0 175 0 q 98 15 118 0 q 78 49 78 31 m 224 233 q 267 160 224 203 q 365 118 311 118 q 464 163 422 118 q 506 265 506 208 l 506 393 q 463 493 506 449 q 364 538 421 538 q 267 497 310 538 q 224 393 224 457 l 224 233 z "},"c":{"ha":592,"x_min":54,"x_max":563,"o":"m 54 265 l 54 390 q 126 590 54 514 q 342 667 199 667 q 493 635 432 667 q 554 565 554 604 q 537 518 554 542 q 496 494 519 494 q 447 516 489 494 q 353 538 404 538 q 200 390 200 538 l 200 265 q 354 118 200 118 q 449 141 407 118 q 500 164 492 164 q 545 142 528 164 q 563 94 563 119 q 499 22 563 56 q 343 -11 435 -11 q 126 65 199 -11 q 54 265 54 140 z "},"d":{"ha":704,"x_min":51,"x_max":626,"o":"m 51 265 l 51 393 q 124 586 51 506 q 300 667 197 667 q 408 636 361 667 q 481 561 456 606 l 481 1003 q 501 1037 481 1024 q 554 1050 522 1050 q 606 1037 586 1050 q 626 1003 626 1024 l 626 49 q 606 15 626 31 q 554 0 585 0 q 508 15 528 0 q 488 49 488 31 l 488 97 q 412 21 465 53 q 296 -11 358 -11 q 125 73 199 -11 q 51 265 51 157 m 197 265 q 239 163 197 208 q 338 118 281 118 q 436 160 392 118 q 481 233 481 203 l 481 393 q 438 497 481 457 q 339 538 394 538 q 240 493 282 538 q 197 393 197 449 l 197 265 z "},"e":{"ha":658,"x_min":51,"x_max":617,"o":"m 51 265 l 51 397 q 136 587 51 507 q 340 667 221 667 q 535 594 454 667 q 617 410 617 521 q 607 342 617 368 q 576 306 597 317 q 538 293 556 296 q 490 290 519 290 l 197 290 l 197 258 q 247 148 197 189 q 378 107 297 107 q 485 133 435 107 q 547 160 536 160 q 588 138 571 160 q 604 94 604 115 q 538 24 604 60 q 374 -11 471 -11 q 142 65 232 -11 q 51 265 51 142 m 197 381 l 428 381 q 469 389 458 381 q 479 422 479 397 q 439 517 479 478 q 339 556 399 556 q 239 519 281 556 q 197 425 197 482 l 197 381 z "},"f":{"ha":456,"x_min":78,"x_max":444,"o":"m 78 47 l 78 785 q 150 973 78 896 q 324 1050 222 1050 l 388 1050 q 429 1031 414 1050 q 444 988 444 1013 q 429 944 444 963 q 388 925 414 925 l 351 925 q 260 889 296 925 q 224 799 224 853 l 224 658 l 404 658 q 433 642 422 658 q 444 604 444 626 q 433 566 444 582 q 404 550 422 550 l 224 550 l 224 47 q 201 13 224 26 q 149 0 179 0 q 98 13 118 0 q 78 47 78 26 z "},"g":{"ha":643,"x_min":26,"x_max":625,"o":"m 26 -121 q 133 28 26 -24 q 68 119 68 56 q 138 225 68 181 q 56 400 56 289 l 56 439 q 127 603 56 539 q 314 667 199 667 q 475 619 411 667 q 565 713 515 713 q 608 697 592 713 q 625 663 625 681 q 601 628 625 640 q 532 572 557 608 q 576 439 576 517 l 576 400 q 503 235 576 300 q 314 169 429 169 q 218 186 260 169 q 192 147 192 168 q 235 107 192 119 q 341 88 279 94 q 465 67 403 81 q 570 11 526 54 q 614 -103 614 -32 q 531 -260 614 -207 q 322 -312 449 -312 q 111 -260 196 -312 q 26 -121 26 -208 m 164 -106 q 208 -185 164 -156 q 321 -215 251 -215 q 431 -186 389 -215 q 472 -107 472 -157 q 453 -53 472 -75 q 395 -22 433 -32 q 330 -8 357 -11 q 257 -1 303 -4 q 164 -106 164 -36 m 197 401 q 229 301 197 340 q 317 263 261 263 q 403 301 371 263 q 435 400 435 339 l 435 439 q 403 535 435 497 q 315 574 371 574 q 229 535 261 574 q 197 439 197 497 l 197 401 z "},"h":{"ha":714,"x_min":78,"x_max":643,"o":"m 78 49 l 78 1003 q 98 1037 78 1024 q 150 1050 118 1050 q 202 1037 181 1050 q 224 1003 224 1024 l 224 561 q 292 636 246 606 q 401 667 339 667 q 572 586 500 667 q 643 393 643 506 l 643 49 q 621 13 643 26 q 569 0 599 0 q 519 13 542 0 q 497 49 497 26 l 497 393 q 456 493 497 449 q 357 538 414 538 q 264 498 304 538 q 224 393 224 458 l 224 49 q 201 15 224 31 q 150 0 179 0 q 99 15 119 0 q 78 49 78 31 z "},"i":{"ha":299,"x_min":64,"x_max":233,"o":"m 64 900 q 89 954 64 932 q 149 976 114 976 q 208 954 183 976 q 233 900 233 932 q 208 847 233 869 q 149 824 183 824 q 89 847 114 824 q 64 900 64 869 m 76 49 l 76 611 q 97 645 76 632 q 149 658 117 658 q 201 645 181 658 q 222 611 222 632 l 222 49 q 201 15 222 31 q 149 0 179 0 q 97 15 118 0 q 76 49 76 31 z "},"j":{"ha":299,"x_min":-53,"x_max":233,"o":"m -53 -251 q -36 -206 -53 -224 q 4 -187 -19 -187 q 63 -153 49 -187 q 76 -50 76 -119 l 76 611 q 97 645 76 632 q 149 658 117 658 q 201 645 181 658 q 222 611 222 632 l 222 -50 q 172 -242 222 -171 q 24 -312 122 -312 q -53 -251 -53 -312 m 64 900 q 89 954 64 932 q 149 976 114 976 q 208 954 183 976 q 233 900 233 932 q 208 847 233 869 q 149 824 183 824 q 89 847 114 824 q 64 900 64 869 z "},"k":{"ha":667,"x_min":78,"x_max":650,"o":"m 78 49 l 78 1003 q 97 1037 78 1024 q 149 1050 117 1050 q 202 1037 181 1050 q 224 1003 224 1024 l 224 385 l 514 651 q 544 664 526 664 q 592 642 568 664 q 615 594 615 619 q 603 564 615 576 l 424 404 l 642 90 q 650 65 650 78 q 622 16 650 40 q 568 -8 594 -8 q 529 13 544 -8 l 325 314 l 224 222 l 224 49 q 201 15 224 31 q 149 0 179 0 q 98 15 118 0 q 78 49 78 31 z "},"l":{"ha":324,"x_min":89,"x_max":235,"o":"m 89 49 l 89 1003 q 109 1037 89 1024 q 161 1050 129 1050 q 213 1037 192 1050 q 235 1003 235 1024 l 235 49 q 213 15 235 31 q 161 0 190 0 q 110 15 131 0 q 89 49 89 31 z "},"m":{"ha":1103,"x_min":76,"x_max":1032,"o":"m 76 49 l 76 611 q 97 645 76 632 q 149 658 117 658 q 194 645 175 658 q 214 611 214 632 l 214 561 q 399 667 274 667 q 508 628 460 667 q 581 528 556 590 q 672 631 615 596 q 790 667 728 667 q 960 592 889 667 q 1032 393 1032 518 l 1032 49 q 1010 15 1032 31 q 958 0 988 0 q 908 15 931 0 q 886 49 886 31 l 886 393 q 847 500 886 461 q 757 539 808 539 q 666 500 706 539 q 626 396 626 461 l 626 47 q 605 12 626 24 q 553 0 583 0 q 503 12 525 0 q 481 47 481 24 l 481 394 q 442 497 481 457 q 351 538 404 538 q 260 499 299 538 q 222 393 222 460 l 222 49 q 200 15 222 31 q 149 0 178 0 q 97 15 118 0 q 76 49 76 31 z "},"n":{"ha":713,"x_min":76,"x_max":642,"o":"m 76 49 l 76 611 q 97 645 76 632 q 149 658 117 658 q 195 645 176 658 q 214 611 214 632 l 214 561 q 285 636 236 606 q 400 667 335 667 q 570 586 499 667 q 642 393 642 506 l 642 49 q 620 13 642 26 q 568 0 599 0 q 518 13 540 0 q 496 49 496 26 l 496 393 q 454 493 496 449 q 356 538 413 538 q 263 498 303 538 q 222 393 222 458 l 222 49 q 200 15 222 31 q 149 0 178 0 q 97 15 118 0 q 76 49 76 31 z "},"o":{"ha":676,"x_min":50,"x_max":625,"o":"m 50 265 l 50 393 q 135 585 50 503 q 338 667 219 667 q 539 585 453 667 q 625 393 625 504 l 625 265 q 538 73 625 157 q 338 -11 451 -11 q 136 72 222 -11 q 50 265 50 156 m 196 265 q 238 163 196 208 q 338 118 279 118 q 437 163 394 118 q 479 265 479 208 l 479 393 q 437 493 479 449 q 338 538 394 538 q 238 493 279 538 q 196 393 196 449 l 196 265 z "},"p":{"ha":703,"x_min":78,"x_max":651,"o":"m 78 -264 l 78 611 q 98 645 78 632 q 147 658 118 658 q 196 645 176 658 q 215 611 215 632 l 215 561 q 290 636 240 606 q 401 667 339 667 q 578 586 506 667 q 651 393 651 506 l 651 265 q 578 73 651 157 q 407 -11 504 -11 q 297 21 347 -11 q 224 97 246 53 l 224 -264 q 201 -298 224 -283 q 149 -312 179 -312 q 98 -298 118 -312 q 78 -264 78 -283 m 224 233 q 266 160 224 203 q 364 118 308 118 q 463 163 419 118 q 506 265 506 208 l 506 393 q 463 493 506 449 q 361 538 419 538 q 265 498 307 538 q 224 393 224 458 l 224 233 z "},"q":{"ha":704,"x_min":51,"x_max":626,"o":"m 51 265 l 51 393 q 124 586 51 506 q 301 667 197 667 q 414 636 365 667 q 488 561 463 606 l 488 611 q 507 645 488 632 q 556 658 526 658 q 606 645 585 658 q 626 611 626 632 l 626 -264 q 606 -298 626 -283 q 554 -312 585 -312 q 502 -298 524 -312 q 481 -264 481 -283 l 481 97 q 406 21 457 53 q 296 -11 356 -11 q 125 73 199 -11 q 51 265 51 157 m 197 265 q 240 163 197 208 q 339 118 283 118 q 438 160 394 118 q 481 233 481 203 l 481 393 q 438 497 481 457 q 342 538 396 538 q 240 493 283 538 q 197 393 197 449 l 197 265 z "},"r":{"ha":500,"x_min":76,"x_max":490,"o":"m 76 49 l 76 611 q 97 645 76 632 q 147 658 117 658 q 194 645 175 658 q 214 611 214 632 l 214 550 q 285 633 238 599 q 390 667 333 667 l 435 667 q 474 648 457 667 q 490 603 490 629 q 474 557 490 576 q 435 538 457 538 l 390 538 q 273 481 324 538 q 222 333 222 424 l 222 49 q 200 15 222 31 q 147 0 178 0 q 97 15 117 0 q 76 49 76 31 z "},"s":{"ha":561,"x_min":38,"x_max":521,"o":"m 38 100 q 52 143 38 121 q 88 165 67 165 q 122 149 100 165 q 182 117 144 133 q 272 101 219 101 q 390 176 390 101 q 356 240 390 217 q 272 276 321 263 q 174 306 222 289 q 90 363 125 322 q 56 467 56 403 q 114 608 56 549 q 293 667 172 667 q 437 642 372 667 q 501 585 501 618 q 485 540 501 565 q 446 514 469 514 q 389 534 438 514 q 296 554 340 554 q 212 529 240 554 q 183 474 183 504 q 218 421 183 440 q 303 389 253 401 q 402 358 353 376 q 486 296 451 340 q 521 182 521 251 q 457 40 521 92 q 276 -11 393 -11 q 108 24 178 -11 q 38 100 38 58 z "},"t":{"ha":457,"x_min":75,"x_max":431,"o":"m 75 217 l 75 913 q 97 946 75 932 q 147 960 119 960 q 198 946 175 960 q 221 913 221 932 l 221 658 l 390 658 q 419 642 408 658 q 431 604 431 626 q 419 566 431 582 q 390 550 408 550 l 221 550 l 221 217 q 242 146 221 167 q 318 125 264 125 l 367 125 q 413 107 396 125 q 429 63 429 89 q 413 18 429 36 q 367 0 396 0 l 318 0 q 75 217 75 0 z "},"u":{"ha":715,"x_min":71,"x_max":644,"o":"m 71 263 l 71 610 q 93 644 71 629 q 144 658 115 658 q 195 644 174 658 q 217 610 217 629 l 217 263 q 259 163 217 207 q 358 118 301 118 q 458 162 417 118 q 500 263 500 206 l 500 611 q 522 644 500 631 q 574 658 543 658 q 624 644 604 658 q 644 611 644 631 l 644 263 q 560 71 644 153 q 358 -11 475 -11 q 156 71 242 -11 q 71 263 71 153 z "},"v":{"ha":638,"x_min":13,"x_max":624,"o":"m 13 601 q 44 645 13 626 q 108 664 76 664 q 153 638 143 664 l 318 199 l 483 635 q 528 664 494 664 q 589 644 554 664 q 624 601 624 625 q 618 578 624 592 l 385 15 q 318 -14 372 -14 q 251 15 264 -14 l 19 578 q 13 601 13 592 z "},"w":{"ha":950,"x_min":14,"x_max":935,"o":"m 14 603 q 44 646 14 628 q 107 664 75 664 q 151 638 142 664 l 306 206 l 424 589 q 475 621 433 621 q 526 589 517 621 l 643 203 l 799 638 q 842 664 807 664 q 903 646 872 664 q 935 601 935 628 q 929 579 935 590 l 714 15 q 656 -14 703 -14 q 596 14 608 -14 l 475 372 l 356 18 q 293 -14 343 -14 q 235 18 247 -14 l 19 579 q 14 603 14 596 z "},"x":{"ha":617,"x_min":28,"x_max":589,"o":"m 28 61 q 38 88 28 75 l 210 335 l 46 568 q 36 593 36 581 q 69 642 36 618 q 132 667 101 667 q 167 650 157 667 l 308 428 l 450 649 q 486 667 461 667 q 547 642 514 667 q 581 593 581 618 q 571 568 581 582 l 406 333 l 579 88 q 589 61 589 75 q 557 13 589 38 q 496 -11 525 -11 q 458 6 469 -11 l 308 235 l 158 6 q 119 -11 146 -11 q 60 13 93 -11 q 28 61 28 36 z "},"y":{"ha":635,"x_min":14,"x_max":618,"o":"m 82 -312 q 14 -250 14 -312 q 54 -187 14 -187 q 178 -128 117 -187 q 253 40 239 -68 l 19 579 q 14 599 14 586 q 46 647 14 625 q 110 668 78 668 q 154 642 144 668 l 329 190 l 479 642 q 521 668 492 668 q 584 647 550 668 q 618 596 618 625 q 615 579 618 583 l 410 36 l 386 -26 q 360 -86 378 -46 q 331 -147 343 -126 l 297 -199 q 256 -247 276 -231 q 208 -280 235 -262 q 150 -305 182 -297 q 82 -312 118 -312 z "},"z":{"ha":590,"x_min":32,"x_max":563,"o":"m 32 53 q 57 111 32 76 l 354 538 l 90 538 q 58 556 72 538 q 44 599 44 574 q 57 641 44 624 q 90 658 69 658 l 492 658 q 527 645 513 658 q 542 607 542 632 q 519 547 542 578 l 221 121 l 515 121 q 549 103 535 121 q 563 60 563 86 q 549 17 563 35 q 515 0 536 0 l 83 0 q 45 16 58 0 q 32 53 32 32 z "},"{":{"ha":476,"x_min":35,"x_max":453,"o":"m 35 536 q 48 574 35 561 q 76 590 61 588 q 105 599 92 592 q 118 624 118 607 q 106 722 118 636 q 93 832 93 808 q 179 995 93 924 q 372 1067 265 1067 q 433 1048 414 1067 q 453 1001 453 1029 q 440 959 453 978 q 404 940 426 940 q 292 905 344 940 q 240 813 240 869 q 253 708 240 793 q 265 608 265 622 q 248 561 265 583 q 215 533 231 539 q 248 508 231 529 q 265 460 265 486 q 253 335 265 443 q 240 207 240 226 q 272 141 240 167 q 337 107 303 115 q 404 99 371 99 q 441 78 429 99 q 453 36 453 58 q 371 -28 453 -28 q 177 35 261 -28 q 93 192 93 97 q 106 325 93 218 q 118 444 118 432 q 105 470 118 461 q 76 481 92 479 q 48 497 61 483 q 35 536 35 510 z "},"|":{"ha":314,"x_min":83,"x_max":231,"o":"m 83 19 l 83 1019 q 104 1053 83 1040 q 157 1067 125 1067 q 209 1053 188 1067 q 231 1019 231 1040 l 231 19 q 208 -15 231 0 q 157 -29 186 -29 q 104 -15 125 -29 q 83 19 83 0 z "},"}":{"ha":476,"x_min":24,"x_max":442,"o":"m 24 36 q 35 78 24 58 q 72 99 47 99 q 140 107 106 99 q 205 141 174 115 q 236 207 236 167 q 224 335 236 226 q 211 460 211 443 q 228 508 211 486 q 261 533 246 529 q 228 561 246 539 q 211 608 211 583 q 224 708 211 622 q 236 813 236 793 q 184 905 236 869 q 72 940 132 940 q 37 959 50 940 q 24 1001 24 978 q 43 1048 24 1029 q 104 1067 63 1067 q 297 995 211 1067 q 383 832 383 924 q 371 722 383 808 q 358 624 358 636 q 372 599 358 607 q 400 590 385 592 q 428 574 415 588 q 442 536 442 561 q 428 497 442 510 q 400 481 415 483 q 372 470 385 479 q 358 444 358 461 q 371 325 358 432 q 383 192 383 218 q 299 35 383 97 q 106 -28 215 -28 q 24 36 24 -28 z "},"~":{"ha":567,"x_min":54,"x_max":513,"o":"m 54 340 q 94 408 54 388 q 175 429 135 429 q 272 408 214 429 q 367 386 329 386 q 432 403 400 386 q 474 421 464 421 q 503 404 493 421 q 513 374 513 388 q 474 304 513 324 q 394 285 435 285 q 293 306 350 285 q 201 328 236 328 q 135 309 168 328 q 93 290 103 290 q 64 308 74 290 q 54 340 54 325 z "}," ":{"ha":278,"x_min":0,"x_max":0,"o":""},"¡":{"ha":292,"x_min":63,"x_max":228,"o":"m 63 942 q 87 1000 63 975 q 144 1025 111 1025 q 203 1000 179 1025 q 228 942 228 975 q 203 883 228 907 q 144 858 179 858 q 87 883 111 858 q 63 942 63 907 m 72 58 q 81 385 72 160 q 90 711 90 611 q 108 744 90 732 q 146 756 125 756 q 186 744 169 756 q 203 711 203 733 q 211 385 203 611 q 219 58 219 160 q 199 9 219 26 q 146 -8 178 -8 q 93 10 114 -8 q 72 58 72 28 z "},"¢":{"ha":588,"x_min":38,"x_max":546,"o":"m 38 499 l 38 525 q 97 712 38 638 q 276 800 157 786 l 276 922 q 290 953 276 940 q 322 965 303 965 q 354 953 340 965 q 368 922 368 940 l 368 799 q 492 764 442 792 q 542 701 542 736 q 524 656 542 678 q 482 633 507 633 q 442 652 475 633 q 368 675 408 671 l 368 350 q 440 374 407 354 q 482 394 474 394 q 528 373 510 394 q 546 326 546 351 q 493 263 546 293 q 368 225 440 233 l 368 99 q 354 68 368 82 q 322 54 340 54 q 290 68 303 54 q 276 99 276 82 l 276 225 q 97 312 157 238 q 38 499 38 386 m 167 499 q 276 350 167 375 l 276 675 q 167 525 167 649 l 167 499 z "},"£":{"ha":724,"x_min":31,"x_max":675,"o":"m 43 19 q 37 29 43 19 q 31 65 31 39 q 43 111 31 92 q 78 131 56 131 l 156 131 l 207 508 l 119 508 q 90 524 100 508 q 79 564 79 540 q 90 601 79 585 q 119 618 101 618 l 224 618 l 247 783 q 363 985 265 904 q 582 1067 460 1067 l 624 1067 q 661 1047 647 1067 q 675 1001 675 1028 q 661 957 675 976 q 624 938 647 938 l 575 938 q 451 893 500 938 q 393 783 403 849 l 369 618 l 550 618 q 579 601 568 618 q 590 564 590 585 q 580 525 590 542 q 550 508 569 508 l 353 508 l 300 131 l 629 131 q 663 111 651 131 q 675 65 675 92 q 663 19 675 39 q 629 0 651 0 l 78 0 q 43 19 56 0 z "},"¤":{"ha":640,"x_min":74,"x_max":568,"o":"m 74 454 q 82 472 74 464 l 122 511 q 75 656 75 575 q 122 800 75 736 l 86 835 q 78 853 78 843 q 88 877 78 867 q 113 888 99 888 q 132 881 124 888 l 165 847 q 321 906 232 906 q 472 851 403 906 l 508 885 q 528 892 515 892 q 552 881 542 892 q 563 857 563 869 q 554 839 563 847 l 517 803 q 568 657 568 738 q 517 508 568 575 l 554 472 q 563 454 563 464 q 552 431 563 442 q 528 419 542 419 q 510 426 517 419 l 472 460 q 321 403 404 403 q 165 463 233 403 l 126 426 q 108 419 119 419 q 84 431 94 419 q 74 454 74 442 m 161 656 q 208 540 161 590 q 321 490 256 490 q 434 540 386 490 q 482 654 482 590 q 435 768 482 718 q 321 818 388 818 q 208 769 256 818 q 161 656 161 719 z "},"¥":{"ha":751,"x_min":31,"x_max":719,"o":"m 31 960 q 59 1001 31 982 q 117 1021 88 1021 q 161 986 143 1021 l 374 582 l 590 986 q 635 1021 608 1021 q 692 1001 664 1021 q 719 960 719 982 q 715 940 719 949 l 479 538 l 589 538 q 624 522 608 538 q 639 483 639 506 q 624 446 639 461 q 589 431 608 431 l 446 431 l 446 336 l 589 336 q 624 320 608 336 q 639 283 639 304 q 624 245 639 260 q 589 231 608 231 l 446 231 l 446 49 q 424 13 446 26 q 374 0 403 0 q 322 13 344 0 q 300 49 300 26 l 300 231 l 163 231 q 127 244 140 231 q 114 282 114 258 q 127 321 114 306 q 163 336 140 336 l 300 336 l 300 431 l 163 431 q 127 444 140 431 q 114 482 114 458 q 127 522 114 506 q 163 538 140 538 l 267 538 l 36 940 q 31 960 31 947 z "},"¦":{"ha":313,"x_min":83,"x_max":229,"o":"m 83 19 l 83 378 q 104 413 83 399 q 156 426 125 426 q 208 413 186 426 q 229 378 229 399 l 229 19 q 207 -15 229 0 q 156 -29 185 -29 q 104 -15 125 -29 q 83 19 83 0 m 83 660 l 83 1019 q 103 1053 83 1040 q 156 1067 124 1067 q 208 1053 186 1067 q 229 1019 229 1040 l 229 660 q 207 626 229 642 q 156 611 185 611 q 104 626 125 611 q 83 660 83 642 z "},"§":{"ha":656,"x_min":60,"x_max":597,"o":"m 60 138 q 124 197 60 197 q 186 154 186 197 q 214 67 186 106 q 314 29 242 29 q 415 63 381 29 q 450 154 450 96 q 411 239 450 206 q 316 293 372 272 q 203 342 260 314 q 108 428 147 369 q 69 578 69 488 l 69 736 q 94 874 69 817 q 159 961 118 932 q 242 1003 200 990 q 329 1015 283 1015 q 508 949 444 1015 q 571 788 571 882 q 514 726 571 726 q 450 779 450 726 q 424 859 450 824 q 335 894 397 894 q 241 861 276 894 q 206 764 206 828 q 246 679 206 713 q 344 625 286 646 q 459 576 401 604 q 557 490 517 549 q 597 340 597 431 l 597 183 q 517 -28 597 38 q 324 -94 438 -94 q 131 -25 203 -94 q 60 138 60 44 m 193 553 q 226 458 193 496 q 302 406 260 421 q 397 369 344 392 q 475 322 450 347 l 475 356 q 442 450 475 413 q 366 502 408 488 q 271 539 324 517 q 193 586 218 561 l 193 553 z "},"¨":{"ha":319,"x_min":0,"x_max":319,"o":"m 19 829 q 9 839 19 829 q 0 875 0 849 q 19 920 0 901 q 64 939 38 939 q 108 920 90 939 q 125 875 125 901 q 107 829 125 849 q 64 810 89 810 q 19 829 38 810 m 213 829 q 203 839 213 829 q 194 875 194 849 q 213 920 194 901 q 257 939 231 939 q 301 920 283 939 q 319 875 319 901 q 301 829 319 849 q 257 810 283 810 q 213 829 231 810 z "},"©":{"ha":975,"x_min":61,"x_max":914,"o":"m 61 497 q 101 698 61 608 q 204 841 140 788 q 342 923 268 894 q 492 951 417 951 q 640 923 567 951 q 776 841 714 894 q 876 699 838 788 q 914 503 914 611 q 874 302 914 392 q 771 159 835 213 q 633 77 707 106 q 483 49 558 49 q 335 77 408 49 q 199 159 261 106 q 99 301 138 213 q 61 497 61 389 m 138 497 q 233 229 138 333 q 483 125 328 125 q 739 230 640 125 q 838 503 838 335 q 742 771 838 667 q 492 875 647 875 q 236 770 335 875 q 138 497 138 665 m 331 408 l 331 611 q 374 742 331 700 q 489 783 418 783 q 606 744 561 783 q 651 642 651 706 q 642 606 651 615 q 608 597 632 597 q 564 626 565 597 q 492 706 560 706 q 417 611 417 706 l 417 408 q 493 314 417 314 q 531 322 515 314 q 552 345 546 329 q 560 371 558 361 q 564 399 563 381 q 607 428 565 428 q 641 418 631 428 q 651 382 651 408 q 606 276 651 317 q 489 236 561 236 q 374 278 418 236 q 331 408 331 319 z "},"ª":{"ha":453,"x_min":40,"x_max":393,"o":"m 40 721 q 95 822 40 793 q 253 851 150 851 l 292 851 l 292 867 q 271 933 292 906 q 206 961 250 961 q 136 947 165 961 q 103 933 107 933 q 76 949 86 933 q 67 985 67 965 q 113 1027 67 1008 q 207 1046 158 1046 q 348 994 303 1046 q 393 867 393 943 l 393 642 q 379 617 393 628 q 343 607 365 607 q 312 617 325 607 q 299 642 299 628 l 299 671 q 189 604 247 614 q 149 601 176 601 q 71 635 101 604 q 40 721 40 665 m 143 733 q 199 678 143 678 q 262 706 232 678 q 292 767 292 733 l 292 796 l 260 796 q 143 733 143 796 z "},"«":{"ha":646,"x_min":39,"x_max":593,"o":"m 39 383 q 64 442 39 399 l 174 647 q 218 667 185 667 q 278 643 251 667 q 306 594 306 619 q 301 578 306 586 l 199 385 l 301 192 q 306 176 306 186 q 278 127 306 151 q 217 103 251 103 q 174 124 183 103 l 64 328 q 39 383 39 371 m 325 383 q 351 442 325 396 l 461 647 q 504 667 469 667 q 565 642 538 667 q 593 594 593 618 q 589 578 593 586 l 486 385 l 589 192 q 593 176 593 186 q 565 127 593 151 q 503 103 538 103 q 461 124 472 103 l 351 328 l 342 344 q 332 359 335 354 q 327 370 329 364 q 325 383 325 376 z "},"¬":{"ha":682,"x_min":53,"x_max":606,"o":"m 66 290 q 59 298 66 290 q 53 333 53 307 q 66 378 53 360 q 100 396 79 396 l 556 396 q 590 377 575 396 q 606 333 606 358 l 606 136 q 584 102 606 117 q 532 88 563 88 q 481 102 501 88 q 460 136 460 117 l 460 272 l 100 272 q 66 290 79 272 z "},"­":{"ha":656,"x_min":57,"x_max":599,"o":"m 70 290 q 64 298 70 290 q 57 333 57 307 q 70 378 57 360 q 104 396 83 396 l 549 396 q 583 377 568 396 q 599 333 599 358 q 583 290 599 307 q 549 272 568 272 l 104 272 q 70 290 83 272 z "},"®":{"ha":975,"x_min":61,"x_max":914,"o":"m 61 497 q 101 698 61 608 q 204 841 140 788 q 342 923 268 894 q 492 951 417 951 q 640 923 567 951 q 776 841 714 894 q 876 699 838 788 q 914 503 914 611 q 874 302 914 392 q 771 159 835 213 q 633 77 707 106 q 483 49 558 49 q 335 77 408 49 q 199 159 261 106 q 99 301 138 213 q 61 497 61 389 m 138 497 q 233 229 138 333 q 483 125 328 125 q 739 230 640 125 q 838 503 838 335 q 742 771 838 667 q 492 875 647 875 q 236 770 335 875 q 138 497 138 665 m 346 275 l 346 742 q 353 761 346 753 q 374 769 361 769 l 503 769 q 661 621 661 769 q 569 478 661 506 l 657 297 q 658 288 658 294 q 644 258 658 271 q 614 244 631 244 q 585 268 597 244 l 492 464 l 428 464 l 428 275 q 388 246 428 246 q 346 275 346 246 m 428 535 l 503 535 q 579 613 579 535 q 503 696 579 696 l 428 696 l 428 535 z "},"¯":{"ha":386,"x_min":0,"x_max":386,"o":"m 13 874 q 7 881 13 874 q 0 910 0 888 q 13 947 0 932 q 47 961 26 961 l 338 961 q 372 946 357 961 q 386 910 386 931 q 372 875 386 889 q 338 861 357 861 l 47 861 q 13 874 26 861 z "},"°":{"ha":565,"x_min":36,"x_max":529,"o":"m 110 640 q 73 678 110 640 q 36 817 36 717 q 109 992 36 917 q 282 1067 182 1067 q 455 993 381 1067 q 529 818 529 919 q 455 640 529 717 q 282 564 381 564 q 110 640 183 564 m 122 817 q 169 701 122 751 q 282 651 217 651 q 395 701 347 651 q 443 815 443 751 q 396 929 443 879 q 282 979 349 979 q 169 930 217 979 q 122 817 122 881 z "},"±":{"ha":651,"x_min":56,"x_max":596,"o":"m 69 74 q 62 83 69 74 q 56 118 56 92 q 69 163 56 144 q 103 181 82 181 l 547 181 q 581 162 567 181 q 596 118 596 143 q 581 74 596 92 q 547 57 567 57 l 103 57 q 69 74 82 57 m 56 503 q 69 548 56 531 q 103 565 82 565 l 264 565 l 264 718 q 283 751 264 736 q 326 767 301 767 q 370 751 353 767 q 388 718 388 736 l 388 565 l 547 565 q 581 547 567 565 q 596 503 596 529 q 581 460 596 476 q 547 443 567 443 l 388 443 l 388 289 q 370 255 388 268 q 326 242 353 242 q 282 255 300 242 q 264 289 264 268 l 264 443 l 103 443 q 69 460 82 443 q 56 503 56 476 z "},"²":{"ha":440,"x_min":39,"x_max":403,"o":"m 39 504 l 39 576 q 80 656 39 615 q 169 724 121 696 q 259 790 218 753 q 300 861 300 826 q 281 905 300 886 q 222 924 261 924 q 149 861 149 924 q 133 835 149 847 q 94 824 118 824 q 50 876 50 824 q 101 977 50 939 q 221 1015 151 1015 q 348 974 294 1015 q 401 864 401 932 q 361 765 401 811 q 272 691 321 718 q 183 634 224 664 q 143 581 143 604 l 143 561 l 371 561 q 393 548 383 561 q 403 517 403 535 q 393 486 403 500 q 371 472 383 472 l 83 472 q 53 481 68 472 q 39 504 39 490 z "},"³":{"ha":450,"x_min":33,"x_max":410,"o":"m 33 604 q 44 635 33 626 q 81 643 54 643 q 122 635 111 643 q 132 608 132 626 q 219 557 132 557 q 288 575 267 557 q 310 633 310 593 l 310 647 q 218 715 310 715 q 186 754 186 715 q 218 794 186 793 q 275 810 256 796 q 294 865 294 824 q 221 929 294 929 q 146 881 146 929 q 99 843 146 843 q 56 851 65 843 q 46 885 46 860 q 88 975 46 935 q 221 1015 129 1015 q 390 882 390 1015 q 326 758 390 788 q 410 647 410 729 l 410 633 q 357 508 410 547 q 217 468 304 468 q 81 510 128 468 q 33 604 33 551 z "},"´":{"ha":256,"x_min":0,"x_max":256,"o":"m 0 858 q 21 894 0 883 l 193 982 q 208 985 204 985 q 242 967 228 985 q 256 928 256 949 q 233 890 256 900 l 65 806 q 49 801 57 801 q 15 819 29 801 q 0 858 0 838 z "},"µ":{"ha":706,"x_min":86,"x_max":657,"o":"m 86 -264 l 86 610 q 108 644 86 629 q 160 658 131 658 q 210 644 189 658 q 232 610 232 629 l 232 249 q 276 161 232 204 q 375 118 321 118 q 470 163 429 118 q 511 263 511 207 l 511 610 q 533 644 511 631 q 585 658 556 658 q 636 644 615 658 q 657 610 657 631 l 657 263 q 574 70 657 151 q 374 -11 490 -11 q 217 56 281 -11 l 217 -264 q 199 -298 217 -283 q 158 -312 182 -312 q 107 -298 128 -312 q 86 -264 86 -283 z "},"¶":{"ha":751,"x_min":35,"x_max":658,"o":"m 35 713 l 35 729 q 109 947 35 878 q 307 1015 183 1015 l 610 1015 q 644 1002 629 1015 q 658 967 658 989 l 658 47 q 644 12 658 24 q 610 0 629 0 q 574 12 589 0 q 560 47 560 24 l 560 942 l 447 942 l 447 49 q 433 13 447 26 q 399 0 418 0 q 363 13 378 0 q 349 49 349 26 l 349 425 l 307 425 q 109 494 183 425 q 35 713 35 564 z "},"·":{"ha":274,"x_min":50,"x_max":224,"o":"m 75 361 q 63 373 75 361 q 50 417 50 385 q 75 472 50 449 q 138 494 100 494 q 198 472 172 494 q 224 417 224 449 q 198 361 224 385 q 138 338 172 338 q 75 361 100 338 z "},"¸":{"ha":251,"x_min":0,"x_max":251,"o":"m 0 -258 q 8 -231 0 -247 q 28 -214 15 -214 q 56 -224 31 -214 q 107 -233 81 -233 q 176 -183 176 -233 q 101 -131 176 -137 l 35 -124 l 71 13 l 142 13 l 117 -76 q 217 -108 183 -78 q 251 -181 251 -137 q 217 -261 251 -225 q 114 -297 183 -297 q 38 -287 75 -297 q 0 -258 0 -276 z "},"¹":{"ha":256,"x_min":15,"x_max":194,"o":"m 15 908 q 33 944 15 933 l 128 1010 q 150 1017 138 1017 q 181 1008 167 1017 q 194 985 194 999 l 194 504 q 144 472 194 472 q 93 504 93 472 l 93 896 l 67 875 q 49 869 57 869 q 25 881 35 869 q 15 908 15 893 z "},"º":{"ha":471,"x_min":44,"x_max":426,"o":"m 44 782 l 44 864 q 100 992 44 938 q 235 1046 156 1046 q 369 992 313 1046 q 426 864 426 939 l 426 782 q 369 655 426 710 q 235 600 311 600 q 101 655 158 600 q 44 782 44 710 m 146 782 q 172 718 146 746 q 235 690 199 690 q 297 718 271 690 q 324 782 324 746 l 324 864 q 297 926 324 899 q 235 954 271 954 q 172 926 199 954 q 146 864 146 899 l 146 782 z "},"»":{"ha":646,"x_min":53,"x_max":607,"o":"m 53 176 q 57 192 53 186 l 160 385 l 57 578 q 53 594 53 586 q 80 643 53 619 q 140 667 107 667 q 185 647 174 667 l 294 442 q 319 383 319 399 q 294 328 319 371 l 185 124 q 142 103 175 103 q 80 127 107 103 q 53 176 53 151 m 339 176 q 343 192 339 186 l 447 385 l 343 578 q 339 594 339 586 q 367 642 339 618 q 428 667 394 667 q 472 647 461 667 l 582 442 q 607 383 607 394 q 604 368 607 375 q 594 347 601 361 l 582 328 l 472 124 q 429 103 460 103 q 367 127 394 103 q 339 176 339 151 z "},"¼":{"ha":890,"x_min":38,"x_max":861,"o":"m 38 908 q 56 944 38 933 l 150 1010 q 172 1017 160 1017 q 203 1008 189 1017 q 217 985 217 999 l 217 504 q 167 472 217 472 q 115 504 115 472 l 115 896 l 89 875 q 71 869 79 869 q 47 881 57 869 q 38 908 38 893 m 103 3 q 108 24 103 14 l 618 1044 q 660 1069 629 1069 q 700 1054 682 1069 q 718 1017 718 1039 q 714 994 718 1006 l 204 -22 q 157 -49 192 -49 q 118 -33 133 -49 q 103 3 103 -17 m 460 153 q 465 172 460 163 l 658 517 q 701 543 672 543 q 734 532 717 543 q 751 506 751 521 q 747 492 751 497 l 589 211 l 690 211 l 690 283 q 740 315 690 315 q 792 283 792 315 l 792 211 l 829 211 q 861 164 861 211 q 851 133 861 147 q 829 118 842 118 l 792 118 l 792 32 q 740 0 792 0 q 690 32 690 0 l 690 118 l 494 118 q 460 153 460 118 z "},"½":{"ha":886,"x_min":33,"x_max":847,"o":"m 33 908 q 51 944 33 933 l 146 1010 q 168 1017 156 1017 q 199 1008 185 1017 q 213 985 213 999 l 213 504 q 163 472 213 472 q 111 504 111 472 l 111 896 l 85 875 q 67 869 75 869 q 43 881 53 869 q 33 908 33 893 m 76 3 q 82 24 76 14 l 592 1044 q 633 1069 603 1069 q 674 1054 656 1069 q 692 1017 692 1039 q 688 994 692 1006 l 178 -22 q 131 -49 164 -49 q 92 -33 107 -49 q 76 3 76 -17 m 483 32 l 483 104 q 524 183 483 143 q 614 252 565 224 q 703 317 663 281 q 744 389 744 354 q 725 433 744 414 q 667 451 706 451 q 593 389 593 451 q 578 363 593 375 q 539 351 563 351 q 494 404 494 351 q 545 505 494 467 q 665 543 596 543 q 792 501 739 543 q 846 392 846 460 q 806 292 846 339 q 717 219 765 246 q 628 162 668 192 q 588 108 588 132 l 588 89 l 815 89 q 838 76 828 89 q 847 44 847 63 q 838 14 847 28 q 815 0 828 0 l 528 0 q 498 9 513 0 q 483 32 483 18 z "},"¾":{"ha":1075,"x_min":40,"x_max":1046,"o":"m 40 604 q 51 635 40 626 q 88 643 61 643 q 128 635 118 643 q 139 608 139 626 q 226 557 139 557 q 295 575 274 557 q 317 633 317 593 l 317 647 q 225 715 317 715 q 193 754 193 715 q 225 794 193 793 q 282 810 263 796 q 301 865 301 824 q 228 929 301 929 q 153 881 153 929 q 106 843 153 843 q 63 851 72 843 q 53 885 53 860 q 94 975 53 935 q 228 1015 136 1015 q 397 882 397 1015 q 333 758 397 788 q 417 647 417 729 l 417 633 q 364 508 417 547 q 224 468 311 468 q 88 510 135 468 q 40 604 40 551 m 279 3 q 285 24 279 14 l 794 1044 q 836 1069 806 1069 q 876 1054 858 1069 q 894 1017 894 1039 q 890 994 894 1006 l 381 -22 q 333 -49 367 -49 q 294 -33 310 -49 q 279 3 279 -17 m 644 153 q 650 172 644 163 l 843 517 q 886 543 857 543 q 919 532 901 543 q 936 506 936 521 q 932 492 936 497 l 774 211 l 875 211 l 875 283 q 925 315 875 315 q 976 283 976 315 l 976 211 l 1014 211 q 1046 164 1046 211 q 1036 133 1046 147 q 1014 118 1026 118 l 976 118 l 976 32 q 925 0 976 0 q 875 32 875 0 l 875 118 l 679 118 q 644 153 644 118 z "},"¿":{"ha":585,"x_min":38,"x_max":554,"o":"m 38 231 q 50 313 38 274 q 86 385 63 353 q 128 440 110 418 q 176 487 147 461 q 210 518 204 513 q 261 594 251 556 q 271 713 271 633 q 328 756 271 756 q 369 742 357 756 q 382 692 382 728 q 362 548 382 597 q 307 464 342 499 q 264 425 297 454 q 213 376 231 396 q 177 321 194 357 q 160 244 160 285 q 202 141 160 178 q 319 104 244 104 q 394 117 364 104 q 438 147 425 131 q 465 177 450 164 q 497 190 481 190 q 536 175 518 190 q 554 133 554 160 q 487 38 554 83 q 314 -8 419 -8 q 112 59 186 -8 q 38 231 38 126 m 244 942 q 269 1000 244 975 q 326 1025 293 1025 q 385 1000 361 1025 q 410 942 410 975 q 385 883 410 907 q 326 858 361 858 q 269 883 293 858 q 244 942 244 907 z "},"À":{"ha":781,"x_min":19,"x_max":763,"o":"m 19 61 q 21 74 19 69 l 297 974 q 390 1024 314 1024 q 485 974 468 1024 l 760 74 q 763 61 763 65 q 733 18 763 36 q 669 0 703 0 q 619 31 629 0 l 563 228 l 219 228 l 163 31 q 111 0 153 0 q 49 18 78 0 q 19 61 19 36 m 247 1271 q 261 1310 247 1292 q 294 1328 275 1328 q 310 1325 299 1328 l 482 1238 q 503 1201 503 1226 q 489 1163 503 1181 q 456 1144 475 1144 q 438 1149 446 1144 l 269 1233 q 247 1271 247 1243 m 251 346 l 529 346 l 390 822 l 251 346 z "},"Á":{"ha":781,"x_min":19,"x_max":763,"o":"m 19 61 q 21 74 19 69 l 297 974 q 390 1024 314 1024 q 485 974 468 1024 l 760 74 q 763 61 763 65 q 733 18 763 36 q 669 0 703 0 q 619 31 629 0 l 563 228 l 219 228 l 163 31 q 111 0 153 0 q 49 18 78 0 q 19 61 19 36 m 251 346 l 529 346 l 390 822 l 251 346 m 292 1201 q 313 1238 292 1226 l 485 1325 q 500 1328 496 1328 q 533 1310 519 1328 q 547 1271 547 1292 q 525 1233 547 1243 l 357 1149 q 340 1144 349 1144 q 306 1163 321 1144 q 292 1201 292 1181 z "},"Â":{"ha":781,"x_min":19,"x_max":763,"o":"m 19 61 q 21 74 19 69 l 297 974 q 390 1024 314 1024 q 485 974 468 1024 l 760 74 q 763 61 763 65 q 733 18 763 36 q 669 0 703 0 q 619 31 629 0 l 563 228 l 219 228 l 163 31 q 111 0 153 0 q 49 18 78 0 q 19 61 19 36 m 196 1200 q 221 1243 196 1229 l 365 1321 q 389 1328 379 1328 q 413 1321 401 1328 l 557 1244 q 583 1199 583 1228 q 573 1166 583 1181 q 547 1151 563 1151 q 539 1153 544 1151 q 533 1156 536 1156 l 389 1233 l 244 1156 q 232 1151 239 1151 q 206 1166 217 1151 q 196 1200 196 1181 m 251 346 l 529 346 l 390 822 l 251 346 z "},"Ã":{"ha":781,"x_min":19,"x_max":763,"o":"m 19 61 q 21 74 19 69 l 297 974 q 390 1024 314 1024 q 485 974 468 1024 l 760 74 q 763 61 763 65 q 733 18 763 36 q 669 0 703 0 q 619 31 629 0 l 563 228 l 219 228 l 163 31 q 111 0 153 0 q 49 18 78 0 q 19 61 19 36 m 161 1226 q 201 1294 161 1274 q 282 1315 242 1315 q 378 1294 321 1315 q 474 1272 436 1272 q 539 1290 507 1272 q 581 1307 571 1307 q 610 1290 600 1307 q 619 1260 619 1274 q 581 1190 619 1210 q 501 1171 542 1171 q 400 1192 457 1171 q 308 1214 343 1214 q 242 1195 275 1214 q 200 1176 210 1176 q 171 1194 181 1176 q 161 1226 161 1211 m 251 346 l 529 346 l 390 822 l 251 346 z "},"Ä":{"ha":781,"x_min":19,"x_max":763,"o":"m 19 61 q 21 74 19 69 l 297 974 q 390 1024 314 1024 q 485 974 468 1024 l 760 74 q 763 61 763 65 q 733 18 763 36 q 669 0 703 0 q 619 31 629 0 l 563 228 l 219 228 l 163 31 q 111 0 153 0 q 49 18 78 0 q 19 61 19 36 m 249 1172 q 240 1182 249 1172 q 231 1218 231 1192 q 249 1263 231 1244 q 294 1282 268 1282 q 338 1263 321 1282 q 356 1218 356 1244 q 338 1172 356 1192 q 294 1153 319 1153 q 249 1172 268 1153 m 251 346 l 529 346 l 390 822 l 251 346 m 443 1172 q 434 1182 443 1172 q 425 1218 425 1192 q 443 1263 425 1244 q 488 1282 461 1282 q 532 1263 514 1282 q 550 1218 550 1244 q 532 1172 550 1192 q 488 1153 514 1153 q 443 1172 461 1153 z "},"Å":{"ha":781,"x_min":19,"x_max":763,"o":"m 19 61 q 21 74 19 69 l 297 974 q 390 1024 314 1024 q 485 974 468 1024 l 760 74 q 763 61 763 65 q 733 18 763 36 q 669 0 703 0 q 619 31 629 0 l 563 228 l 219 228 l 163 31 q 111 0 153 0 q 49 18 78 0 q 19 61 19 36 m 251 346 l 529 346 l 390 822 l 251 346 m 257 1276 q 296 1370 257 1329 q 389 1411 335 1411 q 483 1370 442 1411 q 524 1276 524 1329 q 483 1181 524 1222 q 389 1139 442 1139 q 296 1181 335 1139 q 257 1276 257 1222 m 318 1275 q 340 1224 318 1247 q 390 1200 361 1200 q 439 1223 418 1200 q 460 1275 460 1246 q 439 1323 460 1301 q 390 1344 418 1344 q 340 1323 361 1344 q 318 1275 318 1301 z "},"Æ":{"ha":1057,"x_min":88,"x_max":1029,"o":"m 88 56 l 88 706 q 172 940 88 865 q 393 1015 256 1015 l 981 1015 q 1017 996 1004 1015 q 1029 951 1029 976 q 1016 904 1029 924 q 981 885 1003 885 l 661 885 l 661 567 l 840 567 q 876 549 863 567 q 889 507 889 532 q 876 467 889 485 q 840 450 864 450 l 661 450 l 661 131 l 981 131 q 1016 111 1003 131 q 1029 64 1029 92 q 1017 19 1029 39 q 981 0 1004 0 l 579 0 q 533 13 553 0 q 514 49 514 26 l 514 450 l 226 450 l 226 56 q 212 14 226 28 q 153 0 197 0 q 88 56 88 0 m 226 567 l 514 567 l 514 885 l 393 885 q 226 706 226 885 l 226 567 z "},"Ç":{"ha":750,"x_min":81,"x_max":704,"o":"m 81 301 l 81 706 q 166 940 81 865 q 389 1015 251 1015 q 617 945 531 1015 q 704 764 704 875 q 688 703 704 719 q 631 688 671 688 q 557 736 558 688 q 394 885 549 885 q 228 706 228 885 l 228 301 q 397 122 228 122 q 481 137 447 122 q 528 179 514 151 q 549 228 543 207 q 557 279 554 249 q 629 328 561 328 q 687 312 669 328 q 704 251 704 296 q 632 77 704 147 q 438 -6 560 7 l 418 -76 q 519 -108 485 -78 q 553 -181 553 -137 q 519 -261 553 -225 q 415 -297 485 -297 q 339 -287 376 -297 q 301 -258 301 -276 q 309 -231 301 -247 q 329 -214 317 -214 q 357 -224 332 -214 q 408 -233 382 -233 q 478 -183 478 -233 q 403 -131 478 -137 l 336 -124 l 367 -7 q 159 74 238 -1 q 81 301 81 149 z "},"È":{"ha":726,"x_min":92,"x_max":700,"o":"m 92 49 l 92 967 q 111 1002 92 989 q 157 1015 131 1015 l 651 1015 q 688 996 675 1015 q 700 951 700 976 q 687 904 700 924 q 651 885 674 885 l 239 885 l 239 567 l 453 567 q 488 549 475 567 q 501 507 501 532 q 489 467 501 485 q 453 450 476 450 l 239 450 l 239 131 l 651 131 q 687 111 674 131 q 700 64 700 92 q 688 19 700 39 q 651 0 675 0 l 157 0 q 111 13 131 0 q 92 49 92 26 m 263 1271 q 276 1310 263 1292 q 310 1328 290 1328 q 325 1325 314 1328 l 497 1238 q 518 1201 518 1226 q 504 1163 518 1181 q 471 1144 490 1144 q 453 1149 461 1144 l 285 1233 q 263 1271 263 1243 z "},"É":{"ha":726,"x_min":92,"x_max":700,"o":"m 92 49 l 92 967 q 111 1002 92 989 q 157 1015 131 1015 l 651 1015 q 688 996 675 1015 q 700 951 700 976 q 687 904 700 924 q 651 885 674 885 l 239 885 l 239 567 l 453 567 q 488 549 475 567 q 501 507 501 532 q 489 467 501 485 q 453 450 476 450 l 239 450 l 239 131 l 651 131 q 687 111 674 131 q 700 64 700 92 q 688 19 700 39 q 651 0 675 0 l 157 0 q 111 13 131 0 q 92 49 92 26 m 288 1201 q 308 1238 288 1226 l 481 1325 q 496 1328 492 1328 q 529 1310 515 1328 q 543 1271 543 1292 q 521 1233 543 1243 l 353 1149 q 336 1144 344 1144 q 302 1163 317 1144 q 288 1201 288 1181 z "},"Ê":{"ha":726,"x_min":92,"x_max":700,"o":"m 92 49 l 92 967 q 111 1002 92 989 q 157 1015 131 1015 l 651 1015 q 688 996 675 1015 q 700 951 700 976 q 687 904 700 924 q 651 885 674 885 l 239 885 l 239 567 l 453 567 q 488 549 475 567 q 501 507 501 532 q 489 467 501 485 q 453 450 476 450 l 239 450 l 239 131 l 651 131 q 687 111 674 131 q 700 64 700 92 q 688 19 700 39 q 651 0 675 0 l 157 0 q 111 13 131 0 q 92 49 92 26 m 210 1200 q 235 1243 210 1229 l 379 1321 q 403 1328 393 1328 q 426 1321 415 1328 l 571 1244 q 597 1199 597 1228 q 587 1166 597 1181 q 561 1151 576 1151 q 553 1153 558 1151 q 547 1156 550 1156 l 403 1233 l 258 1156 q 246 1151 253 1151 q 220 1166 231 1151 q 210 1200 210 1181 z "},"Ë":{"ha":726,"x_min":92,"x_max":700,"o":"m 92 49 l 92 967 q 111 1002 92 989 q 157 1015 131 1015 l 651 1015 q 688 996 675 1015 q 700 951 700 976 q 687 904 700 924 q 651 885 674 885 l 239 885 l 239 567 l 453 567 q 488 549 475 567 q 501 507 501 532 q 489 467 501 485 q 453 450 476 450 l 239 450 l 239 131 l 651 131 q 687 111 674 131 q 700 64 700 92 q 688 19 700 39 q 651 0 675 0 l 157 0 q 111 13 131 0 q 92 49 92 26 m 256 1172 q 247 1182 256 1172 q 238 1218 238 1192 q 256 1263 238 1244 q 301 1282 275 1282 q 345 1263 328 1282 q 363 1218 363 1244 q 344 1172 363 1192 q 301 1153 326 1153 q 256 1172 275 1153 m 450 1172 q 441 1182 450 1172 q 432 1218 432 1192 q 450 1263 432 1244 q 494 1282 468 1282 q 539 1263 521 1282 q 557 1218 557 1244 q 539 1172 557 1192 q 494 1153 521 1153 q 450 1172 468 1153 z "},"Ì":{"ha":331,"x_min":31,"x_max":286,"o":"m 31 1271 q 44 1310 31 1292 q 78 1328 58 1328 q 93 1325 82 1328 l 265 1238 q 286 1201 286 1226 q 272 1163 286 1181 q 239 1144 258 1144 q 221 1149 229 1144 l 53 1233 q 31 1271 31 1243 m 92 49 l 92 968 q 113 1003 92 992 q 165 1015 135 1015 q 217 1003 196 1015 q 239 968 239 992 l 239 49 q 217 13 239 26 q 165 0 196 0 q 114 13 136 0 q 92 49 92 26 z "},"Í":{"ha":331,"x_min":44,"x_max":300,"o":"m 44 1201 q 65 1238 44 1226 l 238 1325 q 253 1328 249 1328 q 286 1310 272 1328 q 300 1271 300 1292 q 278 1233 300 1243 l 110 1149 q 93 1144 101 1144 q 59 1163 74 1144 q 44 1201 44 1181 m 92 49 l 92 968 q 113 1003 92 992 q 165 1015 135 1015 q 217 1003 196 1015 q 239 968 239 992 l 239 49 q 217 13 239 26 q 165 0 196 0 q 114 13 136 0 q 92 49 92 26 z "},"Î":{"ha":331,"x_min":-26,"x_max":361,"o":"m -26 1200 q -1 1243 -26 1229 l 143 1321 q 167 1328 157 1328 q 190 1321 179 1328 l 335 1244 q 361 1199 361 1228 q 351 1166 361 1181 q 325 1151 340 1151 q 317 1153 322 1151 q 311 1156 314 1156 l 167 1233 l 22 1156 q 10 1151 17 1151 q -16 1166 -6 1151 q -26 1200 -26 1181 m 92 49 l 92 968 q 113 1003 92 992 q 165 1015 135 1015 q 217 1003 196 1015 q 239 968 239 992 l 239 49 q 217 13 239 26 q 165 0 196 0 q 114 13 136 0 q 92 49 92 26 z "},"Ï":{"ha":331,"x_min":7,"x_max":326,"o":"m 26 1172 q 16 1182 26 1172 q 7 1218 7 1192 q 26 1263 7 1244 q 71 1282 44 1282 q 115 1263 97 1282 q 132 1218 132 1244 q 114 1172 132 1192 q 71 1153 96 1153 q 26 1172 44 1153 m 92 49 l 92 968 q 113 1003 92 992 q 165 1015 135 1015 q 217 1003 196 1015 q 239 968 239 992 l 239 49 q 217 13 239 26 q 165 0 196 0 q 114 13 136 0 q 92 49 92 26 m 219 1172 q 210 1182 219 1172 q 201 1218 201 1192 q 219 1263 201 1244 q 264 1282 238 1282 q 308 1263 290 1282 q 326 1218 326 1244 q 308 1172 326 1192 q 264 1153 290 1153 q 219 1172 238 1153 z "},"Ð":{"ha":807,"x_min":-6,"x_max":726,"o":"m 6 494 q 0 502 6 494 q -6 532 -6 510 q 6 570 -6 554 q 35 586 17 586 l 103 586 l 103 968 q 122 1001 103 988 q 168 1015 140 1015 l 414 1015 q 641 940 556 1015 q 726 706 726 865 l 726 310 q 641 75 726 150 q 414 0 556 0 l 168 0 q 122 14 140 0 q 103 47 103 28 l 103 478 l 35 478 q 6 494 17 478 m 250 131 l 414 131 q 579 310 579 131 l 579 706 q 414 885 579 885 l 250 885 l 250 586 l 376 586 q 407 570 396 586 q 418 532 418 554 q 407 494 418 510 q 376 478 396 478 l 250 478 l 250 131 z "},"Ñ":{"ha":824,"x_min":92,"x_max":732,"o":"m 92 49 l 92 967 q 165 1015 92 1015 q 228 998 204 1015 q 276 932 251 981 l 585 331 l 585 968 q 606 1003 585 992 q 658 1015 628 1015 q 710 1003 689 1015 q 732 968 732 992 l 732 49 q 710 13 732 26 q 658 0 689 0 q 571 54 600 0 l 239 686 l 239 49 q 217 13 239 26 q 165 0 196 0 q 114 13 136 0 q 92 49 92 26 m 175 1226 q 215 1294 175 1274 q 296 1315 256 1315 q 392 1294 335 1315 q 488 1272 450 1272 q 553 1290 521 1272 q 594 1307 585 1307 q 624 1290 614 1307 q 633 1260 633 1274 q 594 1190 633 1210 q 515 1171 556 1171 q 414 1192 471 1171 q 322 1214 357 1214 q 256 1195 289 1214 q 214 1176 224 1176 q 185 1194 194 1176 q 175 1226 175 1211 z "},"Ò":{"ha":786,"x_min":82,"x_max":706,"o":"m 82 301 l 82 706 q 167 940 82 865 q 393 1015 251 1015 q 620 940 535 1015 q 706 706 706 865 l 706 301 q 620 67 706 142 q 393 -8 535 -8 q 167 67 251 -8 q 82 301 82 142 m 229 301 q 393 122 229 122 q 515 167 472 122 q 558 301 558 211 l 558 706 q 515 840 558 796 q 393 885 472 885 q 229 706 229 885 l 229 301 m 253 1271 q 267 1310 253 1292 q 300 1328 281 1328 q 315 1325 304 1328 l 488 1238 q 508 1201 508 1226 q 494 1163 508 1181 q 461 1144 481 1144 q 443 1149 451 1144 l 275 1233 q 253 1271 253 1243 z "},"Ó":{"ha":786,"x_min":82,"x_max":706,"o":"m 82 301 l 82 706 q 167 940 82 865 q 393 1015 251 1015 q 620 940 535 1015 q 706 706 706 865 l 706 301 q 620 67 706 142 q 393 -8 535 -8 q 167 67 251 -8 q 82 301 82 142 m 229 301 q 393 122 229 122 q 515 167 472 122 q 558 301 558 211 l 558 706 q 515 840 558 796 q 393 885 472 885 q 229 706 229 885 l 229 301 m 301 1201 q 322 1238 301 1226 l 494 1325 q 510 1328 506 1328 q 543 1310 529 1328 q 557 1271 557 1292 q 535 1233 557 1243 l 367 1149 q 350 1144 358 1144 q 316 1163 331 1144 q 301 1201 301 1181 z "},"Ô":{"ha":786,"x_min":82,"x_max":706,"o":"m 82 301 l 82 706 q 167 940 82 865 q 393 1015 251 1015 q 620 940 535 1015 q 706 706 706 865 l 706 301 q 620 67 706 142 q 393 -8 535 -8 q 167 67 251 -8 q 82 301 82 142 m 199 1200 q 224 1243 199 1229 l 368 1321 q 392 1328 382 1328 q 415 1321 404 1328 l 560 1244 q 586 1199 586 1228 q 576 1166 586 1181 q 550 1151 565 1151 q 542 1153 547 1151 q 536 1156 539 1156 l 392 1233 l 247 1156 q 235 1151 242 1151 q 209 1166 219 1151 q 199 1200 199 1181 m 229 301 q 393 122 229 122 q 515 167 472 122 q 558 301 558 211 l 558 706 q 515 840 558 796 q 393 885 472 885 q 229 706 229 885 l 229 301 z "},"Õ":{"ha":786,"x_min":82,"x_max":706,"o":"m 82 301 l 82 706 q 167 940 82 865 q 393 1015 251 1015 q 620 940 535 1015 q 706 706 706 865 l 706 301 q 620 67 706 142 q 393 -8 535 -8 q 167 67 251 -8 q 82 301 82 142 m 164 1226 q 204 1294 164 1274 q 285 1315 244 1315 q 381 1294 324 1315 q 476 1272 439 1272 q 542 1290 510 1272 q 583 1307 574 1307 q 613 1290 603 1307 q 622 1260 622 1274 q 583 1190 622 1210 q 504 1171 544 1171 q 403 1192 460 1171 q 311 1214 346 1214 q 245 1195 278 1214 q 203 1176 213 1176 q 174 1194 183 1176 q 164 1226 164 1211 m 229 301 q 393 122 229 122 q 515 167 472 122 q 558 301 558 211 l 558 706 q 515 840 558 796 q 393 885 472 885 q 229 706 229 885 l 229 301 z "},"Ö":{"ha":786,"x_min":82,"x_max":706,"o":"m 82 301 l 82 706 q 167 940 82 865 q 393 1015 251 1015 q 620 940 535 1015 q 706 706 706 865 l 706 301 q 620 67 706 142 q 393 -8 535 -8 q 167 67 251 -8 q 82 301 82 142 m 229 301 q 393 122 229 122 q 515 167 472 122 q 558 301 558 211 l 558 706 q 515 840 558 796 q 393 885 472 885 q 229 706 229 885 l 229 301 m 253 1172 q 244 1182 253 1172 q 235 1218 235 1192 q 253 1263 235 1244 q 299 1282 272 1282 q 342 1263 325 1282 q 360 1218 360 1244 q 342 1172 360 1192 q 299 1153 324 1153 q 253 1172 272 1153 m 447 1172 q 438 1182 447 1172 q 429 1218 429 1192 q 447 1263 429 1244 q 492 1282 465 1282 q 536 1263 518 1282 q 554 1218 554 1244 q 536 1172 554 1192 q 492 1153 518 1153 q 447 1172 465 1153 z "},"×":{"ha":560,"x_min":67,"x_max":494,"o":"m 67 238 q 79 268 67 253 l 201 382 l 81 494 q 68 526 68 507 q 89 573 68 551 q 136 594 110 594 q 167 582 154 594 l 279 468 l 393 582 q 424 594 406 594 q 471 573 450 594 q 492 526 492 551 q 481 494 492 508 l 358 382 l 481 268 q 494 236 494 254 q 472 190 494 213 q 425 168 450 168 q 394 181 407 168 l 279 296 l 165 181 q 135 168 153 168 q 89 190 111 168 q 67 238 67 213 z "},"Ø":{"ha":786,"x_min":82,"x_max":706,"o":"m 82 301 l 82 706 q 167 940 82 865 q 393 1015 251 1015 q 569 975 497 1015 l 604 1044 q 646 1069 615 1069 q 686 1054 668 1069 q 704 1017 704 1039 q 699 994 704 1004 l 653 903 q 706 706 706 826 l 706 301 q 620 67 706 142 q 393 -8 535 -8 q 215 31 289 -8 l 189 -22 q 143 -49 175 -49 q 104 -33 119 -49 q 89 3 89 -17 q 93 24 89 14 l 133 104 q 82 301 82 182 m 229 294 l 506 849 q 393 885 463 885 q 229 706 229 885 l 229 294 m 279 158 q 393 122 319 122 q 515 167 472 122 q 558 301 558 211 l 558 714 l 279 158 z "},"Ù":{"ha":810,"x_min":88,"x_max":722,"o":"m 88 301 l 88 968 q 109 1003 88 992 q 161 1015 131 1015 q 213 1003 192 1015 q 235 968 235 992 l 235 301 q 279 167 235 211 q 404 122 324 122 q 575 301 575 122 l 575 968 q 597 1003 575 992 q 649 1015 618 1015 q 701 1003 679 1015 q 722 968 722 992 l 722 301 q 635 67 722 142 q 404 -8 549 -8 q 174 67 261 -8 q 88 301 88 142 m 258 1271 q 272 1310 258 1292 q 306 1328 286 1328 q 321 1325 310 1328 l 493 1238 q 514 1201 514 1226 q 500 1163 514 1181 q 467 1144 486 1144 q 449 1149 457 1144 l 281 1233 q 258 1271 258 1243 z "},"Ú":{"ha":810,"x_min":88,"x_max":722,"o":"m 88 301 l 88 968 q 109 1003 88 992 q 161 1015 131 1015 q 213 1003 192 1015 q 235 968 235 992 l 235 301 q 279 167 235 211 q 404 122 324 122 q 575 301 575 122 l 575 968 q 597 1003 575 992 q 649 1015 618 1015 q 701 1003 679 1015 q 722 968 722 992 l 722 301 q 635 67 722 142 q 404 -8 549 -8 q 174 67 261 -8 q 88 301 88 142 m 300 1201 q 321 1238 300 1226 l 493 1325 q 508 1328 504 1328 q 542 1310 528 1328 q 556 1271 556 1292 q 533 1233 556 1243 l 365 1149 q 349 1144 357 1144 q 315 1163 329 1144 q 300 1201 300 1181 z "},"Û":{"ha":810,"x_min":88,"x_max":722,"o":"m 88 301 l 88 968 q 109 1003 88 992 q 161 1015 131 1015 q 213 1003 192 1015 q 235 968 235 992 l 235 301 q 279 167 235 211 q 404 122 324 122 q 575 301 575 122 l 575 968 q 597 1003 575 992 q 649 1015 618 1015 q 701 1003 679 1015 q 722 968 722 992 l 722 301 q 635 67 722 142 q 404 -8 549 -8 q 174 67 261 -8 q 88 301 88 142 m 206 1200 q 231 1243 206 1229 l 375 1321 q 399 1328 389 1328 q 422 1321 411 1328 l 567 1244 q 593 1199 593 1228 q 583 1166 593 1181 q 557 1151 572 1151 q 549 1153 554 1151 q 543 1156 546 1156 l 399 1233 l 254 1156 q 242 1151 247 1151 q 216 1166 226 1151 q 206 1200 206 1181 z "},"Ü":{"ha":810,"x_min":88,"x_max":722,"o":"m 88 301 l 88 968 q 109 1003 88 992 q 161 1015 131 1015 q 213 1003 192 1015 q 235 968 235 992 l 235 301 q 279 167 235 211 q 404 122 324 122 q 575 301 575 122 l 575 968 q 597 1003 575 992 q 649 1015 618 1015 q 701 1003 679 1015 q 722 968 722 992 l 722 301 q 635 67 722 142 q 404 -8 549 -8 q 174 67 261 -8 q 88 301 88 142 m 263 1172 q 254 1182 263 1172 q 244 1218 244 1192 q 263 1263 244 1244 q 308 1282 282 1282 q 352 1263 335 1282 q 369 1218 369 1244 q 351 1172 369 1192 q 308 1153 333 1153 q 263 1172 282 1153 m 457 1172 q 448 1182 457 1172 q 439 1218 439 1192 q 457 1263 439 1244 q 501 1282 475 1282 q 546 1263 528 1282 q 564 1218 564 1244 q 546 1172 564 1192 q 501 1153 528 1153 q 457 1172 475 1153 z "},"Ý":{"ha":775,"x_min":18,"x_max":757,"o":"m 18 954 q 49 997 18 979 q 111 1015 79 1015 q 160 982 142 1015 l 389 542 l 617 982 q 665 1015 633 1015 q 727 997 697 1015 q 757 954 757 979 q 753 933 757 942 l 465 415 q 463 400 463 407 l 463 49 q 440 13 463 26 q 389 0 418 0 q 337 13 358 0 q 315 49 315 26 l 315 400 q 311 415 315 403 l 24 933 q 18 954 18 944 m 276 1201 q 297 1238 276 1226 l 469 1325 q 485 1328 481 1328 q 518 1310 504 1328 q 532 1271 532 1292 q 510 1233 532 1243 l 342 1149 q 325 1144 333 1144 q 291 1163 306 1144 q 276 1201 276 1181 z "},"Þ":{"ha":710,"x_min":92,"x_max":667,"o":"m 92 49 l 92 982 q 112 1016 92 1003 q 163 1029 132 1029 q 217 1016 196 1029 q 238 981 238 1003 l 238 757 q 310 833 263 803 q 422 863 358 863 q 595 790 524 863 q 667 608 667 718 l 667 440 q 594 258 667 333 q 429 183 522 183 q 313 215 367 183 q 238 293 258 247 l 238 49 q 216 15 238 31 q 164 0 194 0 q 113 15 133 0 q 92 49 92 31 m 238 431 q 281 353 238 392 q 383 314 324 314 q 479 349 438 314 q 521 440 521 385 l 521 608 q 479 698 521 663 q 381 733 438 733 q 280 699 322 733 q 238 608 238 664 l 238 431 z "},"ß":{"ha":807,"x_min":6,"x_max":763,"o":"m 6 604 q 16 642 6 626 q 46 658 26 658 l 132 658 l 132 796 q 195 990 132 914 q 389 1067 258 1067 q 576 1002 504 1067 q 647 813 647 938 q 622 674 647 738 q 551 588 596 610 q 697 493 631 572 q 763 307 763 414 l 763 286 q 679 55 763 138 q 476 -28 596 -28 q 335 47 335 -28 q 345 94 335 72 q 372 117 356 117 q 410 106 378 117 q 472 96 442 96 q 581 142 542 96 q 621 275 621 189 l 621 296 q 573 441 621 386 q 436 511 525 496 q 397 527 408 515 q 385 571 385 539 q 392 603 385 592 q 408 619 400 615 q 438 626 417 622 q 525 778 525 639 q 399 938 525 938 q 278 796 278 938 l 278 47 q 256 13 278 26 q 203 0 233 0 q 152 13 172 0 q 132 47 132 26 l 132 550 l 46 550 q 16 565 26 550 q 6 604 6 581 z "},"à":{"ha":639,"x_min":35,"x_max":567,"o":"m 35 172 q 118 327 35 283 q 360 371 201 371 l 421 371 l 421 396 q 387 501 421 457 q 283 546 353 546 q 178 525 224 546 q 129 504 133 504 q 91 527 106 504 q 76 578 76 550 q 144 640 76 614 q 286 667 211 667 q 498 590 429 667 q 567 397 567 513 l 567 49 q 547 15 567 29 q 496 0 526 0 q 449 15 468 0 q 429 49 429 29 l 429 97 q 219 -11 336 -11 q 87 36 139 -11 q 35 172 35 83 m 176 928 q 190 967 176 949 q 224 985 204 985 q 239 982 228 985 l 411 894 q 432 858 432 883 q 418 819 432 838 q 385 801 404 801 q 367 806 375 801 l 199 890 q 176 928 176 900 m 182 190 q 207 123 182 146 q 272 100 232 100 q 373 144 325 100 q 421 239 421 189 l 421 290 l 386 290 q 284 285 324 290 q 213 256 244 279 q 182 190 182 232 z "},"á":{"ha":639,"x_min":35,"x_max":567,"o":"m 35 172 q 118 327 35 283 q 360 371 201 371 l 421 371 l 421 396 q 387 501 421 457 q 283 546 353 546 q 178 525 224 546 q 129 504 133 504 q 91 527 106 504 q 76 578 76 550 q 144 640 76 614 q 286 667 211 667 q 498 590 429 667 q 567 397 567 513 l 567 49 q 547 15 567 29 q 496 0 526 0 q 449 15 468 0 q 429 49 429 29 l 429 97 q 219 -11 336 -11 q 87 36 139 -11 q 35 172 35 83 m 182 190 q 207 123 182 146 q 272 100 232 100 q 373 144 325 100 q 421 239 421 189 l 421 290 l 386 290 q 284 285 324 290 q 213 256 244 279 q 182 190 182 232 m 193 858 q 214 894 193 883 l 386 982 q 401 985 397 985 q 435 967 421 985 q 449 928 449 949 q 426 890 449 900 l 258 806 q 242 801 250 801 q 208 819 222 801 q 193 858 193 838 z "},"â":{"ha":639,"x_min":35,"x_max":567,"o":"m 35 172 q 118 327 35 283 q 360 371 201 371 l 421 371 l 421 396 q 387 501 421 457 q 283 546 353 546 q 178 525 224 546 q 129 504 133 504 q 91 527 106 504 q 76 578 76 550 q 144 640 76 614 q 286 667 211 667 q 498 590 429 667 q 567 397 567 513 l 567 49 q 547 15 567 29 q 496 0 526 0 q 449 15 468 0 q 429 49 429 29 l 429 97 q 219 -11 336 -11 q 87 36 139 -11 q 35 172 35 83 m 106 857 q 131 900 106 886 l 275 978 q 299 985 289 985 q 322 978 311 985 l 467 901 q 493 856 493 885 q 483 823 493 838 q 457 808 472 808 q 449 810 454 808 q 443 813 446 813 l 299 890 l 154 813 q 142 808 147 808 q 116 823 126 808 q 106 857 106 838 m 182 190 q 207 123 182 146 q 272 100 232 100 q 373 144 325 100 q 421 239 421 189 l 421 290 l 386 290 q 284 285 324 290 q 213 256 244 279 q 182 190 182 232 z "},"ã":{"ha":639,"x_min":35,"x_max":567,"o":"m 35 172 q 118 327 35 283 q 360 371 201 371 l 421 371 l 421 396 q 387 501 421 457 q 283 546 353 546 q 178 525 224 546 q 129 504 133 504 q 91 527 106 504 q 76 578 76 550 q 144 640 76 614 q 286 667 211 667 q 498 590 429 667 q 567 397 567 513 l 567 49 q 547 15 567 29 q 496 0 526 0 q 449 15 468 0 q 429 49 429 29 l 429 97 q 219 -11 336 -11 q 87 36 139 -11 q 35 172 35 83 m 75 883 q 115 951 75 931 q 196 972 156 972 q 292 951 235 972 q 388 929 350 929 q 453 947 421 929 q 494 964 485 964 q 524 947 514 964 q 533 917 533 931 q 494 847 533 867 q 415 828 456 828 q 314 849 371 828 q 222 871 257 871 q 156 852 189 871 q 114 833 124 833 q 85 851 94 833 q 75 883 75 868 m 182 190 q 207 123 182 146 q 272 100 232 100 q 373 144 325 100 q 421 239 421 189 l 421 290 l 386 290 q 284 285 324 290 q 213 256 244 279 q 182 190 182 232 z "},"ä":{"ha":639,"x_min":35,"x_max":567,"o":"m 35 172 q 118 327 35 283 q 360 371 201 371 l 421 371 l 421 396 q 387 501 421 457 q 283 546 353 546 q 178 525 224 546 q 129 504 133 504 q 91 527 106 504 q 76 578 76 550 q 144 640 76 614 q 286 667 211 667 q 498 590 429 667 q 567 397 567 513 l 567 49 q 547 15 567 29 q 496 0 526 0 q 449 15 468 0 q 429 49 429 29 l 429 97 q 219 -11 336 -11 q 87 36 139 -11 q 35 172 35 83 m 162 829 q 152 839 162 829 q 143 875 143 849 q 162 920 143 901 q 207 939 181 939 q 251 920 233 939 q 268 875 268 901 q 250 829 268 849 q 207 810 232 810 q 162 829 181 810 m 182 190 q 207 123 182 146 q 272 100 232 100 q 373 144 325 100 q 421 239 421 189 l 421 290 l 386 290 q 284 285 324 290 q 213 256 244 279 q 182 190 182 232 m 356 829 q 347 839 356 829 q 338 875 338 849 q 356 920 338 901 q 400 939 374 939 q 444 920 426 939 q 463 875 463 901 q 444 829 463 849 q 400 810 426 810 q 356 829 374 810 z "},"å":{"ha":639,"x_min":35,"x_max":567,"o":"m 35 172 q 118 327 35 283 q 360 371 201 371 l 421 371 l 421 396 q 387 501 421 457 q 283 546 353 546 q 178 525 224 546 q 129 504 133 504 q 91 527 106 504 q 76 578 76 550 q 144 640 76 614 q 286 667 211 667 q 498 590 429 667 q 567 397 567 513 l 567 49 q 547 15 567 29 q 496 0 526 0 q 449 15 468 0 q 429 49 429 29 l 429 97 q 219 -11 336 -11 q 87 36 139 -11 q 35 172 35 83 m 172 933 q 211 1027 172 986 q 304 1068 250 1068 q 398 1027 357 1068 q 439 933 439 986 q 398 838 439 879 q 304 796 357 796 q 211 838 250 796 q 172 933 172 879 m 182 190 q 207 123 182 146 q 272 100 232 100 q 373 144 325 100 q 421 239 421 189 l 421 290 l 386 290 q 284 285 324 290 q 213 256 244 279 q 182 190 182 232 m 233 932 q 255 881 233 904 q 306 857 276 857 q 354 880 333 857 q 375 932 375 903 q 354 980 375 958 q 306 1001 333 1001 q 255 980 276 1001 q 233 932 233 958 z "},"æ":{"ha":1028,"x_min":35,"x_max":986,"o":"m 35 172 q 117 327 35 283 q 358 371 200 371 l 419 371 l 419 396 q 386 503 419 458 q 281 547 353 547 q 177 526 222 547 q 126 504 132 504 q 90 528 104 504 q 75 579 75 551 q 142 641 75 614 q 285 668 210 668 q 500 551 431 668 q 710 667 582 667 q 903 596 821 667 q 986 401 986 525 q 956 311 986 332 q 860 290 926 290 l 568 290 l 568 258 q 617 148 568 189 q 746 107 667 107 q 853 133 801 107 q 917 160 906 160 q 957 138 940 160 q 974 94 974 117 q 901 23 974 57 q 736 -11 829 -11 q 589 24 656 -11 q 482 125 522 60 q 372 24 436 60 q 242 -11 307 -11 q 94 36 153 -11 q 35 172 35 83 m 182 189 q 207 123 182 146 q 272 100 232 100 q 373 144 326 100 q 419 239 419 189 l 419 290 l 385 290 q 235 270 288 290 q 182 189 182 250 m 568 381 l 797 381 q 838 389 828 381 q 849 421 849 397 q 808 517 849 478 q 708 556 768 556 q 609 519 650 556 q 568 426 568 482 l 568 381 z "},"ç":{"ha":590,"x_min":53,"x_max":561,"o":"m 53 265 l 53 390 q 125 590 53 514 q 340 667 197 667 q 492 635 431 667 q 553 565 553 604 q 535 518 553 542 q 494 494 518 494 q 445 516 488 494 q 351 538 403 538 q 199 390 199 538 l 199 265 q 353 118 199 118 q 448 141 406 118 q 499 164 490 164 q 544 142 526 164 q 561 94 561 119 q 507 28 561 60 q 372 -10 453 -4 l 354 -76 q 455 -108 421 -78 q 489 -181 489 -137 q 455 -261 489 -225 q 351 -297 421 -297 q 275 -287 313 -297 q 238 -258 238 -276 q 245 -231 238 -247 q 265 -214 253 -214 q 293 -224 268 -214 q 344 -233 318 -233 q 414 -183 414 -233 q 339 -131 414 -137 l 272 -124 l 303 -10 q 115 74 178 0 q 53 265 53 149 z "},"è":{"ha":658,"x_min":51,"x_max":617,"o":"m 51 265 l 51 397 q 136 587 51 507 q 340 667 221 667 q 535 594 454 667 q 617 410 617 521 q 607 342 617 368 q 576 306 597 317 q 538 293 556 296 q 490 290 519 290 l 197 290 l 197 258 q 247 148 197 189 q 378 107 297 107 q 485 133 435 107 q 547 160 536 160 q 588 138 571 160 q 604 94 604 115 q 538 24 604 60 q 374 -11 471 -11 q 142 65 232 -11 q 51 265 51 142 m 197 381 l 428 381 q 469 389 458 381 q 479 422 479 397 q 439 517 479 478 q 339 556 399 556 q 239 519 281 556 q 197 425 197 482 l 197 381 m 197 928 q 211 967 197 949 q 244 985 225 985 q 260 982 249 985 l 432 894 q 453 858 453 883 q 439 819 453 838 q 406 801 425 801 q 388 806 396 801 l 219 890 q 197 928 197 900 z "},"é":{"ha":658,"x_min":51,"x_max":617,"o":"m 51 265 l 51 397 q 136 587 51 507 q 340 667 221 667 q 535 594 454 667 q 617 410 617 521 q 607 342 617 368 q 576 306 597 317 q 538 293 556 296 q 490 290 519 290 l 197 290 l 197 258 q 247 148 197 189 q 378 107 297 107 q 485 133 435 107 q 547 160 536 160 q 588 138 571 160 q 604 94 604 115 q 538 24 604 60 q 374 -11 471 -11 q 142 65 232 -11 q 51 265 51 142 m 197 381 l 428 381 q 469 389 458 381 q 479 422 479 397 q 439 517 479 478 q 339 556 399 556 q 239 519 281 556 q 197 425 197 482 l 197 381 m 214 858 q 235 894 214 883 l 407 982 q 422 985 418 985 q 456 967 442 985 q 469 928 469 949 q 447 890 469 900 l 279 806 q 263 801 271 801 q 228 819 243 801 q 214 858 214 838 z "},"ê":{"ha":658,"x_min":51,"x_max":617,"o":"m 51 265 l 51 397 q 136 587 51 507 q 340 667 221 667 q 535 594 454 667 q 617 410 617 521 q 607 342 617 368 q 576 306 597 317 q 538 293 556 296 q 490 290 519 290 l 197 290 l 197 258 q 247 148 197 189 q 378 107 297 107 q 485 133 435 107 q 547 160 536 160 q 588 138 571 160 q 604 94 604 115 q 538 24 604 60 q 374 -11 471 -11 q 142 65 232 -11 q 51 265 51 142 m 144 857 q 169 900 144 886 l 314 978 q 338 985 328 985 q 361 978 350 985 l 506 901 q 532 856 532 885 q 522 823 532 838 q 496 808 511 808 q 488 810 493 808 q 482 813 485 813 l 338 890 l 193 813 q 181 808 186 808 q 155 823 165 808 q 144 857 144 838 m 197 381 l 428 381 q 469 389 458 381 q 479 422 479 397 q 439 517 479 478 q 339 556 399 556 q 239 519 281 556 q 197 425 197 482 l 197 381 z "},"ë":{"ha":658,"x_min":51,"x_max":617,"o":"m 51 265 l 51 397 q 136 587 51 507 q 340 667 221 667 q 535 594 454 667 q 617 410 617 521 q 607 342 617 368 q 576 306 597 317 q 538 293 556 296 q 490 290 519 290 l 197 290 l 197 258 q 247 148 197 189 q 378 107 297 107 q 485 133 435 107 q 547 160 536 160 q 588 138 571 160 q 604 94 604 115 q 538 24 604 60 q 374 -11 471 -11 q 142 65 232 -11 q 51 265 51 142 m 197 829 q 187 839 197 829 q 178 875 178 849 q 197 920 178 901 q 242 939 215 939 q 285 920 268 939 q 303 875 303 901 q 285 829 303 849 q 242 810 267 810 q 197 829 215 810 m 197 381 l 428 381 q 469 389 458 381 q 479 422 479 397 q 439 517 479 478 q 339 556 399 556 q 239 519 281 556 q 197 425 197 482 l 197 381 m 390 829 q 381 839 390 829 q 372 875 372 849 q 390 920 372 901 q 435 939 408 939 q 479 920 461 939 q 497 875 497 901 q 479 829 497 849 q 435 810 461 810 q 390 829 408 810 z "},"ì":{"ha":299,"x_min":6,"x_max":261,"o":"m 6 928 q 19 967 6 949 q 53 985 33 985 q 68 982 57 985 l 240 894 q 261 858 261 883 q 247 819 261 838 q 214 801 233 801 q 196 806 204 801 l 28 890 q 6 928 6 900 m 76 49 l 76 611 q 97 645 76 632 q 149 658 117 658 q 201 645 181 658 q 222 611 222 632 l 222 49 q 201 15 222 31 q 149 0 179 0 q 97 15 118 0 q 76 49 76 31 z "},"í":{"ha":299,"x_min":39,"x_max":294,"o":"m 39 858 q 60 894 39 883 l 232 982 q 247 985 243 985 q 281 967 267 985 q 294 928 294 949 q 272 890 294 900 l 104 806 q 88 801 96 801 q 53 819 68 801 q 39 858 39 838 m 76 49 l 76 611 q 97 645 76 632 q 149 658 117 658 q 201 645 181 658 q 222 611 222 632 l 222 49 q 201 15 222 31 q 149 0 179 0 q 97 15 118 0 q 76 49 76 31 z "},"î":{"ha":299,"x_min":-43,"x_max":344,"o":"m -43 857 q -18 900 -43 886 l 126 978 q 150 985 140 985 q 174 978 163 985 l 318 901 q 344 856 344 885 q 334 823 344 838 q 308 808 324 808 q 300 810 306 808 q 294 813 297 813 l 150 890 l 6 813 q -7 808 0 808 q -33 823 -22 808 q -43 857 -43 838 m 76 49 l 76 611 q 97 645 76 632 q 149 658 117 658 q 201 645 181 658 q 222 611 222 632 l 222 49 q 201 15 222 31 q 149 0 179 0 q 97 15 118 0 q 76 49 76 31 z "},"ï":{"ha":299,"x_min":-7,"x_max":313,"o":"m 12 829 q 2 839 12 829 q -7 875 -7 849 q 12 920 -7 901 q 57 939 31 939 q 101 920 83 939 q 118 875 118 901 q 100 829 118 849 q 57 810 82 810 q 12 829 31 810 m 76 49 l 76 611 q 97 645 76 632 q 149 658 117 658 q 201 645 181 658 q 222 611 222 632 l 222 49 q 201 15 222 31 q 149 0 179 0 q 97 15 118 0 q 76 49 76 31 m 206 829 q 197 839 206 829 q 188 875 188 849 q 206 920 188 901 q 250 939 224 939 q 294 920 276 939 q 313 875 313 901 q 294 829 313 849 q 250 810 276 810 q 206 829 224 810 z "},"ð":{"ha":697,"x_min":51,"x_max":628,"o":"m 51 265 l 51 393 q 124 586 51 506 q 297 667 196 667 q 410 635 358 667 q 482 556 463 604 q 406 803 474 696 l 317 750 q 300 744 310 744 q 264 765 281 744 q 247 806 247 785 q 265 836 247 826 l 344 883 q 258 928 307 924 q 226 979 226 949 q 244 1028 226 1006 q 301 1051 263 1051 q 471 960 392 1051 l 557 1010 q 574 1014 565 1014 q 610 995 593 1014 q 626 956 626 976 q 608 924 626 938 l 526 875 q 628 489 628 701 l 628 265 q 542 72 628 156 q 340 -11 456 -11 q 138 72 224 -11 q 51 265 51 156 m 197 265 q 240 163 197 208 q 340 118 282 118 q 440 163 397 118 q 482 265 482 208 l 482 396 q 438 496 482 454 q 338 538 394 538 q 238 493 279 538 q 197 393 197 449 l 197 265 z "},"ñ":{"ha":713,"x_min":76,"x_max":642,"o":"m 76 49 l 76 611 q 97 645 76 632 q 149 658 117 658 q 195 645 176 658 q 214 611 214 632 l 214 561 q 285 636 236 606 q 400 667 335 667 q 570 586 499 667 q 642 393 642 506 l 642 49 q 620 13 642 26 q 568 0 599 0 q 518 13 540 0 q 496 49 496 26 l 496 393 q 454 493 496 449 q 356 538 413 538 q 263 498 303 538 q 222 393 222 458 l 222 49 q 200 15 222 31 q 149 0 178 0 q 97 15 118 0 q 76 49 76 31 m 125 883 q 165 951 125 931 q 246 972 206 972 q 342 951 285 972 q 438 929 400 929 q 503 947 471 929 q 544 964 535 964 q 574 947 564 964 q 583 917 583 931 q 544 847 583 867 q 465 828 506 828 q 364 849 421 828 q 272 871 307 871 q 206 852 239 871 q 164 833 174 833 q 135 851 144 833 q 125 883 125 868 z "},"ò":{"ha":676,"x_min":50,"x_max":625,"o":"m 50 265 l 50 393 q 135 585 50 503 q 338 667 219 667 q 539 585 453 667 q 625 393 625 504 l 625 265 q 538 73 625 157 q 338 -11 451 -11 q 136 72 222 -11 q 50 265 50 156 m 196 265 q 238 163 196 208 q 338 118 279 118 q 437 163 394 118 q 479 265 479 208 l 479 393 q 437 493 479 449 q 338 538 394 538 q 238 493 279 538 q 196 393 196 449 l 196 265 m 197 928 q 211 967 197 949 q 244 985 225 985 q 260 982 249 985 l 432 894 q 453 858 453 883 q 439 819 453 838 q 406 801 425 801 q 388 806 396 801 l 219 890 q 197 928 197 900 z "},"ó":{"ha":676,"x_min":50,"x_max":625,"o":"m 50 265 l 50 393 q 135 585 50 503 q 338 667 219 667 q 539 585 453 667 q 625 393 625 504 l 625 265 q 538 73 625 157 q 338 -11 451 -11 q 136 72 222 -11 q 50 265 50 156 m 196 265 q 238 163 196 208 q 338 118 279 118 q 437 163 394 118 q 479 265 479 208 l 479 393 q 437 493 479 449 q 338 538 394 538 q 238 493 279 538 q 196 393 196 449 l 196 265 m 213 858 q 233 894 213 883 l 406 982 q 421 985 417 985 q 454 967 440 985 q 468 928 468 949 q 446 890 468 900 l 278 806 q 261 801 269 801 q 227 819 242 801 q 213 858 213 838 z "},"ô":{"ha":676,"x_min":50,"x_max":625,"o":"m 50 265 l 50 393 q 135 585 50 503 q 338 667 219 667 q 539 585 453 667 q 625 393 625 504 l 625 265 q 538 73 625 157 q 338 -11 451 -11 q 136 72 222 -11 q 50 265 50 156 m 143 857 q 168 900 143 886 l 313 978 q 336 985 326 985 q 360 978 349 985 l 504 901 q 531 856 531 885 q 520 823 531 838 q 494 808 510 808 q 486 810 492 808 q 481 813 483 813 l 336 890 l 192 813 q 179 808 186 808 q 153 823 164 808 q 143 857 143 838 m 196 265 q 238 163 196 208 q 338 118 279 118 q 437 163 394 118 q 479 265 479 208 l 479 393 q 437 493 479 449 q 338 538 394 538 q 238 493 279 538 q 196 393 196 449 l 196 265 z "},"õ":{"ha":676,"x_min":50,"x_max":625,"o":"m 50 265 l 50 393 q 135 585 50 503 q 338 667 219 667 q 539 585 453 667 q 625 393 625 504 l 625 265 q 538 73 625 157 q 338 -11 451 -11 q 136 72 222 -11 q 50 265 50 156 m 110 883 q 150 951 110 931 q 231 972 190 972 q 327 951 269 972 q 422 929 385 929 q 488 947 456 929 q 529 964 519 964 q 558 947 549 964 q 568 917 568 931 q 529 847 568 867 q 450 828 490 828 q 349 849 406 828 q 257 871 292 871 q 191 852 224 871 q 149 833 158 833 q 119 851 129 833 q 110 883 110 868 m 196 265 q 238 163 196 208 q 338 118 279 118 q 437 163 394 118 q 479 265 479 208 l 479 393 q 437 493 479 449 q 338 538 394 538 q 238 493 279 538 q 196 393 196 449 l 196 265 z "},"ö":{"ha":676,"x_min":50,"x_max":625,"o":"m 50 265 l 50 393 q 135 585 50 503 q 338 667 219 667 q 539 585 453 667 q 625 393 625 504 l 625 265 q 538 73 625 157 q 338 -11 451 -11 q 136 72 222 -11 q 50 265 50 156 m 197 829 q 187 839 197 829 q 178 875 178 849 q 197 920 178 901 q 242 939 215 939 q 285 920 268 939 q 303 875 303 901 q 285 829 303 849 q 242 810 267 810 q 197 829 215 810 m 196 265 q 238 163 196 208 q 338 118 279 118 q 437 163 394 118 q 479 265 479 208 l 479 393 q 437 493 479 449 q 338 538 394 538 q 238 493 279 538 q 196 393 196 449 l 196 265 m 390 829 q 381 839 390 829 q 372 875 372 849 q 390 920 372 901 q 435 939 408 939 q 479 920 461 939 q 497 875 497 901 q 479 829 497 849 q 435 810 461 810 q 390 829 408 810 z "},"÷":{"ha":619,"x_min":39,"x_max":581,"o":"m 39 332 q 53 374 39 357 q 89 390 67 390 l 531 390 q 565 373 550 390 q 581 332 581 356 q 565 290 581 307 q 531 274 550 274 l 89 274 q 53 290 67 274 q 39 332 39 306 m 226 100 q 250 153 226 132 q 306 175 274 175 q 360 153 336 175 q 383 100 383 132 q 359 47 383 69 q 306 24 335 24 q 250 47 274 24 q 226 100 226 69 m 226 565 q 250 619 226 596 q 306 642 274 642 q 359 619 335 642 q 383 565 383 596 q 360 511 383 533 q 306 489 336 489 q 250 511 274 489 q 226 565 226 533 z "},"ø":{"ha":676,"x_min":50,"x_max":625,"o":"m 50 265 l 50 393 q 135 585 50 503 q 338 667 219 667 q 486 625 415 667 l 531 693 q 556 708 540 708 q 582 697 571 708 q 593 671 593 686 q 585 647 593 664 l 542 582 q 625 393 625 503 l 625 265 q 538 73 625 157 q 338 -11 451 -11 q 181 36 251 -11 l 136 -32 q 113 -44 128 -44 q 89 -35 100 -44 q 78 -11 78 -25 q 85 8 78 -1 l 129 78 q 50 265 50 160 m 196 265 q 210 201 196 229 l 413 513 q 338 538 376 538 q 238 493 279 538 q 196 393 196 449 l 196 265 m 254 147 q 338 118 292 118 q 437 163 394 118 q 479 265 479 208 l 479 393 q 461 460 479 426 l 254 147 z "},"ù":{"ha":715,"x_min":71,"x_max":644,"o":"m 71 263 l 71 610 q 93 644 71 629 q 144 658 115 658 q 195 644 174 658 q 217 610 217 629 l 217 263 q 259 163 217 207 q 358 118 301 118 q 458 162 417 118 q 500 263 500 206 l 500 611 q 522 644 500 631 q 574 658 543 658 q 624 644 604 658 q 644 611 644 631 l 644 263 q 560 71 644 153 q 358 -11 475 -11 q 156 71 242 -11 q 71 263 71 153 m 217 928 q 231 967 217 949 q 264 985 244 985 q 279 982 268 985 l 451 894 q 472 858 472 883 q 458 819 472 838 q 425 801 444 801 q 407 806 415 801 l 239 890 q 217 928 217 900 z "},"ú":{"ha":715,"x_min":71,"x_max":644,"o":"m 71 263 l 71 610 q 93 644 71 629 q 144 658 115 658 q 195 644 174 658 q 217 610 217 629 l 217 263 q 259 163 217 207 q 358 118 301 118 q 458 162 417 118 q 500 263 500 206 l 500 611 q 522 644 500 631 q 574 658 543 658 q 624 644 604 658 q 644 611 644 631 l 644 263 q 560 71 644 153 q 358 -11 475 -11 q 156 71 242 -11 q 71 263 71 153 m 242 858 q 263 894 242 883 l 435 982 q 450 985 446 985 q 483 967 469 985 q 497 928 497 949 q 475 890 497 900 l 307 806 q 290 801 299 801 q 256 819 271 801 q 242 858 242 838 z "},"û":{"ha":715,"x_min":71,"x_max":644,"o":"m 71 263 l 71 610 q 93 644 71 629 q 144 658 115 658 q 195 644 174 658 q 217 610 217 629 l 217 263 q 259 163 217 207 q 358 118 301 118 q 458 162 417 118 q 500 263 500 206 l 500 611 q 522 644 500 631 q 574 658 543 658 q 624 644 604 658 q 644 611 644 631 l 644 263 q 560 71 644 153 q 358 -11 475 -11 q 156 71 242 -11 q 71 263 71 153 m 165 857 q 190 900 165 886 l 335 978 q 358 985 349 985 q 382 978 371 985 l 526 901 q 553 856 553 885 q 542 823 553 838 q 517 808 532 808 q 508 810 514 808 q 503 813 506 813 l 358 890 l 214 813 q 201 808 208 808 q 176 823 186 808 q 165 857 165 838 z "},"ü":{"ha":715,"x_min":71,"x_max":644,"o":"m 71 263 l 71 610 q 93 644 71 629 q 144 658 115 658 q 195 644 174 658 q 217 610 217 629 l 217 263 q 259 163 217 207 q 358 118 301 118 q 458 162 417 118 q 500 263 500 206 l 500 611 q 522 644 500 631 q 574 658 543 658 q 624 644 604 658 q 644 611 644 631 l 644 263 q 560 71 644 153 q 358 -11 475 -11 q 156 71 242 -11 q 71 263 71 153 m 217 829 q 208 839 217 829 q 199 875 199 849 q 217 920 199 901 q 263 939 236 939 q 306 920 289 939 q 324 875 324 901 q 306 829 324 849 q 263 810 288 810 q 217 829 236 810 m 411 829 q 402 839 411 829 q 393 875 393 849 q 411 920 393 901 q 456 939 429 939 q 500 920 482 939 q 518 875 518 901 q 500 829 518 849 q 456 810 482 810 q 411 829 429 810 z "},"ý":{"ha":635,"x_min":14,"x_max":618,"o":"m 82 -312 q 14 -250 14 -312 q 54 -187 14 -187 q 178 -128 117 -187 q 253 40 239 -68 l 19 579 q 14 599 14 586 q 46 647 14 625 q 110 668 78 668 q 154 642 144 668 l 329 190 l 479 642 q 521 668 492 668 q 584 647 550 668 q 618 596 618 625 q 615 579 618 583 l 410 36 l 386 -26 q 360 -86 378 -46 q 331 -147 343 -126 l 297 -199 q 256 -247 276 -231 q 208 -280 235 -262 q 150 -305 182 -297 q 82 -312 118 -312 m 229 858 q 250 894 229 883 l 422 982 q 438 985 433 985 q 471 967 457 985 q 485 928 485 949 q 463 890 485 900 l 294 806 q 278 801 286 801 q 244 819 258 801 q 229 858 229 838 z "},"þ":{"ha":703,"x_min":78,"x_max":651,"o":"m 78 -264 l 78 1003 q 98 1037 78 1024 q 147 1050 118 1050 q 201 1037 179 1050 q 224 1003 224 1024 l 224 561 q 294 636 247 606 q 401 667 342 667 q 578 586 506 667 q 651 393 651 506 l 651 265 q 578 73 651 157 q 407 -11 504 -11 q 297 21 347 -11 q 224 97 246 53 l 224 -264 q 201 -298 224 -283 q 149 -312 179 -312 q 98 -298 118 -312 q 78 -264 78 -283 m 224 233 q 266 160 224 203 q 364 118 308 118 q 463 163 419 118 q 506 265 506 208 l 506 393 q 463 493 506 449 q 361 538 419 538 q 265 498 307 538 q 224 393 224 458 l 224 233 z "},"ÿ":{"ha":635,"x_min":14,"x_max":618,"o":"m 82 -312 q 14 -250 14 -312 q 54 -187 14 -187 q 178 -128 117 -187 q 253 40 239 -68 l 19 579 q 14 599 14 586 q 46 647 14 625 q 110 668 78 668 q 154 642 144 668 l 329 190 l 479 642 q 521 668 492 668 q 584 647 550 668 q 618 596 618 625 q 615 579 618 583 l 410 36 l 386 -26 q 360 -86 378 -46 q 331 -147 343 -126 l 297 -199 q 256 -247 276 -231 q 208 -280 235 -262 q 150 -305 182 -297 q 82 -312 118 -312 m 187 829 q 177 839 187 829 q 168 875 168 849 q 187 920 168 901 q 232 939 206 939 q 276 920 258 939 q 293 875 293 901 q 275 829 293 849 q 232 810 257 810 q 187 829 206 810 m 381 829 q 372 839 381 829 q 363 875 363 849 q 381 920 363 901 q 425 939 399 939 q 469 920 451 939 q 488 875 488 901 q 469 829 488 849 q 425 810 451 810 q 381 829 399 810 z "},"Ā":{"ha":781,"x_min":19,"x_max":763,"o":"m 19 61 q 21 74 19 69 l 297 974 q 390 1024 314 1024 q 485 974 468 1024 l 760 74 q 763 61 763 65 q 733 18 763 36 q 669 0 703 0 q 619 31 629 0 l 563 228 l 219 228 l 163 31 q 111 0 153 0 q 49 18 78 0 q 19 61 19 36 m 210 1217 q 204 1224 210 1217 q 197 1253 197 1231 q 210 1290 197 1275 q 244 1304 224 1304 l 535 1304 q 569 1289 554 1304 q 583 1253 583 1274 q 569 1218 583 1232 q 535 1204 554 1204 l 244 1204 q 210 1217 224 1204 m 251 346 l 529 346 l 390 822 l 251 346 z "},"ā":{"ha":639,"x_min":35,"x_max":567,"o":"m 35 172 q 118 327 35 283 q 360 371 201 371 l 421 371 l 421 396 q 387 501 421 457 q 283 546 353 546 q 178 525 224 546 q 129 504 133 504 q 91 527 106 504 q 76 578 76 550 q 144 640 76 614 q 286 667 211 667 q 498 590 429 667 q 567 397 567 513 l 567 49 q 547 15 567 29 q 496 0 526 0 q 449 15 468 0 q 429 49 429 29 l 429 97 q 219 -11 336 -11 q 87 36 139 -11 q 35 172 35 83 m 133 874 q 126 881 133 874 q 119 910 119 888 q 133 947 119 932 q 167 961 146 961 l 457 961 q 491 946 476 961 q 506 910 506 931 q 491 875 506 889 q 457 861 476 861 l 167 861 q 133 874 146 861 m 182 190 q 207 123 182 146 q 272 100 232 100 q 373 144 325 100 q 421 239 421 189 l 421 290 l 386 290 q 284 285 324 290 q 213 256 244 279 q 182 190 182 232 z "},"Ă":{"ha":781,"x_min":19,"x_max":763,"o":"m 19 61 q 21 74 19 69 l 297 974 q 390 1024 314 1024 q 485 974 468 1024 l 760 74 q 763 61 763 65 q 733 18 763 36 q 669 0 703 0 q 619 31 629 0 l 563 228 l 219 228 l 163 31 q 111 0 153 0 q 49 18 78 0 q 19 61 19 36 m 214 1340 l 297 1340 q 326 1265 297 1296 q 390 1233 354 1233 q 454 1265 426 1233 q 482 1340 482 1296 l 567 1340 q 513 1218 567 1271 q 390 1165 458 1165 q 267 1217 321 1165 q 214 1340 214 1269 m 251 346 l 529 346 l 390 822 l 251 346 z "},"ă":{"ha":639,"x_min":35,"x_max":567,"o":"m 35 172 q 118 327 35 283 q 360 371 201 371 l 421 371 l 421 396 q 387 501 421 457 q 283 546 353 546 q 178 525 224 546 q 129 504 133 504 q 91 527 106 504 q 76 578 76 550 q 144 640 76 614 q 286 667 211 667 q 498 590 429 667 q 567 397 567 513 l 567 49 q 547 15 567 29 q 496 0 526 0 q 449 15 468 0 q 429 49 429 29 l 429 97 q 219 -11 336 -11 q 87 36 139 -11 q 35 172 35 83 m 133 997 l 217 997 q 245 922 217 953 q 310 890 274 890 q 374 922 346 890 q 401 997 401 953 l 486 997 q 432 875 486 928 q 310 822 378 822 q 187 874 240 822 q 133 997 133 926 m 182 190 q 207 123 182 146 q 272 100 232 100 q 373 144 325 100 q 421 239 421 189 l 421 290 l 386 290 q 284 285 324 290 q 213 256 244 279 q 182 190 182 232 z "},"Ą":{"ha":781,"x_min":19,"x_max":763,"o":"m 19 61 q 21 74 19 69 l 297 974 q 390 1024 314 1024 q 485 974 468 1024 l 760 74 q 763 61 763 65 q 747 30 763 44 q 710 7 732 15 q 606 -160 606 -68 q 689 -224 606 -224 q 719 -258 719 -224 q 681 -289 719 -289 q 570 -258 611 -289 q 529 -172 529 -226 q 628 14 529 -67 q 619 31 622 19 l 563 228 l 219 228 l 163 31 q 111 0 153 0 q 49 18 78 0 q 19 61 19 36 m 251 346 l 529 346 l 390 822 l 251 346 z "},"ą":{"ha":639,"x_min":35,"x_max":567,"o":"m 35 172 q 118 327 35 283 q 360 371 201 371 l 421 371 l 421 396 q 387 501 421 457 q 283 546 353 546 q 178 525 224 546 q 129 504 133 504 q 91 527 106 504 q 76 578 76 550 q 144 640 76 614 q 286 667 211 667 q 498 590 429 667 q 567 397 567 513 l 567 49 q 536 8 567 22 q 460 -70 489 -25 q 431 -160 431 -115 q 514 -224 431 -224 q 544 -258 544 -224 q 506 -289 544 -289 q 395 -258 436 -289 q 354 -172 354 -226 q 450 13 354 -68 q 429 49 429 26 l 429 97 q 219 -11 336 -11 q 87 36 139 -11 q 35 172 35 83 m 182 190 q 207 123 182 146 q 272 100 232 100 q 373 144 325 100 q 421 239 421 189 l 421 290 l 386 290 q 284 285 324 290 q 213 256 244 279 q 182 190 182 232 z "},"Ć":{"ha":751,"x_min":82,"x_max":706,"o":"m 82 301 l 82 706 q 167 940 82 865 q 390 1015 253 1015 q 619 945 532 1015 q 706 764 706 875 q 689 703 706 719 q 632 688 672 688 q 558 736 560 688 q 396 885 550 885 q 229 706 229 885 l 229 301 q 399 122 229 122 q 482 137 449 122 q 530 179 515 151 q 550 228 544 207 q 558 279 556 249 q 631 328 563 328 q 688 312 671 328 q 706 251 706 296 q 618 64 706 136 q 389 -8 531 -8 q 167 67 251 -8 q 82 301 82 142 m 285 1201 q 306 1238 285 1226 l 478 1325 q 493 1328 489 1328 q 526 1310 513 1328 q 540 1271 540 1292 q 518 1233 540 1243 l 350 1149 q 333 1144 342 1144 q 299 1163 314 1144 q 285 1201 285 1181 z "},"ć":{"ha":592,"x_min":54,"x_max":563,"o":"m 54 265 l 54 390 q 126 590 54 514 q 342 667 199 667 q 493 635 432 667 q 554 565 554 604 q 537 518 554 542 q 496 494 519 494 q 447 516 489 494 q 353 538 404 538 q 200 390 200 538 l 200 265 q 354 118 200 118 q 449 141 407 118 q 500 164 492 164 q 545 142 528 164 q 563 94 563 119 q 499 22 563 56 q 343 -11 435 -11 q 126 65 199 -11 q 54 265 54 140 m 200 858 q 221 894 200 883 l 393 982 q 408 985 404 985 q 442 967 428 985 q 456 928 456 949 q 433 890 456 900 l 265 806 q 249 801 257 801 q 215 819 229 801 q 200 858 200 838 z "},"Ĉ":{"ha":751,"x_min":82,"x_max":706,"o":"m 82 301 l 82 706 q 167 940 82 865 q 390 1015 253 1015 q 619 945 532 1015 q 706 764 706 875 q 689 703 706 719 q 632 688 672 688 q 558 736 560 688 q 396 885 550 885 q 229 706 229 885 l 229 301 q 399 122 229 122 q 482 137 449 122 q 530 179 515 151 q 550 228 544 207 q 558 279 556 249 q 631 328 563 328 q 688 312 671 328 q 706 251 706 296 q 618 64 706 136 q 389 -8 531 -8 q 167 67 251 -8 q 82 301 82 142 m 199 1200 q 224 1243 199 1229 l 368 1321 q 392 1328 382 1328 q 415 1321 404 1328 l 560 1244 q 586 1199 586 1228 q 576 1166 586 1181 q 550 1151 565 1151 q 542 1153 547 1151 q 536 1156 539 1156 l 392 1233 l 247 1156 q 235 1151 242 1151 q 209 1166 219 1151 q 199 1200 199 1181 z "},"ĉ":{"ha":592,"x_min":54,"x_max":563,"o":"m 54 265 l 54 390 q 126 590 54 514 q 342 667 199 667 q 493 635 432 667 q 554 565 554 604 q 537 518 554 542 q 496 494 519 494 q 447 516 489 494 q 353 538 404 538 q 200 390 200 538 l 200 265 q 354 118 200 118 q 449 141 407 118 q 500 164 492 164 q 545 142 528 164 q 563 94 563 119 q 499 22 563 56 q 343 -11 435 -11 q 126 65 199 -11 q 54 265 54 140 m 126 857 q 151 900 126 886 l 296 978 q 319 985 310 985 q 343 978 332 985 l 488 901 q 514 856 514 885 q 503 823 514 838 q 478 808 493 808 q 469 810 475 808 q 464 813 467 813 l 319 890 l 175 813 q 163 808 169 808 q 137 823 147 808 q 126 857 126 838 z "},"Ċ":{"ha":751,"x_min":82,"x_max":706,"o":"m 82 301 l 82 706 q 167 940 82 865 q 390 1015 253 1015 q 619 945 532 1015 q 706 764 706 875 q 689 703 706 719 q 632 688 672 688 q 558 736 560 688 q 396 885 550 885 q 229 706 229 885 l 229 301 q 399 122 229 122 q 482 137 449 122 q 530 179 515 151 q 550 228 544 207 q 558 279 556 249 q 631 328 563 328 q 688 312 671 328 q 706 251 706 296 q 618 64 706 136 q 389 -8 531 -8 q 167 67 251 -8 q 82 301 82 142 m 350 1172 q 341 1182 350 1172 q 332 1218 332 1192 q 350 1263 332 1244 q 394 1282 368 1282 q 439 1263 421 1282 q 457 1218 457 1244 q 439 1172 457 1192 q 394 1153 421 1153 q 350 1172 368 1153 z "},"ċ":{"ha":592,"x_min":54,"x_max":563,"o":"m 54 265 l 54 390 q 126 590 54 514 q 342 667 199 667 q 493 635 432 667 q 554 565 554 604 q 537 518 554 542 q 496 494 519 494 q 447 516 489 494 q 353 538 404 538 q 200 390 200 538 l 200 265 q 354 118 200 118 q 449 141 407 118 q 500 164 492 164 q 545 142 528 164 q 563 94 563 119 q 499 22 563 56 q 343 -11 435 -11 q 126 65 199 -11 q 54 265 54 140 m 272 829 q 263 839 272 829 q 254 875 254 849 q 272 920 254 901 q 317 939 290 939 q 361 920 343 939 q 379 875 379 901 q 361 829 379 849 q 317 810 343 810 q 272 829 290 810 z "},"Č":{"ha":751,"x_min":82,"x_max":706,"o":"m 82 301 l 82 706 q 167 940 82 865 q 390 1015 253 1015 q 619 945 532 1015 q 706 764 706 875 q 689 703 706 719 q 632 688 672 688 q 558 736 560 688 q 396 885 550 885 q 229 706 229 885 l 229 301 q 399 122 229 122 q 482 137 449 122 q 530 179 515 151 q 550 228 544 207 q 558 279 556 249 q 631 328 563 328 q 688 312 671 328 q 706 251 706 296 q 618 64 706 136 q 389 -8 531 -8 q 167 67 251 -8 q 82 301 82 142 m 199 1314 q 208 1346 199 1332 q 232 1360 218 1360 q 250 1351 242 1360 l 390 1247 l 532 1351 q 550 1360 540 1360 q 574 1346 564 1360 q 583 1314 583 1332 q 558 1268 583 1285 l 417 1164 q 390 1154 403 1154 q 365 1164 381 1154 l 222 1268 q 199 1314 199 1286 z "},"č":{"ha":592,"x_min":54,"x_max":563,"o":"m 54 265 l 54 390 q 126 590 54 514 q 342 667 199 667 q 493 635 432 667 q 554 565 554 604 q 537 518 554 542 q 496 494 519 494 q 447 516 489 494 q 353 538 404 538 q 200 390 200 538 l 200 265 q 354 118 200 118 q 449 141 407 118 q 500 164 492 164 q 545 142 528 164 q 563 94 563 119 q 499 22 563 56 q 343 -11 435 -11 q 126 65 199 -11 q 54 265 54 140 m 121 971 q 131 1003 121 989 q 154 1017 140 1017 q 172 1008 164 1017 l 313 904 l 454 1008 q 472 1017 463 1017 q 496 1003 486 1017 q 506 971 506 989 q 481 925 506 942 l 339 821 q 313 811 325 811 q 288 821 303 811 l 144 925 q 121 971 121 943 z "},"Ď":{"ha":796,"x_min":92,"x_max":715,"o":"m 92 47 l 92 968 q 110 1001 92 988 q 157 1015 129 1015 l 403 1015 q 630 940 544 1015 q 715 706 715 865 l 715 310 q 630 75 715 150 q 403 0 544 0 l 157 0 q 110 14 129 0 q 92 47 92 28 m 190 1314 q 200 1346 190 1332 q 224 1360 210 1360 q 242 1351 233 1360 l 382 1247 l 524 1351 q 542 1360 532 1360 q 565 1346 556 1360 q 575 1314 575 1332 q 550 1268 575 1285 l 408 1164 q 382 1154 394 1154 q 357 1164 372 1154 l 214 1268 q 190 1314 190 1286 m 239 131 l 403 131 q 568 310 568 131 l 568 706 q 403 885 568 885 l 239 885 l 239 131 z "},"ď":{"ha":704,"x_min":51,"x_max":865,"o":"m 51 265 l 51 393 q 124 586 51 506 q 300 667 197 667 q 408 636 361 667 q 481 561 456 606 l 481 1003 q 501 1037 481 1024 q 554 1050 522 1050 q 606 1037 586 1050 q 626 1003 626 1024 l 626 49 q 606 15 626 31 q 554 0 585 0 q 508 15 528 0 q 488 49 488 31 l 488 97 q 412 21 465 53 q 296 -11 358 -11 q 125 73 199 -11 q 51 265 51 157 m 197 265 q 239 163 197 208 q 338 118 281 118 q 436 160 392 118 q 481 233 481 203 l 481 393 q 438 497 481 457 q 339 538 394 538 q 240 493 282 538 q 197 393 197 449 l 197 265 m 700 946 q 724 1005 700 981 q 782 1029 747 1029 q 841 1005 817 1029 q 865 947 865 981 q 796 761 865 918 q 764 740 786 740 q 730 751 746 740 q 714 781 714 763 q 717 797 714 792 l 749 871 q 700 946 700 894 z "},"Đ":{"ha":807,"x_min":-6,"x_max":726,"o":"m 6 494 q 0 502 6 494 q -6 532 -6 510 q 6 570 -6 554 q 35 586 17 586 l 103 586 l 103 968 q 122 1001 103 988 q 168 1015 140 1015 l 414 1015 q 641 940 556 1015 q 726 706 726 865 l 726 310 q 641 75 726 150 q 414 0 556 0 l 168 0 q 122 14 140 0 q 103 47 103 28 l 103 478 l 35 478 q 6 494 17 478 m 250 131 l 414 131 q 579 310 579 131 l 579 706 q 414 885 579 885 l 250 885 l 250 586 l 376 586 q 407 570 396 586 q 418 532 418 554 q 407 494 418 510 q 376 478 396 478 l 250 478 l 250 131 z "},"đ":{"ha":704,"x_min":51,"x_max":718,"o":"m 51 265 l 51 393 q 124 586 51 506 q 300 667 197 667 q 408 636 361 667 q 481 561 456 606 l 481 779 l 350 779 q 321 795 332 779 q 310 833 310 811 q 321 872 310 856 q 350 889 332 889 l 481 889 l 481 1003 q 501 1037 481 1024 q 554 1050 522 1050 q 606 1037 586 1050 q 626 1003 626 1024 l 626 889 l 676 889 q 706 872 694 889 q 718 833 718 856 q 706 795 718 811 q 676 779 694 779 l 626 779 l 626 49 q 606 15 626 31 q 554 0 585 0 q 508 15 528 0 q 488 49 488 31 l 488 97 q 412 21 465 53 q 296 -11 358 -11 q 125 73 199 -11 q 51 265 51 157 m 197 265 q 239 163 197 208 q 338 118 281 118 q 436 160 392 118 q 481 233 481 203 l 481 393 q 438 497 481 457 q 339 538 394 538 q 240 493 282 538 q 197 393 197 449 l 197 265 z "},"Ē":{"ha":726,"x_min":92,"x_max":700,"o":"m 92 49 l 92 967 q 111 1002 92 989 q 157 1015 131 1015 l 651 1015 q 688 996 675 1015 q 700 951 700 976 q 687 904 700 924 q 651 885 674 885 l 239 885 l 239 567 l 453 567 q 488 549 475 567 q 501 507 501 532 q 489 467 501 485 q 453 450 476 450 l 239 450 l 239 131 l 651 131 q 687 111 674 131 q 700 64 700 92 q 688 19 700 39 q 651 0 675 0 l 157 0 q 111 13 131 0 q 92 49 92 26 m 220 1217 q 214 1224 220 1217 q 207 1253 207 1231 q 220 1290 207 1275 q 254 1304 233 1304 l 544 1304 q 578 1289 564 1304 q 593 1253 593 1274 q 578 1218 593 1232 q 544 1204 564 1204 l 254 1204 q 220 1217 233 1204 z "},"ē":{"ha":658,"x_min":51,"x_max":617,"o":"m 51 265 l 51 397 q 136 587 51 507 q 340 667 221 667 q 535 594 454 667 q 617 410 617 521 q 607 342 617 368 q 576 306 597 317 q 538 293 556 296 q 490 290 519 290 l 197 290 l 197 258 q 247 148 197 189 q 378 107 297 107 q 485 133 435 107 q 547 160 536 160 q 588 138 571 160 q 604 94 604 115 q 538 24 604 60 q 374 -11 471 -11 q 142 65 232 -11 q 51 265 51 142 m 160 874 q 154 881 160 874 q 147 910 147 888 q 160 947 147 932 q 194 961 174 961 l 485 961 q 519 946 504 961 q 533 910 533 931 q 519 875 533 889 q 485 861 504 861 l 194 861 q 160 874 174 861 m 197 381 l 428 381 q 469 389 458 381 q 479 422 479 397 q 439 517 479 478 q 339 556 399 556 q 239 519 281 556 q 197 425 197 482 l 197 381 z "},"Ĕ":{"ha":726,"x_min":92,"x_max":700,"o":"m 92 49 l 92 967 q 111 1002 92 989 q 157 1015 131 1015 l 651 1015 q 688 996 675 1015 q 700 951 700 976 q 687 904 700 924 q 651 885 674 885 l 239 885 l 239 567 l 453 567 q 488 549 475 567 q 501 507 501 532 q 489 467 501 485 q 453 450 476 450 l 239 450 l 239 131 l 651 131 q 687 111 674 131 q 700 64 700 92 q 688 19 700 39 q 651 0 675 0 l 157 0 q 111 13 131 0 q 92 49 92 26 m 218 1340 l 301 1340 q 330 1265 301 1296 q 394 1233 358 1233 q 458 1265 431 1233 q 486 1340 486 1296 l 571 1340 q 517 1218 571 1271 q 394 1165 463 1165 q 272 1217 325 1165 q 218 1340 218 1269 z "},"ĕ":{"ha":658,"x_min":51,"x_max":617,"o":"m 51 265 l 51 397 q 136 587 51 507 q 340 667 221 667 q 535 594 454 667 q 617 410 617 521 q 607 342 617 368 q 576 306 597 317 q 538 293 556 296 q 490 290 519 290 l 197 290 l 197 258 q 247 148 197 189 q 378 107 297 107 q 485 133 435 107 q 547 160 536 160 q 588 138 571 160 q 604 94 604 115 q 538 24 604 60 q 374 -11 471 -11 q 142 65 232 -11 q 51 265 51 142 m 163 997 l 246 997 q 274 922 246 953 q 339 890 303 890 q 403 922 375 890 q 431 997 431 953 l 515 997 q 461 875 515 928 q 339 822 407 822 q 216 874 269 822 q 163 997 163 926 m 197 381 l 428 381 q 469 389 458 381 q 479 422 479 397 q 439 517 479 478 q 339 556 399 556 q 239 519 281 556 q 197 425 197 482 l 197 381 z "},"Ė":{"ha":726,"x_min":92,"x_max":700,"o":"m 92 49 l 92 967 q 111 1002 92 989 q 157 1015 131 1015 l 651 1015 q 688 996 675 1015 q 700 951 700 976 q 687 904 700 924 q 651 885 674 885 l 239 885 l 239 567 l 453 567 q 488 549 475 567 q 501 507 501 532 q 489 467 501 485 q 453 450 476 450 l 239 450 l 239 131 l 651 131 q 687 111 674 131 q 700 64 700 92 q 688 19 700 39 q 651 0 675 0 l 157 0 q 111 13 131 0 q 92 49 92 26 m 363 1172 q 353 1182 363 1172 q 344 1218 344 1192 q 363 1263 344 1244 q 407 1282 381 1282 q 451 1263 433 1282 q 469 1218 469 1244 q 451 1172 469 1192 q 407 1153 433 1153 q 363 1172 381 1153 z "},"ė":{"ha":658,"x_min":51,"x_max":617,"o":"m 51 265 l 51 397 q 136 587 51 507 q 340 667 221 667 q 535 594 454 667 q 617 410 617 521 q 607 342 617 368 q 576 306 597 317 q 538 293 556 296 q 490 290 519 290 l 197 290 l 197 258 q 247 148 197 189 q 378 107 297 107 q 485 133 435 107 q 547 160 536 160 q 588 138 571 160 q 604 94 604 115 q 538 24 604 60 q 374 -11 471 -11 q 142 65 232 -11 q 51 265 51 142 m 197 381 l 428 381 q 469 389 458 381 q 479 422 479 397 q 439 517 479 478 q 339 556 399 556 q 239 519 281 556 q 197 425 197 482 l 197 381 m 294 829 q 285 839 294 829 q 276 875 276 849 q 294 920 276 901 q 339 939 313 939 q 383 920 365 939 q 401 875 401 901 q 383 829 401 849 q 339 810 365 810 q 294 829 313 810 z "},"Ę":{"ha":726,"x_min":92,"x_max":700,"o":"m 92 49 l 92 967 q 111 1002 92 989 q 157 1015 131 1015 l 651 1015 q 688 996 675 1015 q 700 951 700 976 q 687 904 700 924 q 651 885 674 885 l 239 885 l 239 567 l 453 567 q 488 549 475 567 q 501 507 501 532 q 489 467 501 485 q 453 450 476 450 l 239 450 l 239 131 l 651 131 q 687 111 674 131 q 700 64 700 92 q 671 4 700 21 q 571 -160 571 -69 q 654 -224 571 -224 q 685 -258 685 -224 q 646 -289 685 -289 q 535 -258 576 -289 q 494 -172 494 -226 q 576 0 494 -78 l 157 0 q 111 13 131 0 q 92 49 92 26 z "},"ę":{"ha":658,"x_min":51,"x_max":617,"o":"m 51 265 l 51 397 q 136 587 51 507 q 340 667 221 667 q 535 594 454 667 q 617 410 617 521 q 607 342 617 368 q 576 306 597 317 q 538 293 556 296 q 490 290 519 290 l 197 290 l 197 258 q 247 148 197 189 q 378 107 297 107 q 485 133 435 107 q 547 160 536 160 q 588 138 571 160 q 604 94 604 115 q 583 56 604 76 q 524 18 561 35 q 425 -146 425 -57 q 508 -210 425 -210 q 539 -244 539 -210 q 500 -275 539 -275 q 390 -244 431 -275 q 349 -158 349 -212 q 410 -8 349 -78 q 374 -11 397 -11 q 142 65 232 -11 q 51 265 51 142 m 197 381 l 428 381 q 469 389 458 381 q 479 422 479 397 q 439 517 479 478 q 339 556 399 556 q 239 519 281 556 q 197 425 197 482 l 197 381 z "},"Ě":{"ha":726,"x_min":92,"x_max":700,"o":"m 92 49 l 92 967 q 111 1002 92 989 q 157 1015 131 1015 l 651 1015 q 688 996 675 1015 q 700 951 700 976 q 687 904 700 924 q 651 885 674 885 l 239 885 l 239 567 l 453 567 q 488 549 475 567 q 501 507 501 532 q 489 467 501 485 q 453 450 476 450 l 239 450 l 239 131 l 651 131 q 687 111 674 131 q 700 64 700 92 q 688 19 700 39 q 651 0 675 0 l 157 0 q 111 13 131 0 q 92 49 92 26 m 201 1314 q 211 1346 201 1332 q 235 1360 221 1360 q 253 1351 244 1360 l 393 1247 l 535 1351 q 553 1360 543 1360 q 576 1346 567 1360 q 586 1314 586 1332 q 561 1268 586 1285 l 419 1164 q 393 1154 406 1154 q 368 1164 383 1154 l 225 1268 q 201 1314 201 1286 z "},"ě":{"ha":658,"x_min":51,"x_max":617,"o":"m 51 265 l 51 397 q 136 587 51 507 q 340 667 221 667 q 535 594 454 667 q 617 410 617 521 q 607 342 617 368 q 576 306 597 317 q 538 293 556 296 q 490 290 519 290 l 197 290 l 197 258 q 247 148 197 189 q 378 107 297 107 q 485 133 435 107 q 547 160 536 160 q 588 138 571 160 q 604 94 604 115 q 538 24 604 60 q 374 -11 471 -11 q 142 65 232 -11 q 51 265 51 142 m 147 971 q 157 1003 147 989 q 181 1017 167 1017 q 199 1008 190 1017 l 339 904 l 481 1008 q 499 1017 489 1017 q 522 1003 513 1017 q 532 971 532 989 q 507 925 532 942 l 365 821 q 339 811 350 811 q 314 821 328 811 l 171 925 q 147 971 147 943 m 197 381 l 428 381 q 469 389 458 381 q 479 422 479 397 q 439 517 479 478 q 339 556 399 556 q 239 519 281 556 q 197 425 197 482 l 197 381 z "},"Ĝ":{"ha":772,"x_min":82,"x_max":706,"o":"m 82 301 l 82 706 q 167 940 82 865 q 389 1015 251 1015 q 617 945 529 1015 q 706 758 706 875 q 688 703 706 718 q 632 688 671 688 q 558 736 560 688 q 393 885 543 885 q 229 706 229 885 l 229 301 q 393 122 229 122 q 515 167 472 122 q 558 301 558 211 l 558 415 l 418 415 q 383 433 396 415 q 371 475 371 450 q 383 515 371 497 q 418 533 396 533 l 657 533 q 692 519 679 533 q 706 483 706 504 l 706 301 q 620 67 706 142 q 393 -8 535 -8 q 167 67 251 -8 q 82 301 82 142 m 188 1200 q 213 1243 188 1229 l 357 1321 q 381 1328 371 1328 q 404 1321 393 1328 l 549 1244 q 575 1199 575 1228 q 565 1166 575 1181 q 539 1151 554 1151 q 531 1153 536 1151 q 525 1156 528 1156 l 381 1233 l 236 1156 q 224 1151 231 1151 q 198 1166 208 1151 q 188 1200 188 1181 z "},"ĝ":{"ha":643,"x_min":26,"x_max":625,"o":"m 26 -121 q 133 28 26 -24 q 68 119 68 56 q 138 225 68 181 q 56 400 56 289 l 56 439 q 127 603 56 539 q 314 667 199 667 q 475 619 411 667 q 565 713 515 713 q 608 697 592 713 q 625 663 625 681 q 601 628 625 640 q 532 572 557 608 q 576 439 576 517 l 576 400 q 503 235 576 300 q 314 169 429 169 q 218 186 260 169 q 192 147 192 168 q 235 107 192 119 q 341 88 279 94 q 465 67 403 81 q 570 11 526 54 q 614 -103 614 -32 q 531 -260 614 -207 q 322 -312 449 -312 q 111 -260 196 -312 q 26 -121 26 -208 m 131 857 q 156 900 131 886 l 300 978 q 324 985 314 985 q 347 978 336 985 l 492 901 q 518 856 518 885 q 508 823 518 838 q 482 808 497 808 q 474 810 479 808 q 468 813 471 813 l 324 890 l 179 813 q 167 808 172 808 q 141 823 151 808 q 131 857 131 838 m 164 -106 q 208 -185 164 -156 q 321 -215 251 -215 q 431 -186 389 -215 q 472 -107 472 -157 q 453 -53 472 -75 q 395 -22 433 -32 q 330 -8 357 -11 q 257 -1 303 -4 q 164 -106 164 -36 m 197 401 q 229 301 197 340 q 317 263 261 263 q 403 301 371 263 q 435 400 435 339 l 435 439 q 403 535 435 497 q 315 574 371 574 q 229 535 261 574 q 197 439 197 497 l 197 401 z "},"Ğ":{"ha":772,"x_min":82,"x_max":706,"o":"m 82 301 l 82 706 q 167 940 82 865 q 389 1015 251 1015 q 617 945 529 1015 q 706 758 706 875 q 688 703 706 718 q 632 688 671 688 q 558 736 560 688 q 393 885 543 885 q 229 706 229 885 l 229 301 q 393 122 229 122 q 515 167 472 122 q 558 301 558 211 l 558 415 l 418 415 q 383 433 396 415 q 371 475 371 450 q 383 515 371 497 q 418 533 396 533 l 657 533 q 692 519 679 533 q 706 483 706 504 l 706 301 q 620 67 706 142 q 393 -8 535 -8 q 167 67 251 -8 q 82 301 82 142 m 215 1340 l 299 1340 q 327 1265 299 1296 q 392 1233 356 1233 q 456 1265 428 1233 q 483 1340 483 1296 l 568 1340 q 514 1218 568 1271 q 392 1165 460 1165 q 269 1217 322 1165 q 215 1340 215 1269 z "},"ğ":{"ha":643,"x_min":26,"x_max":625,"o":"m 26 -121 q 133 28 26 -24 q 68 119 68 56 q 138 225 68 181 q 56 400 56 289 l 56 439 q 127 603 56 539 q 314 667 199 667 q 475 619 411 667 q 565 713 515 713 q 608 697 592 713 q 625 663 625 681 q 601 628 625 640 q 532 572 557 608 q 576 439 576 517 l 576 400 q 503 235 576 300 q 314 169 429 169 q 218 186 260 169 q 192 147 192 168 q 235 107 192 119 q 341 88 279 94 q 465 67 403 81 q 570 11 526 54 q 614 -103 614 -32 q 531 -260 614 -207 q 322 -312 449 -312 q 111 -260 196 -312 q 26 -121 26 -208 m 147 997 l 231 997 q 259 922 231 953 q 324 890 288 890 q 388 922 360 890 q 415 997 415 953 l 500 997 q 446 875 500 928 q 324 822 392 822 q 201 874 254 822 q 147 997 147 926 m 164 -106 q 208 -185 164 -156 q 321 -215 251 -215 q 431 -186 389 -215 q 472 -107 472 -157 q 453 -53 472 -75 q 395 -22 433 -32 q 330 -8 357 -11 q 257 -1 303 -4 q 164 -106 164 -36 m 197 401 q 229 301 197 340 q 317 263 261 263 q 403 301 371 263 q 435 400 435 339 l 435 439 q 403 535 435 497 q 315 574 371 574 q 229 535 261 574 q 197 439 197 497 l 197 401 z "},"Ġ":{"ha":772,"x_min":82,"x_max":706,"o":"m 82 301 l 82 706 q 167 940 82 865 q 389 1015 251 1015 q 617 945 529 1015 q 706 758 706 875 q 688 703 706 718 q 632 688 671 688 q 558 736 560 688 q 393 885 543 885 q 229 706 229 885 l 229 301 q 393 122 229 122 q 515 167 472 122 q 558 301 558 211 l 558 415 l 418 415 q 383 433 396 415 q 371 475 371 450 q 383 515 371 497 q 418 533 396 533 l 657 533 q 692 519 679 533 q 706 483 706 504 l 706 301 q 620 67 706 142 q 393 -8 535 -8 q 167 67 251 -8 q 82 301 82 142 m 344 1172 q 335 1182 344 1172 q 326 1218 326 1192 q 344 1263 326 1244 q 389 1282 363 1282 q 433 1263 415 1282 q 451 1218 451 1244 q 433 1172 451 1192 q 389 1153 415 1153 q 344 1172 363 1153 z "},"ġ":{"ha":643,"x_min":26,"x_max":625,"o":"m 26 -121 q 133 28 26 -24 q 68 119 68 56 q 138 225 68 181 q 56 400 56 289 l 56 439 q 127 603 56 539 q 314 667 199 667 q 475 619 411 667 q 565 713 515 713 q 608 697 592 713 q 625 663 625 681 q 601 628 625 640 q 532 572 557 608 q 576 439 576 517 l 576 400 q 503 235 576 300 q 314 169 429 169 q 218 186 260 169 q 192 147 192 168 q 235 107 192 119 q 341 88 279 94 q 465 67 403 81 q 570 11 526 54 q 614 -103 614 -32 q 531 -260 614 -207 q 322 -312 449 -312 q 111 -260 196 -312 q 26 -121 26 -208 m 164 -106 q 208 -185 164 -156 q 321 -215 251 -215 q 431 -186 389 -215 q 472 -107 472 -157 q 453 -53 472 -75 q 395 -22 433 -32 q 330 -8 357 -11 q 257 -1 303 -4 q 164 -106 164 -36 m 197 401 q 229 301 197 340 q 317 263 261 263 q 403 301 371 263 q 435 400 435 339 l 435 439 q 403 535 435 497 q 315 574 371 574 q 229 535 261 574 q 197 439 197 497 l 197 401 m 279 829 q 270 839 279 829 q 261 875 261 849 q 279 920 261 901 q 324 939 297 939 q 368 920 350 939 q 386 875 386 901 q 368 829 386 849 q 324 810 350 810 q 279 829 297 810 z "},"Ģ":{"ha":771,"x_min":81,"x_max":704,"o":"m 81 301 l 81 706 q 165 940 81 865 q 388 1015 250 1015 q 616 945 528 1015 q 704 758 704 875 q 687 703 704 718 q 631 688 669 688 q 557 736 558 688 q 392 885 542 885 q 228 706 228 885 l 228 301 q 392 122 228 122 q 514 167 471 122 q 557 301 557 211 l 557 415 l 417 415 q 382 433 394 415 q 369 475 369 450 q 382 515 369 497 q 417 533 394 533 l 656 533 q 691 519 678 533 q 704 483 704 504 l 704 301 q 619 67 704 142 q 392 -8 533 -8 q 165 67 250 -8 q 81 301 81 142 m 261 -193 q 282 -157 261 -168 l 454 -71 q 469 -67 463 -67 q 503 -85 489 -67 q 517 -124 517 -103 q 494 -162 517 -150 l 326 -246 q 310 -251 315 -251 q 276 -233 290 -251 q 261 -193 261 -215 z "},"ģ":{"ha":643,"x_min":26,"x_max":625,"o":"m 26 -121 q 133 28 26 -24 q 68 119 68 56 q 138 225 68 181 q 56 400 56 289 l 56 439 q 127 603 56 539 q 314 667 199 667 q 475 619 411 667 q 565 713 515 713 q 608 697 592 713 q 625 663 625 681 q 601 628 625 640 q 532 572 557 608 q 576 439 576 517 l 576 400 q 503 235 576 300 q 314 169 429 169 q 218 186 260 169 q 192 147 192 168 q 235 107 192 119 q 341 88 279 94 q 465 67 403 81 q 570 11 526 54 q 614 -103 614 -32 q 531 -260 614 -207 q 322 -312 449 -312 q 111 -260 196 -312 q 26 -121 26 -208 m 164 -106 q 208 -185 164 -156 q 321 -215 251 -215 q 431 -186 389 -215 q 472 -107 472 -157 q 453 -53 472 -75 q 395 -22 433 -32 q 330 -8 357 -11 q 257 -1 303 -4 q 164 -106 164 -36 m 197 401 q 229 301 197 340 q 317 263 261 263 q 403 301 371 263 q 435 400 435 339 l 435 439 q 403 535 435 497 q 315 574 371 574 q 229 535 261 574 q 197 439 197 497 l 197 401 m 208 858 q 229 894 208 883 l 401 982 q 417 985 413 985 q 450 967 436 985 q 464 928 464 949 q 442 890 464 900 l 274 806 q 257 801 265 801 q 223 819 238 801 q 208 858 208 838 m 242 1183 q 311 1368 242 1211 q 343 1389 318 1389 q 377 1378 361 1389 q 393 1349 393 1367 q 389 1332 393 1342 l 358 1258 q 407 1183 407 1238 q 383 1124 407 1149 q 324 1100 358 1100 q 266 1124 290 1100 q 242 1183 242 1149 z "},"Ĥ":{"ha":824,"x_min":92,"x_max":732,"o":"m 92 49 l 92 968 q 113 1003 92 992 q 165 1015 135 1015 q 217 1003 196 1015 q 239 968 239 992 l 239 585 l 585 585 l 585 968 q 606 1003 585 992 q 658 1015 628 1015 q 710 1003 689 1015 q 732 968 732 992 l 732 49 q 710 13 732 26 q 658 0 689 0 q 607 13 629 0 q 585 49 585 26 l 585 468 l 239 468 l 239 49 q 217 13 239 26 q 165 0 196 0 q 114 13 136 0 q 92 49 92 26 m 219 1200 q 244 1243 219 1229 l 389 1321 q 413 1328 403 1328 q 436 1321 425 1328 l 581 1244 q 607 1199 607 1228 q 597 1166 607 1181 q 571 1151 586 1151 q 563 1153 568 1151 q 557 1156 560 1156 l 413 1233 l 268 1156 q 256 1151 261 1151 q 230 1166 240 1151 q 219 1200 219 1181 z "},"ĥ":{"ha":714,"x_min":-46,"x_max":643,"o":"m -46 1211 q -21 1254 -46 1240 l 124 1332 q 147 1339 138 1339 q 171 1332 160 1339 l 315 1256 q 342 1210 342 1239 q 331 1177 342 1192 q 306 1163 321 1163 q 297 1164 303 1163 q 292 1167 294 1167 l 147 1244 l 3 1167 q -10 1163 -3 1163 q -35 1177 -25 1163 q -46 1211 -46 1192 m 78 49 l 78 1003 q 98 1037 78 1024 q 150 1050 118 1050 q 202 1037 181 1050 q 224 1003 224 1024 l 224 561 q 292 636 246 606 q 401 667 339 667 q 572 586 500 667 q 643 393 643 506 l 643 49 q 621 13 643 26 q 569 0 599 0 q 519 13 542 0 q 497 49 497 26 l 497 393 q 456 493 497 449 q 357 538 414 538 q 264 498 304 538 q 224 393 224 458 l 224 49 q 201 15 224 31 q 150 0 179 0 q 99 15 119 0 q 78 49 78 31 z "},"Ħ":{"ha":831,"x_min":26,"x_max":804,"o":"m 37 760 q 32 767 37 760 q 26 794 26 774 q 37 830 26 815 q 67 844 47 844 l 94 844 l 94 968 q 116 1003 94 992 q 168 1015 138 1015 q 220 1003 199 1015 q 242 968 242 992 l 242 844 l 588 844 l 588 968 q 609 1003 588 992 q 661 1015 631 1015 q 713 1003 692 1015 q 735 968 735 992 l 735 844 l 763 844 q 792 829 781 844 q 804 794 804 814 q 792 760 804 774 q 763 746 781 746 l 735 746 l 735 49 q 713 13 735 26 q 661 0 692 0 q 610 13 632 0 q 588 49 588 26 l 588 468 l 242 468 l 242 49 q 220 13 242 26 q 168 0 199 0 q 117 13 139 0 q 94 49 94 26 l 94 746 l 67 746 q 37 760 47 746 m 242 585 l 588 585 l 588 746 l 242 746 l 242 585 z "},"ħ":{"ha":714,"x_min":-8,"x_max":643,"o":"m 5 798 q -2 805 5 798 q -8 833 -8 811 q 5 870 -8 856 q 39 885 18 885 l 78 885 l 78 1003 q 98 1037 78 1024 q 150 1050 118 1050 q 202 1037 181 1050 q 224 1003 224 1024 l 224 885 l 329 885 q 363 869 349 885 q 378 833 378 854 q 363 799 378 813 q 329 785 349 785 l 224 785 l 224 561 q 292 636 246 606 q 401 667 339 667 q 572 586 500 667 q 643 393 643 506 l 643 49 q 621 13 643 26 q 569 0 599 0 q 519 13 542 0 q 497 49 497 26 l 497 393 q 456 493 497 449 q 357 538 414 538 q 264 498 304 538 q 224 393 224 458 l 224 49 q 201 15 224 31 q 150 0 179 0 q 99 15 119 0 q 78 49 78 31 l 78 785 l 39 785 q 5 798 18 785 z "},"Ĩ":{"ha":331,"x_min":-64,"x_max":394,"o":"m -64 1226 q -24 1294 -64 1274 q 57 1315 17 1315 q 153 1294 96 1315 q 249 1272 211 1272 q 314 1290 282 1272 q 356 1307 346 1307 q 385 1290 375 1307 q 394 1260 394 1274 q 356 1190 394 1210 q 276 1171 317 1171 q 175 1192 232 1171 q 83 1214 118 1214 q 17 1195 50 1214 q -25 1176 -15 1176 q -54 1194 -44 1176 q -64 1226 -64 1211 m 92 49 l 92 968 q 113 1003 92 992 q 165 1015 135 1015 q 217 1003 196 1015 q 239 968 239 992 l 239 49 q 217 13 239 26 q 165 0 196 0 q 114 13 136 0 q 92 49 92 26 z "},"ĩ":{"ha":299,"x_min":-79,"x_max":379,"o":"m -79 883 q -39 951 -79 931 q 42 972 1 972 q 138 951 81 972 q 233 929 196 929 q 299 947 267 929 q 340 964 331 964 q 369 947 360 964 q 379 917 379 931 q 340 847 379 867 q 261 828 301 828 q 160 849 217 828 q 68 871 103 871 q 2 852 35 871 q -40 833 -31 833 q -69 851 -60 833 q -79 883 -79 868 m 76 49 l 76 611 q 97 645 76 632 q 149 658 117 658 q 201 645 181 658 q 222 611 222 632 l 222 49 q 201 15 222 31 q 149 0 179 0 q 97 15 118 0 q 76 49 76 31 z "},"Ī":{"ha":331,"x_min":-28,"x_max":358,"o":"m -15 1217 q -21 1224 -15 1217 q -28 1253 -28 1231 q -15 1290 -28 1275 q 19 1304 -1 1304 l 310 1304 q 344 1289 329 1304 q 358 1253 358 1274 q 344 1218 358 1232 q 310 1204 329 1204 l 19 1204 q -15 1217 -1 1204 m 92 49 l 92 968 q 113 1003 92 992 q 165 1015 135 1015 q 217 1003 196 1015 q 239 968 239 992 l 239 49 q 217 13 239 26 q 165 0 196 0 q 114 13 136 0 q 92 49 92 26 z "},"ī":{"ha":299,"x_min":-43,"x_max":343,"o":"m -30 874 q -36 881 -30 874 q -43 910 -43 888 q -30 947 -43 932 q 4 961 -17 961 l 294 961 q 328 946 314 961 q 343 910 343 931 q 328 875 343 889 q 294 861 314 861 l 4 861 q -30 874 -17 861 m 76 49 l 76 611 q 97 645 76 632 q 149 658 117 658 q 201 645 181 658 q 222 611 222 632 l 222 49 q 201 15 222 31 q 149 0 179 0 q 97 15 118 0 q 76 49 76 31 z "},"Ĭ":{"ha":331,"x_min":-10,"x_max":343,"o":"m -10 1340 l 74 1340 q 102 1265 74 1296 q 167 1233 131 1233 q 231 1265 203 1233 q 258 1340 258 1296 l 343 1340 q 289 1218 343 1271 q 167 1165 235 1165 q 44 1217 97 1165 q -10 1340 -10 1269 m 92 49 l 92 968 q 113 1003 92 992 q 165 1015 135 1015 q 217 1003 196 1015 q 239 968 239 992 l 239 49 q 217 13 239 26 q 165 0 196 0 q 114 13 136 0 q 92 49 92 26 z "},"ĭ":{"ha":299,"x_min":-26,"x_max":326,"o":"m -26 997 l 57 997 q 85 922 57 953 q 150 890 114 890 q 214 922 186 890 q 242 997 242 953 l 326 997 q 272 875 326 928 q 150 822 218 822 q 27 874 81 822 q -26 997 -26 926 m 76 49 l 76 611 q 97 645 76 632 q 149 658 117 658 q 201 645 181 658 q 222 611 222 632 l 222 49 q 201 15 222 31 q 149 0 179 0 q 97 15 118 0 q 76 49 76 31 z "},"Į":{"ha":331,"x_min":29,"x_max":239,"o":"m 29 -169 q 119 10 29 -72 q 92 49 92 24 l 92 968 q 113 1003 92 992 q 165 1015 135 1015 q 217 1003 196 1015 q 239 968 239 992 l 239 49 q 206 7 239 19 q 106 -157 106 -68 q 189 -221 106 -221 q 219 -256 219 -221 q 181 -286 219 -286 q 70 -255 111 -286 q 29 -169 29 -224 z "},"į":{"ha":299,"x_min":8,"x_max":233,"o":"m 8 -171 q 101 11 8 -71 q 76 49 76 26 l 76 611 q 97 645 76 632 q 149 658 117 658 q 201 645 181 658 q 222 611 222 632 l 222 49 q 188 8 222 22 q 85 -158 85 -68 q 168 -222 85 -222 q 199 -257 199 -222 q 160 -287 199 -287 q 49 -256 90 -287 q 8 -171 8 -225 m 64 900 q 89 954 64 932 q 149 976 114 976 q 208 954 183 976 q 233 900 233 932 q 208 847 233 869 q 149 824 183 824 q 89 847 114 824 q 64 900 64 869 z "},"İ":{"ha":331,"x_min":92,"x_max":239,"o":"m 92 49 l 92 968 q 113 1003 92 992 q 165 1015 135 1015 q 217 1003 196 1015 q 239 968 239 992 l 239 49 q 217 13 239 26 q 165 0 196 0 q 114 13 136 0 q 92 49 92 26 m 121 1172 q 112 1182 121 1172 q 103 1218 103 1192 q 121 1263 103 1244 q 165 1282 139 1282 q 210 1263 192 1282 q 228 1218 228 1244 q 210 1172 228 1192 q 165 1153 192 1153 q 121 1172 139 1153 z "},"ı":{"ha":299,"x_min":76,"x_max":222,"o":"m 76 49 l 76 611 q 97 645 76 632 q 149 658 117 658 q 201 645 181 658 q 222 611 222 632 l 222 49 q 201 15 222 31 q 149 0 179 0 q 97 15 118 0 q 76 49 76 31 z "},"Ĳ":{"ha":1056,"x_min":92,"x_max":968,"o":"m 92 49 l 92 968 q 113 1003 92 992 q 165 1015 135 1015 q 217 1003 196 1015 q 239 968 239 992 l 239 49 q 217 13 239 26 q 165 0 196 0 q 114 13 136 0 q 92 49 92 26 m 343 257 q 361 313 343 297 q 418 328 379 328 q 490 279 489 328 q 533 167 493 211 q 654 122 574 122 q 821 301 821 122 l 821 885 l 658 885 q 623 904 636 885 q 610 951 610 924 q 622 997 610 978 q 658 1015 635 1015 l 903 1015 q 949 1002 929 1015 q 968 967 968 989 l 968 301 q 883 67 968 142 q 660 -8 799 -8 q 431 65 519 -8 q 343 257 343 138 z "},"ĳ":{"ha":575,"x_min":64,"x_max":510,"o":"m 64 900 q 89 954 64 932 q 149 976 114 976 q 208 954 183 976 q 233 900 233 932 q 208 847 233 869 q 149 824 183 824 q 89 847 114 824 q 64 900 64 869 m 76 49 l 76 611 q 97 645 76 632 q 149 658 117 658 q 201 645 181 658 q 222 611 222 632 l 222 49 q 201 15 222 31 q 149 0 179 0 q 97 15 118 0 q 76 49 76 31 m 224 -251 q 240 -206 224 -224 q 281 -187 257 -187 q 339 -153 325 -187 q 353 -50 353 -119 l 353 611 q 373 645 353 632 q 425 658 393 658 q 478 645 457 658 q 499 611 499 632 l 499 -50 q 449 -242 499 -171 q 300 -312 399 -312 q 224 -251 224 -312 m 340 900 q 365 954 340 932 q 425 976 390 976 q 485 954 460 976 q 510 900 510 932 q 485 847 510 869 q 425 824 460 824 q 365 847 390 824 q 340 900 340 869 z "},"Ĵ":{"ha":736,"x_min":24,"x_max":649,"o":"m 24 257 q 42 313 24 297 q 99 328 60 328 q 171 279 169 328 q 214 167 174 211 q 335 122 254 122 q 501 301 501 122 l 501 885 l 339 885 q 303 904 317 885 q 290 951 290 924 q 303 997 290 978 q 339 1015 315 1015 l 583 1015 q 629 1002 610 1015 q 649 967 649 989 l 649 301 q 564 67 649 142 q 340 -8 479 -8 q 112 65 200 -8 q 24 257 24 138 m 176 1200 q 201 1243 176 1229 l 346 1321 q 369 1328 360 1328 q 393 1321 382 1328 l 538 1244 q 564 1199 564 1228 q 553 1166 564 1181 q 528 1151 543 1151 q 519 1153 525 1151 q 514 1156 517 1156 l 369 1233 l 225 1156 q 213 1151 219 1151 q 187 1166 197 1151 q 176 1200 176 1181 z "},"ĵ":{"ha":299,"x_min":-53,"x_max":344,"o":"m -53 -251 q -36 -206 -53 -224 q 4 -187 -19 -187 q 63 -153 49 -187 q 76 -50 76 -119 l 76 611 q 97 645 76 632 q 149 658 117 658 q 201 645 181 658 q 222 611 222 632 l 222 -50 q 172 -242 222 -171 q 24 -312 122 -312 q -53 -251 -53 -312 m -43 857 q -18 900 -43 886 l 126 978 q 150 985 140 985 q 174 978 163 985 l 318 901 q 344 856 344 885 q 334 823 344 838 q 308 808 324 808 q 300 810 306 808 q 294 813 297 813 l 150 890 l 6 813 q -7 808 0 808 q -33 823 -22 808 q -43 857 -43 838 z "},"Ķ":{"ha":751,"x_min":92,"x_max":751,"o":"m 92 49 l 92 968 q 113 1003 92 992 q 165 1015 135 1015 q 217 1003 196 1015 q 239 968 239 992 l 239 546 l 578 994 q 619 1015 592 1015 q 676 991 649 1015 q 704 939 704 967 q 693 910 704 922 l 426 576 l 743 94 q 751 68 751 82 q 724 19 751 42 q 665 -4 697 -4 q 613 24 631 -4 l 329 453 l 239 339 l 239 49 q 217 13 239 26 q 165 0 196 0 q 114 13 136 0 q 92 49 92 26 m 251 -193 q 272 -157 251 -168 l 444 -71 q 460 -67 453 -67 q 493 -85 479 -67 q 507 -124 507 -103 q 485 -162 507 -150 l 317 -246 q 300 -251 306 -251 q 266 -233 281 -251 q 251 -193 251 -215 z "},"ķ":{"ha":667,"x_min":78,"x_max":650,"o":"m 78 49 l 78 1003 q 97 1037 78 1024 q 149 1050 117 1050 q 202 1037 181 1050 q 224 1003 224 1024 l 224 385 l 514 651 q 544 664 526 664 q 592 642 568 664 q 615 594 615 619 q 603 564 615 576 l 424 404 l 642 90 q 650 65 650 78 q 622 16 650 40 q 568 -8 594 -8 q 529 13 544 -8 l 325 314 l 224 222 l 224 49 q 201 15 224 31 q 149 0 179 0 q 98 15 118 0 q 78 49 78 31 m 204 -193 q 225 -157 204 -168 l 397 -71 q 413 -67 406 -67 q 446 -85 432 -67 q 460 -124 460 -103 q 438 -162 460 -150 l 269 -246 q 253 -251 258 -251 q 219 -233 233 -251 q 204 -193 204 -215 z "},"ĸ":{"ha":665,"x_min":76,"x_max":649,"o":"m 76 49 l 76 611 q 97 645 76 632 q 147 658 117 658 q 201 645 179 658 q 222 611 222 632 l 222 385 l 513 651 q 543 664 525 664 q 590 642 567 664 q 614 594 614 619 q 601 564 614 576 l 422 404 l 640 90 q 649 65 649 78 q 621 16 649 40 q 567 -8 593 -8 q 528 13 542 -8 l 324 314 l 222 222 l 222 49 q 200 15 222 31 q 147 0 178 0 q 97 15 117 0 q 76 49 76 31 z "},"Ĺ":{"ha":663,"x_min":92,"x_max":644,"o":"m 92 49 l 92 968 q 113 1003 92 992 q 165 1015 135 1015 q 217 1003 196 1015 q 239 968 239 992 l 239 131 l 600 131 q 633 111 621 131 q 644 65 644 92 q 633 19 644 39 q 600 0 621 0 l 157 0 q 111 13 131 0 q 92 49 92 26 m 231 1201 q 251 1238 231 1226 l 424 1325 q 439 1328 435 1328 q 472 1310 458 1328 q 486 1271 486 1292 q 464 1233 486 1243 l 296 1149 q 279 1144 288 1144 q 245 1163 260 1144 q 231 1201 231 1181 z "},"ĺ":{"ha":324,"x_min":57,"x_max":313,"o":"m 57 1167 q 78 1203 57 1192 l 250 1290 q 265 1293 261 1293 q 299 1275 285 1293 q 313 1236 313 1257 q 290 1199 313 1208 l 122 1114 q 106 1110 114 1110 q 72 1128 86 1110 q 57 1167 57 1146 m 89 49 l 89 1003 q 109 1037 89 1024 q 161 1050 129 1050 q 213 1037 192 1050 q 235 1003 235 1024 l 235 49 q 213 15 235 31 q 161 0 190 0 q 110 15 131 0 q 89 49 89 31 z "},"Ļ":{"ha":663,"x_min":92,"x_max":644,"o":"m 92 49 l 92 968 q 113 1003 92 992 q 165 1015 135 1015 q 217 1003 196 1015 q 239 968 239 992 l 239 131 l 600 131 q 633 111 621 131 q 644 65 644 92 q 633 19 644 39 q 600 0 621 0 l 157 0 q 111 13 131 0 q 92 49 92 26 m 229 -193 q 250 -157 229 -168 l 422 -71 q 438 -67 431 -67 q 471 -85 457 -67 q 485 -124 485 -103 q 463 -162 485 -150 l 294 -246 q 278 -251 283 -251 q 244 -233 258 -251 q 229 -193 229 -215 z "},"ļ":{"ha":324,"x_min":35,"x_max":290,"o":"m 35 -193 q 56 -157 35 -168 l 228 -71 q 243 -67 236 -67 q 276 -85 263 -67 q 290 -124 290 -103 q 268 -162 290 -150 l 100 -246 q 83 -251 89 -251 q 49 -233 64 -251 q 35 -193 35 -215 m 89 49 l 89 1003 q 109 1037 89 1024 q 161 1050 129 1050 q 213 1037 192 1050 q 235 1003 235 1024 l 235 49 q 213 15 235 31 q 161 0 190 0 q 110 15 131 0 q 89 49 89 31 z "},"Ľ":{"ha":663,"x_min":92,"x_max":644,"o":"m 92 49 l 92 968 q 113 1003 92 992 q 165 1015 135 1015 q 217 1003 196 1015 q 239 968 239 992 l 239 131 l 600 131 q 633 111 621 131 q 644 65 644 92 q 633 19 644 39 q 600 0 621 0 l 157 0 q 111 13 131 0 q 92 49 92 26 m 421 946 q 444 1005 421 981 q 503 1029 468 1029 q 562 1005 538 1029 q 586 947 586 981 q 517 761 586 918 q 485 740 507 740 q 451 751 467 740 q 435 781 435 763 q 438 797 435 792 l 469 871 q 421 946 421 894 z "},"ľ":{"ha":324,"x_min":89,"x_max":479,"o":"m 89 49 l 89 1003 q 109 1037 89 1024 q 161 1050 129 1050 q 213 1037 192 1050 q 235 1003 235 1024 l 235 49 q 213 15 235 31 q 161 0 190 0 q 110 15 131 0 q 89 49 89 31 m 314 946 q 338 1005 314 981 q 396 1029 361 1029 q 455 1005 431 1029 q 479 947 479 981 q 410 761 479 918 q 378 740 400 740 q 344 751 360 740 q 328 781 328 763 q 331 797 328 792 l 363 871 q 314 946 314 894 z "},"Ŀ":{"ha":663,"x_min":92,"x_max":644,"o":"m 92 49 l 92 968 q 113 1003 92 992 q 165 1015 135 1015 q 217 1003 196 1015 q 239 968 239 992 l 239 131 l 600 131 q 633 111 621 131 q 644 65 644 92 q 633 19 644 39 q 600 0 621 0 l 157 0 q 111 13 131 0 q 92 49 92 26 m 433 529 q 421 541 433 529 q 408 585 408 553 q 433 640 408 617 q 496 663 458 663 q 556 640 531 663 q 582 585 582 617 q 556 529 582 553 q 496 506 531 506 q 433 529 458 506 z "},"ŀ":{"ha":486,"x_min":89,"x_max":481,"o":"m 89 49 l 89 1003 q 109 1037 89 1024 q 161 1050 129 1050 q 213 1037 192 1050 q 235 1003 235 1024 l 235 49 q 213 15 235 31 q 161 0 190 0 q 110 15 131 0 q 89 49 89 31 m 332 361 q 319 373 332 361 q 307 417 307 385 q 332 472 307 449 q 394 494 357 494 q 455 472 429 494 q 481 417 481 449 q 455 361 481 385 q 394 338 429 338 q 332 361 357 338 z "},"Ł":{"ha":671,"x_min":-4,"x_max":653,"o":"m -4 422 q 15 458 -4 449 l 100 501 l 100 968 q 122 1003 100 992 q 174 1015 143 1015 q 226 1003 204 1015 q 247 968 247 992 l 247 576 l 350 629 q 365 632 356 632 q 403 610 386 632 q 419 567 419 589 q 399 531 419 542 l 247 453 l 247 131 l 608 131 q 641 111 629 131 q 653 65 653 92 q 641 19 653 39 q 608 0 629 0 l 165 0 q 119 13 139 0 q 100 49 100 26 l 100 378 l 64 360 q 47 356 56 356 q 12 376 28 356 q -4 422 -4 397 z "},"ł":{"ha":438,"x_min":18,"x_max":421,"o":"m 18 422 q 38 458 18 449 l 142 511 l 142 1003 q 162 1037 142 1024 q 214 1050 182 1050 q 266 1037 244 1050 q 288 1003 288 1024 l 288 586 l 351 619 q 367 622 357 622 q 404 601 388 622 q 421 557 421 579 q 400 521 421 532 l 288 463 l 288 49 q 265 15 288 31 q 214 0 243 0 q 163 15 183 0 q 142 49 142 31 l 142 388 l 86 360 q 69 356 78 356 q 34 376 50 356 q 18 422 18 397 z "},"Ń":{"ha":824,"x_min":92,"x_max":732,"o":"m 92 49 l 92 967 q 165 1015 92 1015 q 228 998 204 1015 q 276 932 251 981 l 585 331 l 585 968 q 606 1003 585 992 q 658 1015 628 1015 q 710 1003 689 1015 q 732 968 732 992 l 732 49 q 710 13 732 26 q 658 0 689 0 q 571 54 600 0 l 239 686 l 239 49 q 217 13 239 26 q 165 0 196 0 q 114 13 136 0 q 92 49 92 26 m 272 1201 q 293 1238 272 1226 l 465 1325 q 481 1328 476 1328 q 514 1310 500 1328 q 528 1271 528 1292 q 506 1233 528 1243 l 338 1149 q 321 1144 329 1144 q 287 1163 301 1144 q 272 1201 272 1181 z "},"ń":{"ha":713,"x_min":76,"x_max":642,"o":"m 76 49 l 76 611 q 97 645 76 632 q 149 658 117 658 q 195 645 176 658 q 214 611 214 632 l 214 561 q 285 636 236 606 q 400 667 335 667 q 570 586 499 667 q 642 393 642 506 l 642 49 q 620 13 642 26 q 568 0 599 0 q 518 13 540 0 q 496 49 496 26 l 496 393 q 454 493 496 449 q 356 538 413 538 q 263 498 303 538 q 222 393 222 458 l 222 49 q 200 15 222 31 q 149 0 178 0 q 97 15 118 0 q 76 49 76 31 m 233 858 q 254 894 233 883 l 426 982 q 442 985 438 985 q 475 967 461 985 q 489 928 489 949 q 467 890 489 900 l 299 806 q 282 801 290 801 q 248 819 263 801 q 233 858 233 838 z "},"Ņ":{"ha":824,"x_min":92,"x_max":732,"o":"m 92 49 l 92 967 q 165 1015 92 1015 q 228 998 204 1015 q 276 932 251 981 l 585 331 l 585 968 q 606 1003 585 992 q 658 1015 628 1015 q 710 1003 689 1015 q 732 968 732 992 l 732 49 q 710 13 732 26 q 658 0 689 0 q 571 54 600 0 l 239 686 l 239 49 q 217 13 239 26 q 165 0 196 0 q 114 13 136 0 q 92 49 92 26 m 282 -193 q 303 -157 282 -168 l 475 -71 q 490 -67 483 -67 q 524 -85 510 -67 q 538 -124 538 -103 q 515 -162 538 -150 l 347 -246 q 331 -251 336 -251 q 297 -233 311 -251 q 282 -193 282 -215 z "},"ņ":{"ha":713,"x_min":76,"x_max":642,"o":"m 76 49 l 76 611 q 97 645 76 632 q 149 658 117 658 q 195 645 176 658 q 214 611 214 632 l 214 561 q 285 636 236 606 q 400 667 335 667 q 570 586 499 667 q 642 393 642 506 l 642 49 q 620 13 642 26 q 568 0 599 0 q 518 13 540 0 q 496 49 496 26 l 496 393 q 454 493 496 449 q 356 538 413 538 q 263 498 303 538 q 222 393 222 458 l 222 49 q 200 15 222 31 q 149 0 178 0 q 97 15 118 0 q 76 49 76 31 m 222 -193 q 243 -157 222 -168 l 415 -71 q 431 -67 424 -67 q 464 -85 450 -67 q 478 -124 478 -103 q 456 -162 478 -150 l 288 -246 q 271 -251 276 -251 q 237 -233 251 -251 q 222 -193 222 -215 z "},"Ň":{"ha":824,"x_min":92,"x_max":732,"o":"m 92 49 l 92 967 q 165 1015 92 1015 q 228 998 204 1015 q 276 932 251 981 l 585 331 l 585 968 q 606 1003 585 992 q 658 1015 628 1015 q 710 1003 689 1015 q 732 968 732 992 l 732 49 q 710 13 732 26 q 658 0 689 0 q 571 54 600 0 l 239 686 l 239 49 q 217 13 239 26 q 165 0 196 0 q 114 13 136 0 q 92 49 92 26 m 219 1314 q 229 1346 219 1332 q 253 1360 239 1360 q 271 1351 263 1360 l 411 1247 l 553 1351 q 571 1360 561 1360 q 594 1346 585 1360 q 604 1314 604 1332 q 579 1268 604 1285 l 438 1164 q 411 1154 422 1154 q 386 1164 400 1154 l 243 1268 q 219 1314 219 1286 z "},"ň":{"ha":713,"x_min":76,"x_max":642,"o":"m 76 49 l 76 611 q 97 645 76 632 q 149 658 117 658 q 195 645 176 658 q 214 611 214 632 l 214 561 q 285 636 236 606 q 400 667 335 667 q 570 586 499 667 q 642 393 642 506 l 642 49 q 620 13 642 26 q 568 0 599 0 q 518 13 540 0 q 496 49 496 26 l 496 393 q 454 493 496 449 q 356 538 413 538 q 263 498 303 538 q 222 393 222 458 l 222 49 q 200 15 222 31 q 149 0 178 0 q 97 15 118 0 q 76 49 76 31 m 158 971 q 168 1003 158 989 q 192 1017 178 1017 q 210 1008 201 1017 l 350 904 l 492 1008 q 510 1017 500 1017 q 533 1003 524 1017 q 543 971 543 989 q 518 925 543 942 l 376 821 q 350 811 361 811 q 325 821 339 811 l 182 925 q 158 971 158 943 z "},"Ŋ":{"ha":825,"x_min":92,"x_max":732,"o":"m 92 49 l 92 967 q 165 1015 92 1015 q 228 998 204 1015 q 276 932 251 981 l 585 331 l 585 968 q 606 1003 585 992 q 658 1015 628 1015 q 710 1003 689 1015 q 732 968 732 992 l 732 -50 q 681 -242 732 -171 q 532 -312 631 -312 q 457 -251 457 -312 q 473 -205 457 -222 q 514 -187 489 -187 q 572 -153 557 -187 q 586 -50 586 -118 l 586 7 q 571 54 586 29 l 239 686 l 239 49 q 217 13 239 26 q 165 0 196 0 q 114 13 136 0 q 92 49 92 26 z "},"ŋ":{"ha":714,"x_min":76,"x_max":642,"o":"m 76 49 l 76 611 q 97 645 76 632 q 149 658 117 658 q 195 645 176 658 q 214 611 214 632 l 214 561 q 285 636 236 606 q 400 667 335 667 q 570 586 499 667 q 642 393 642 506 l 642 -50 q 591 -242 642 -171 q 443 -312 540 -312 q 367 -251 367 -312 q 383 -205 367 -222 q 424 -187 399 -187 q 482 -153 468 -187 q 496 -50 496 -119 l 496 393 q 454 493 496 449 q 356 538 413 538 q 263 498 303 538 q 222 393 222 458 l 222 49 q 200 15 222 31 q 149 0 178 0 q 97 15 118 0 q 76 49 76 31 z "},"Ō":{"ha":786,"x_min":82,"x_max":706,"o":"m 82 301 l 82 706 q 167 940 82 865 q 393 1015 251 1015 q 620 940 535 1015 q 706 706 706 865 l 706 301 q 620 67 706 142 q 393 -8 535 -8 q 167 67 251 -8 q 82 301 82 142 m 213 1217 q 207 1224 213 1217 q 200 1253 200 1231 q 213 1290 200 1275 q 247 1304 226 1304 l 538 1304 q 572 1289 557 1304 q 586 1253 586 1274 q 572 1218 586 1232 q 538 1204 557 1204 l 247 1204 q 213 1217 226 1204 m 229 301 q 393 122 229 122 q 515 167 472 122 q 558 301 558 211 l 558 706 q 515 840 558 796 q 393 885 472 885 q 229 706 229 885 l 229 301 z "},"ō":{"ha":676,"x_min":50,"x_max":625,"o":"m 50 265 l 50 393 q 135 585 50 503 q 338 667 219 667 q 539 585 453 667 q 625 393 625 504 l 625 265 q 538 73 625 157 q 338 -11 451 -11 q 136 72 222 -11 q 50 265 50 156 m 158 874 q 151 881 158 874 q 144 910 144 888 q 158 947 144 932 q 192 961 171 961 l 482 961 q 516 946 501 961 q 531 910 531 931 q 516 875 531 889 q 482 861 501 861 l 192 861 q 158 874 171 861 m 196 265 q 238 163 196 208 q 338 118 279 118 q 437 163 394 118 q 479 265 479 208 l 479 393 q 437 493 479 449 q 338 538 394 538 q 238 493 279 538 q 196 393 196 449 l 196 265 z "},"Ŏ":{"ha":786,"x_min":82,"x_max":706,"o":"m 82 301 l 82 706 q 167 940 82 865 q 393 1015 251 1015 q 620 940 535 1015 q 706 706 706 865 l 706 301 q 620 67 706 142 q 393 -8 535 -8 q 167 67 251 -8 q 82 301 82 142 m 217 1340 l 300 1340 q 328 1265 300 1296 q 393 1233 357 1233 q 457 1265 429 1233 q 485 1340 485 1296 l 569 1340 q 515 1218 569 1271 q 393 1165 461 1165 q 270 1217 324 1165 q 217 1340 217 1269 m 229 301 q 393 122 229 122 q 515 167 472 122 q 558 301 558 211 l 558 706 q 515 840 558 796 q 393 885 472 885 q 229 706 229 885 l 229 301 z "},"ŏ":{"ha":676,"x_min":50,"x_max":625,"o":"m 50 265 l 50 393 q 135 585 50 503 q 338 667 219 667 q 539 585 453 667 q 625 393 625 504 l 625 265 q 538 73 625 157 q 338 -11 451 -11 q 136 72 222 -11 q 50 265 50 156 m 163 997 l 246 997 q 274 922 246 953 q 339 890 303 890 q 403 922 375 890 q 431 997 431 953 l 515 997 q 461 875 515 928 q 339 822 407 822 q 216 874 269 822 q 163 997 163 926 m 196 265 q 238 163 196 208 q 338 118 279 118 q 437 163 394 118 q 479 265 479 208 l 479 393 q 437 493 479 449 q 338 538 394 538 q 238 493 279 538 q 196 393 196 449 l 196 265 z "},"Ő":{"ha":786,"x_min":82,"x_max":706,"o":"m 82 301 l 82 706 q 167 940 82 865 q 393 1015 251 1015 q 620 940 535 1015 q 706 706 706 865 l 706 301 q 620 67 706 142 q 393 -8 535 -8 q 167 67 251 -8 q 82 301 82 142 m 229 301 q 393 122 229 122 q 515 167 472 122 q 558 301 558 211 l 558 706 q 515 840 558 796 q 393 885 472 885 q 229 706 229 885 l 229 301 m 231 1188 q 240 1208 231 1200 l 364 1321 q 386 1329 371 1329 q 417 1315 403 1329 q 431 1285 431 1300 q 419 1260 431 1269 l 301 1151 q 279 1142 292 1142 q 246 1156 261 1142 q 231 1188 231 1171 m 446 1188 q 456 1208 446 1200 l 579 1321 q 600 1329 586 1329 q 631 1315 617 1329 q 646 1285 646 1300 q 635 1260 646 1271 l 515 1151 q 493 1142 507 1142 q 460 1156 475 1142 q 446 1188 446 1171 z "},"ő":{"ha":676,"x_min":50,"x_max":625,"o":"m 50 265 l 50 393 q 135 585 50 503 q 338 667 219 667 q 539 585 453 667 q 625 393 625 504 l 625 265 q 538 73 625 157 q 338 -11 451 -11 q 136 72 222 -11 q 50 265 50 156 m 171 846 q 181 867 171 858 l 304 979 q 326 988 311 988 q 357 973 343 988 q 371 943 371 958 q 360 918 371 928 l 242 810 q 219 800 232 800 q 186 815 201 800 q 171 846 171 829 m 196 265 q 238 163 196 208 q 338 118 279 118 q 437 163 394 118 q 479 265 479 208 l 479 393 q 437 493 479 449 q 338 538 394 538 q 238 493 279 538 q 196 393 196 449 l 196 265 m 386 846 q 396 867 386 858 l 519 979 q 540 988 526 988 q 572 973 558 988 q 586 943 586 958 q 575 918 586 929 l 456 810 q 433 800 447 800 q 401 815 415 800 q 386 846 386 829 z "},"Œ":{"ha":1160,"x_min":83,"x_max":1133,"o":"m 83 301 l 83 706 q 160 941 83 867 q 369 1015 238 1015 q 491 990 435 1015 q 578 914 547 964 l 578 967 q 597 1002 578 989 q 643 1015 617 1015 l 1086 1015 q 1122 997 1110 1015 q 1133 951 1133 978 q 1121 904 1133 924 q 1086 885 1108 885 l 707 885 l 707 567 l 888 567 q 922 549 910 567 q 935 507 935 532 q 923 467 935 485 q 888 450 911 450 l 707 450 l 707 131 l 1086 131 q 1121 111 1108 131 q 1133 64 1133 92 q 1122 19 1133 38 q 1086 0 1110 0 l 643 0 q 597 13 617 0 q 578 49 578 26 l 578 93 q 491 17 547 43 q 369 -8 435 -8 q 160 66 238 -8 q 83 301 83 140 m 231 301 q 394 122 231 122 q 517 167 474 122 q 560 301 560 211 l 560 706 q 517 840 560 796 q 394 885 474 885 q 231 706 231 885 l 231 301 z "},"œ":{"ha":1086,"x_min":50,"x_max":1044,"o":"m 50 265 l 50 393 q 135 585 50 503 q 338 667 219 667 q 461 635 403 667 q 557 549 519 603 q 650 635 594 603 q 768 667 706 667 q 963 593 881 667 q 1044 410 1044 519 q 1035 342 1044 368 q 1004 306 1025 317 q 966 293 983 296 q 918 290 949 290 l 625 290 l 625 258 q 675 148 625 189 q 807 107 725 107 q 912 133 863 107 q 974 160 961 160 q 1014 138 997 160 q 1031 93 1031 117 q 963 24 1031 58 q 800 -11 896 -11 q 557 107 639 -11 q 460 21 518 53 q 338 -11 403 -11 q 136 72 222 -11 q 50 265 50 156 m 196 265 q 238 163 196 208 q 338 118 279 118 q 437 163 394 118 q 479 265 479 208 l 479 393 q 437 493 479 449 q 338 538 394 538 q 238 493 279 538 q 196 393 196 449 l 196 265 m 625 381 l 856 381 q 896 389 885 381 q 907 422 907 397 q 866 517 907 478 q 765 556 825 556 q 667 519 708 556 q 625 428 625 483 l 625 381 z "},"Ŕ":{"ha":776,"x_min":92,"x_max":728,"o":"m 92 49 l 92 968 q 106 1001 92 988 q 140 1015 119 1015 l 404 1015 q 724 732 724 1015 q 671 547 724 614 q 528 457 618 479 l 722 92 q 728 71 728 82 q 699 19 728 43 q 639 -4 671 -4 q 581 39 603 -4 l 378 436 l 238 436 l 238 49 q 216 13 238 26 q 164 0 194 0 q 113 13 135 0 q 92 49 92 26 m 238 554 l 404 554 q 576 719 576 554 q 404 885 576 885 l 238 885 l 238 554 m 299 1201 q 319 1238 299 1226 l 492 1325 q 507 1328 503 1328 q 540 1310 526 1328 q 554 1271 554 1292 q 532 1233 554 1243 l 364 1149 q 347 1144 356 1144 q 313 1163 328 1144 q 299 1201 299 1181 z "},"ŕ":{"ha":500,"x_min":76,"x_max":490,"o":"m 76 49 l 76 611 q 97 645 76 632 q 147 658 117 658 q 194 645 175 658 q 214 611 214 632 l 214 550 q 285 633 238 599 q 390 667 333 667 l 435 667 q 474 648 457 667 q 490 603 490 629 q 474 557 490 576 q 435 538 457 538 l 390 538 q 273 481 324 538 q 222 333 222 424 l 222 49 q 200 15 222 31 q 147 0 178 0 q 97 15 117 0 q 76 49 76 31 m 139 858 q 160 894 139 883 l 332 982 q 347 985 343 985 q 381 967 367 985 q 394 928 394 949 q 372 890 394 900 l 204 806 q 188 801 196 801 q 153 819 168 801 q 139 858 139 838 z "},"Ŗ":{"ha":776,"x_min":92,"x_max":728,"o":"m 92 49 l 92 968 q 106 1001 92 988 q 140 1015 119 1015 l 404 1015 q 724 732 724 1015 q 671 547 724 614 q 528 457 618 479 l 722 92 q 728 71 728 82 q 699 19 728 43 q 639 -4 671 -4 q 581 39 603 -4 l 378 436 l 238 436 l 238 49 q 216 13 238 26 q 164 0 194 0 q 113 13 135 0 q 92 49 92 26 m 238 554 l 404 554 q 576 719 576 554 q 404 885 576 885 l 238 885 l 238 554 m 249 -193 q 269 -157 249 -168 l 442 -71 q 457 -67 450 -67 q 490 -85 476 -67 q 504 -124 504 -103 q 482 -162 504 -150 l 314 -246 q 297 -251 303 -251 q 263 -233 278 -251 q 249 -193 249 -215 z "},"ŗ":{"ha":500,"x_min":6,"x_max":490,"o":"m 6 -193 q 26 -157 6 -168 l 199 -71 q 214 -67 207 -67 q 247 -85 233 -67 q 261 -124 261 -103 q 239 -162 261 -150 l 71 -246 q 54 -251 60 -251 q 20 -233 35 -251 q 6 -193 6 -215 m 76 49 l 76 611 q 97 645 76 632 q 147 658 117 658 q 194 645 175 658 q 214 611 214 632 l 214 550 q 285 633 238 599 q 390 667 333 667 l 435 667 q 474 648 457 667 q 490 603 490 629 q 474 557 490 576 q 435 538 457 538 l 390 538 q 273 481 324 538 q 222 333 222 424 l 222 49 q 200 15 222 31 q 147 0 178 0 q 97 15 117 0 q 76 49 76 31 z "},"Ř":{"ha":776,"x_min":92,"x_max":728,"o":"m 92 49 l 92 968 q 106 1001 92 988 q 140 1015 119 1015 l 404 1015 q 724 732 724 1015 q 671 547 724 614 q 528 457 618 479 l 722 92 q 728 71 728 82 q 699 19 728 43 q 639 -4 671 -4 q 581 39 603 -4 l 378 436 l 238 436 l 238 49 q 216 13 238 26 q 164 0 194 0 q 113 13 135 0 q 92 49 92 26 m 189 1314 q 199 1346 189 1332 q 222 1360 208 1360 q 240 1351 232 1360 l 381 1247 l 522 1351 q 540 1360 531 1360 q 564 1346 554 1360 q 574 1314 574 1332 q 549 1268 574 1285 l 407 1164 q 381 1154 392 1154 q 356 1164 369 1154 l 213 1268 q 189 1314 189 1286 m 238 554 l 404 554 q 576 719 576 554 q 404 885 576 885 l 238 885 l 238 554 z "},"ř":{"ha":500,"x_min":60,"x_max":490,"o":"m 60 971 q 69 1003 60 989 q 93 1017 79 1017 q 111 1008 103 1017 l 251 904 l 393 1008 q 411 1017 401 1017 q 435 1003 425 1017 q 444 971 444 989 q 419 925 444 942 l 278 821 q 251 811 264 811 q 226 821 242 811 l 83 925 q 60 971 60 943 m 76 49 l 76 611 q 97 645 76 632 q 147 658 117 658 q 194 645 175 658 q 214 611 214 632 l 214 550 q 285 633 238 599 q 390 667 333 667 l 435 667 q 474 648 457 667 q 490 603 490 629 q 474 557 490 576 q 435 538 457 538 l 390 538 q 273 481 324 538 q 222 333 222 424 l 222 49 q 200 15 222 31 q 147 0 178 0 q 97 15 117 0 q 76 49 76 31 z "},"Ś":{"ha":711,"x_min":40,"x_max":664,"o":"m 40 153 q 60 206 40 179 q 104 232 79 232 q 141 215 119 232 q 183 177 163 197 q 247 140 204 157 q 342 122 289 122 q 469 160 421 122 q 517 269 517 197 q 470 381 517 336 q 358 451 424 425 q 225 508 292 478 q 112 600 158 539 q 65 753 65 661 q 94 881 65 826 q 171 964 122 935 q 273 1006 219 993 q 386 1019 326 1019 q 465 1015 424 1019 q 546 999 506 1010 q 613 967 586 988 q 639 919 639 946 q 622 867 639 893 q 578 840 606 840 q 540 853 564 840 q 477 880 517 867 q 386 893 438 893 q 260 862 307 893 q 213 767 213 831 q 238 695 213 725 q 302 646 263 665 q 390 608 342 626 q 487 564 439 589 q 574 506 535 539 q 639 417 614 474 q 664 285 664 360 q 577 65 664 140 q 347 -11 490 -11 q 130 42 219 -11 q 40 153 40 96 m 243 1201 q 264 1238 243 1226 l 436 1325 q 451 1328 447 1328 q 485 1310 471 1328 q 499 1271 499 1292 q 476 1233 499 1243 l 308 1149 q 292 1144 300 1144 q 258 1163 272 1144 q 243 1201 243 1181 z "},"ś":{"ha":561,"x_min":38,"x_max":521,"o":"m 38 100 q 52 143 38 121 q 88 165 67 165 q 122 149 100 165 q 182 117 144 133 q 272 101 219 101 q 390 176 390 101 q 356 240 390 217 q 272 276 321 263 q 174 306 222 289 q 90 363 125 322 q 56 467 56 403 q 114 608 56 549 q 293 667 172 667 q 437 642 372 667 q 501 585 501 618 q 485 540 501 565 q 446 514 469 514 q 389 534 438 514 q 296 554 340 554 q 212 529 240 554 q 183 474 183 504 q 218 421 183 440 q 303 389 253 401 q 402 358 353 376 q 486 296 451 340 q 521 182 521 251 q 457 40 521 92 q 276 -11 393 -11 q 108 24 178 -11 q 38 100 38 58 m 160 858 q 181 894 160 883 l 353 982 q 368 985 364 985 q 401 967 388 985 q 415 928 415 949 q 393 890 415 900 l 225 806 q 208 801 217 801 q 174 819 189 801 q 160 858 160 838 z "},"Ŝ":{"ha":711,"x_min":40,"x_max":664,"o":"m 40 153 q 60 206 40 179 q 104 232 79 232 q 141 215 119 232 q 183 177 163 197 q 247 140 204 157 q 342 122 289 122 q 469 160 421 122 q 517 269 517 197 q 470 381 517 336 q 358 451 424 425 q 225 508 292 478 q 112 600 158 539 q 65 753 65 661 q 94 881 65 826 q 171 964 122 935 q 273 1006 219 993 q 386 1019 326 1019 q 465 1015 424 1019 q 546 999 506 1010 q 613 967 586 988 q 639 919 639 946 q 622 867 639 893 q 578 840 606 840 q 540 853 564 840 q 477 880 517 867 q 386 893 438 893 q 260 862 307 893 q 213 767 213 831 q 238 695 213 725 q 302 646 263 665 q 390 608 342 626 q 487 564 439 589 q 574 506 535 539 q 639 417 614 474 q 664 285 664 360 q 577 65 664 140 q 347 -11 490 -11 q 130 42 219 -11 q 40 153 40 96 m 157 1200 q 182 1243 157 1229 l 326 1321 q 350 1328 340 1328 q 374 1321 363 1328 l 518 1244 q 544 1199 544 1228 q 534 1166 544 1181 q 508 1151 524 1151 q 500 1153 506 1151 q 494 1156 497 1156 l 350 1233 l 206 1156 q 193 1151 200 1151 q 167 1166 178 1151 q 157 1200 157 1181 z "},"ŝ":{"ha":561,"x_min":38,"x_max":521,"o":"m 38 100 q 52 143 38 121 q 88 165 67 165 q 122 149 100 165 q 182 117 144 133 q 272 101 219 101 q 390 176 390 101 q 356 240 390 217 q 272 276 321 263 q 174 306 222 289 q 90 363 125 322 q 56 467 56 403 q 114 608 56 549 q 293 667 172 667 q 437 642 372 667 q 501 585 501 618 q 485 540 501 565 q 446 514 469 514 q 389 534 438 514 q 296 554 340 554 q 212 529 240 554 q 183 474 183 504 q 218 421 183 440 q 303 389 253 401 q 402 358 353 376 q 486 296 451 340 q 521 182 521 251 q 457 40 521 92 q 276 -11 393 -11 q 108 24 178 -11 q 38 100 38 58 m 83 857 q 108 900 83 886 l 253 978 q 276 985 267 985 q 300 978 289 985 l 444 901 q 471 856 471 885 q 460 823 471 838 q 435 808 450 808 q 426 810 432 808 q 421 813 424 813 l 276 890 l 132 813 q 119 808 125 808 q 94 823 104 808 q 83 857 83 838 z "},"Ş":{"ha":711,"x_min":40,"x_max":664,"o":"m 40 153 q 60 206 40 179 q 104 232 79 232 q 141 215 119 232 q 183 177 163 197 q 247 140 204 157 q 342 122 289 122 q 469 160 421 122 q 517 269 517 197 q 470 381 517 336 q 358 451 424 425 q 225 508 292 478 q 112 600 158 539 q 65 753 65 661 q 94 881 65 826 q 171 964 122 935 q 273 1006 219 993 q 386 1019 326 1019 q 465 1015 424 1019 q 546 999 506 1010 q 613 967 586 988 q 639 919 639 946 q 622 867 639 893 q 578 840 606 840 q 540 853 564 840 q 477 880 517 867 q 386 893 438 893 q 260 862 307 893 q 213 767 213 831 q 238 695 213 725 q 302 646 263 665 q 390 608 342 626 q 487 564 439 589 q 574 506 535 539 q 639 417 614 474 q 664 285 664 360 q 596 83 664 157 q 413 -7 528 10 l 393 -76 q 494 -108 460 -78 q 528 -181 528 -137 q 494 -261 528 -225 q 390 -297 460 -297 q 314 -287 351 -297 q 276 -258 276 -276 q 284 -231 276 -247 q 304 -214 292 -214 q 332 -224 307 -214 q 383 -233 357 -233 q 453 -183 453 -233 q 378 -131 453 -137 l 311 -124 l 340 -11 q 128 43 215 -10 q 40 153 40 96 z "},"ş":{"ha":561,"x_min":38,"x_max":521,"o":"m 38 100 q 52 143 38 121 q 88 165 67 165 q 122 149 100 165 q 182 117 144 133 q 272 101 219 101 q 390 176 390 101 q 356 240 390 217 q 272 276 321 263 q 174 306 222 289 q 90 363 125 322 q 56 467 56 403 q 114 608 56 549 q 293 667 172 667 q 437 642 372 667 q 501 585 501 618 q 485 540 501 565 q 446 514 469 514 q 389 534 438 514 q 296 554 340 554 q 212 529 240 554 q 183 474 183 504 q 218 421 183 440 q 303 389 253 401 q 402 358 353 376 q 486 296 451 340 q 521 182 521 251 q 470 52 521 103 q 328 -8 419 1 l 308 -76 q 409 -108 375 -78 q 443 -181 443 -137 q 409 -261 443 -225 q 306 -297 375 -297 q 229 -287 267 -297 q 192 -258 192 -276 q 199 -231 192 -247 q 219 -214 207 -214 q 247 -224 222 -214 q 299 -233 272 -233 q 368 -183 368 -233 q 293 -131 368 -137 l 226 -124 l 256 -11 q 101 27 164 -7 q 38 100 38 61 z "},"Š":{"ha":711,"x_min":40,"x_max":664,"o":"m 40 153 q 60 206 40 179 q 104 232 79 232 q 141 215 119 232 q 183 177 163 197 q 247 140 204 157 q 342 122 289 122 q 469 160 421 122 q 517 269 517 197 q 470 381 517 336 q 358 451 424 425 q 225 508 292 478 q 112 600 158 539 q 65 753 65 661 q 94 881 65 826 q 171 964 122 935 q 273 1006 219 993 q 386 1019 326 1019 q 465 1015 424 1019 q 546 999 506 1010 q 613 967 586 988 q 639 919 639 946 q 622 867 639 893 q 578 840 606 840 q 540 853 564 840 q 477 880 517 867 q 386 893 438 893 q 260 862 307 893 q 213 767 213 831 q 238 695 213 725 q 302 646 263 665 q 390 608 342 626 q 487 564 439 589 q 574 506 535 539 q 639 417 614 474 q 664 285 664 360 q 577 65 664 140 q 347 -11 490 -11 q 130 42 219 -11 q 40 153 40 96 m 158 1314 q 168 1346 158 1332 q 192 1360 178 1360 q 210 1351 201 1360 l 350 1247 l 492 1351 q 510 1360 500 1360 q 533 1346 524 1360 q 543 1314 543 1332 q 518 1268 543 1285 l 376 1164 q 350 1154 361 1154 q 325 1164 339 1154 l 182 1268 q 158 1314 158 1286 z "},"š":{"ha":561,"x_min":38,"x_max":521,"o":"m 38 100 q 52 143 38 121 q 88 165 67 165 q 122 149 100 165 q 182 117 144 133 q 272 101 219 101 q 390 176 390 101 q 356 240 390 217 q 272 276 321 263 q 174 306 222 289 q 90 363 125 322 q 56 467 56 403 q 114 608 56 549 q 293 667 172 667 q 437 642 372 667 q 501 585 501 618 q 485 540 501 565 q 446 514 469 514 q 389 534 438 514 q 296 554 340 554 q 212 529 240 554 q 183 474 183 504 q 218 421 183 440 q 303 389 253 401 q 402 358 353 376 q 486 296 451 340 q 521 182 521 251 q 457 40 521 92 q 276 -11 393 -11 q 108 24 178 -11 q 38 100 38 58 m 86 971 q 96 1003 86 989 q 119 1017 106 1017 q 138 1008 129 1017 l 278 904 l 419 1008 q 438 1017 428 1017 q 461 1003 451 1017 q 471 971 471 989 q 446 925 471 942 l 304 821 q 278 811 289 811 q 253 821 267 811 l 110 925 q 86 971 86 943 z "},"Ţ":{"ha":713,"x_min":19,"x_max":693,"o":"m 19 949 q 32 995 19 975 q 68 1015 44 1015 l 644 1015 q 681 996 668 1015 q 693 950 693 976 q 680 901 693 921 q 644 881 667 881 l 431 881 l 431 49 q 408 13 431 26 q 357 0 386 0 q 305 13 326 0 q 283 49 283 26 l 283 881 l 68 881 q 33 901 46 881 q 19 949 19 921 m 225 -193 q 246 -157 225 -168 l 418 -71 q 433 -67 426 -67 q 467 -85 453 -67 q 481 -124 481 -103 q 458 -162 481 -150 l 290 -246 q 274 -251 279 -251 q 240 -233 254 -251 q 225 -193 225 -215 z "},"ţ":{"ha":457,"x_min":75,"x_max":431,"o":"m 75 217 l 75 913 q 97 946 75 932 q 147 960 119 960 q 198 946 175 960 q 221 913 221 932 l 221 658 l 390 658 q 419 642 408 658 q 431 604 431 626 q 419 566 431 582 q 390 550 408 550 l 221 550 l 221 217 q 242 146 221 167 q 318 125 264 125 l 367 125 q 413 107 396 125 q 429 63 429 89 q 413 18 429 36 q 367 0 396 0 l 318 0 q 75 217 75 0 m 92 -193 q 113 -157 92 -168 l 285 -71 q 300 -67 293 -67 q 333 -85 319 -67 q 347 -124 347 -103 q 325 -162 347 -150 l 157 -246 q 140 -251 146 -251 q 106 -233 121 -251 q 92 -193 92 -215 z "},"Ť":{"ha":713,"x_min":19,"x_max":693,"o":"m 19 949 q 32 995 19 975 q 68 1015 44 1015 l 644 1015 q 681 996 668 1015 q 693 950 693 976 q 680 901 693 921 q 644 881 667 881 l 431 881 l 431 49 q 408 13 431 26 q 357 0 386 0 q 305 13 326 0 q 283 49 283 26 l 283 881 l 68 881 q 33 901 46 881 q 19 949 19 921 m 163 1314 q 172 1346 163 1332 q 196 1360 182 1360 q 214 1351 206 1360 l 354 1247 l 496 1351 q 514 1360 504 1360 q 538 1346 528 1360 q 547 1314 547 1332 q 522 1268 547 1285 l 381 1164 q 354 1154 367 1154 q 329 1164 344 1154 l 186 1268 q 163 1314 163 1286 z "},"ť":{"ha":457,"x_min":75,"x_max":456,"o":"m 75 217 l 75 913 q 97 946 75 932 q 147 960 119 960 q 198 946 175 960 q 221 913 221 932 l 221 658 l 390 658 q 419 642 408 658 q 431 604 431 626 q 419 566 431 582 q 390 550 408 550 l 221 550 l 221 217 q 242 146 221 167 q 318 125 264 125 l 367 125 q 413 107 396 125 q 429 63 429 89 q 413 18 429 36 q 367 0 396 0 l 318 0 q 75 217 75 0 m 290 968 q 314 1027 290 1003 q 372 1051 338 1051 q 431 1027 407 1051 q 456 969 456 1003 q 386 783 456 940 q 354 763 376 763 q 320 774 336 763 q 304 803 304 785 q 307 819 304 814 l 339 893 q 290 968 290 917 z "},"Ŧ":{"ha":713,"x_min":19,"x_max":693,"o":"m 19 949 q 32 995 19 975 q 68 1015 44 1015 l 644 1015 q 681 996 668 1015 q 693 950 693 976 q 680 901 693 921 q 644 881 667 881 l 431 881 l 431 563 l 569 563 q 600 546 589 563 q 611 507 611 529 q 600 468 611 485 q 569 451 589 451 l 431 451 l 431 49 q 408 13 431 26 q 357 0 386 0 q 305 13 326 0 q 283 49 283 26 l 283 451 l 142 451 q 112 468 122 451 q 101 507 101 485 q 113 546 101 529 q 142 563 124 563 l 283 563 l 283 881 l 68 881 q 33 901 46 881 q 19 949 19 921 z "},"ŧ":{"ha":460,"x_min":75,"x_max":431,"o":"m 75 217 l 75 913 q 97 946 75 932 q 147 960 119 960 q 198 946 175 960 q 221 913 221 932 l 221 658 l 390 658 q 419 642 408 658 q 431 604 431 626 q 419 566 431 582 q 390 550 408 550 l 221 550 l 221 433 l 390 433 q 419 417 408 433 q 431 378 431 400 q 419 340 431 356 q 390 324 408 324 l 221 324 l 221 217 q 242 146 221 167 q 318 125 264 125 l 367 125 q 413 107 396 125 q 429 63 429 89 q 413 18 429 36 q 367 0 396 0 l 318 0 q 75 217 75 0 z "},"Ũ":{"ha":810,"x_min":88,"x_max":722,"o":"m 88 301 l 88 968 q 109 1003 88 992 q 161 1015 131 1015 q 213 1003 192 1015 q 235 968 235 992 l 235 301 q 279 167 235 211 q 404 122 324 122 q 575 301 575 122 l 575 968 q 597 1003 575 992 q 649 1015 618 1015 q 701 1003 679 1015 q 722 968 722 992 l 722 301 q 635 67 722 142 q 404 -8 549 -8 q 174 67 261 -8 q 88 301 88 142 m 171 1226 q 211 1294 171 1274 q 292 1315 251 1315 q 388 1294 331 1315 q 483 1272 446 1272 q 549 1290 517 1272 q 590 1307 581 1307 q 619 1290 610 1307 q 629 1260 629 1274 q 590 1190 629 1210 q 511 1171 551 1171 q 410 1192 467 1171 q 318 1214 353 1214 q 252 1195 285 1214 q 210 1176 219 1176 q 181 1194 190 1176 q 171 1226 171 1211 z "},"ũ":{"ha":715,"x_min":71,"x_max":644,"o":"m 71 263 l 71 610 q 93 644 71 629 q 144 658 115 658 q 195 644 174 658 q 217 610 217 629 l 217 263 q 259 163 217 207 q 358 118 301 118 q 458 162 417 118 q 500 263 500 206 l 500 611 q 522 644 500 631 q 574 658 543 658 q 624 644 604 658 q 644 611 644 631 l 644 263 q 560 71 644 153 q 358 -11 475 -11 q 156 71 242 -11 q 71 263 71 153 m 129 883 q 169 951 129 931 q 250 972 210 972 q 347 951 289 972 q 442 929 404 929 q 507 947 475 929 q 549 964 539 964 q 578 947 568 964 q 588 917 588 931 q 549 847 588 867 q 469 828 510 828 q 368 849 425 828 q 276 871 311 871 q 210 852 243 871 q 168 833 178 833 q 139 851 149 833 q 129 883 129 868 z "},"Ū":{"ha":810,"x_min":88,"x_max":722,"o":"m 88 301 l 88 968 q 109 1003 88 992 q 161 1015 131 1015 q 213 1003 192 1015 q 235 968 235 992 l 235 301 q 279 167 235 211 q 404 122 324 122 q 575 301 575 122 l 575 968 q 597 1003 575 992 q 649 1015 618 1015 q 701 1003 679 1015 q 722 968 722 992 l 722 301 q 635 67 722 142 q 404 -8 549 -8 q 174 67 261 -8 q 88 301 88 142 m 223 1217 q 216 1224 223 1217 q 210 1253 210 1231 q 223 1290 210 1275 q 257 1304 236 1304 l 547 1304 q 581 1289 567 1304 q 596 1253 596 1274 q 581 1218 596 1232 q 547 1204 567 1204 l 257 1204 q 223 1217 236 1204 z "},"ū":{"ha":715,"x_min":71,"x_max":644,"o":"m 71 263 l 71 610 q 93 644 71 629 q 144 658 115 658 q 195 644 174 658 q 217 610 217 629 l 217 263 q 259 163 217 207 q 358 118 301 118 q 458 162 417 118 q 500 263 500 206 l 500 611 q 522 644 500 631 q 574 658 543 658 q 624 644 604 658 q 644 611 644 631 l 644 263 q 560 71 644 153 q 358 -11 475 -11 q 156 71 242 -11 q 71 263 71 153 m 180 874 q 173 881 180 874 q 167 910 167 888 q 180 947 167 932 q 214 961 193 961 l 504 961 q 538 946 524 961 q 553 910 553 931 q 538 875 553 889 q 504 861 524 861 l 214 861 q 180 874 193 861 z "},"Ŭ":{"ha":810,"x_min":88,"x_max":722,"o":"m 88 301 l 88 968 q 109 1003 88 992 q 161 1015 131 1015 q 213 1003 192 1015 q 235 968 235 992 l 235 301 q 279 167 235 211 q 404 122 324 122 q 575 301 575 122 l 575 968 q 597 1003 575 992 q 649 1015 618 1015 q 701 1003 679 1015 q 722 968 722 992 l 722 301 q 635 67 722 142 q 404 -8 549 -8 q 174 67 261 -8 q 88 301 88 142 m 225 1340 l 308 1340 q 337 1265 308 1296 q 401 1233 365 1233 q 465 1265 438 1233 q 493 1340 493 1296 l 578 1340 q 524 1218 578 1271 q 401 1165 469 1165 q 278 1217 332 1165 q 225 1340 225 1269 z "},"ŭ":{"ha":715,"x_min":71,"x_max":644,"o":"m 71 263 l 71 610 q 93 644 71 629 q 144 658 115 658 q 195 644 174 658 q 217 610 217 629 l 217 263 q 259 163 217 207 q 358 118 301 118 q 458 162 417 118 q 500 263 500 206 l 500 611 q 522 644 500 631 q 574 658 543 658 q 624 644 604 658 q 644 611 644 631 l 644 263 q 560 71 644 153 q 358 -11 475 -11 q 156 71 242 -11 q 71 263 71 153 m 183 997 l 267 997 q 295 922 267 953 q 360 890 324 890 q 424 922 396 890 q 451 997 451 953 l 536 997 q 482 875 536 928 q 360 822 428 822 q 237 874 290 822 q 183 997 183 926 z "},"Ů":{"ha":810,"x_min":88,"x_max":722,"o":"m 88 301 l 88 968 q 109 1003 88 992 q 161 1015 131 1015 q 213 1003 192 1015 q 235 968 235 992 l 235 301 q 279 167 235 211 q 404 122 324 122 q 575 301 575 122 l 575 968 q 597 1003 575 992 q 649 1015 618 1015 q 701 1003 679 1015 q 722 968 722 992 l 722 301 q 635 67 722 142 q 404 -8 549 -8 q 174 67 261 -8 q 88 301 88 142 m 271 1276 q 310 1370 271 1329 q 403 1411 349 1411 q 497 1370 456 1411 q 538 1276 538 1329 q 497 1181 538 1222 q 403 1139 456 1139 q 310 1181 349 1139 q 271 1276 271 1222 m 332 1275 q 353 1224 332 1247 q 404 1200 375 1200 q 453 1223 432 1200 q 474 1275 474 1246 q 453 1323 474 1301 q 404 1344 432 1344 q 353 1323 375 1344 q 332 1275 332 1301 z "},"ů":{"ha":715,"x_min":71,"x_max":644,"o":"m 71 263 l 71 610 q 93 644 71 629 q 144 658 115 658 q 195 644 174 658 q 217 610 217 629 l 217 263 q 259 163 217 207 q 358 118 301 118 q 458 162 417 118 q 500 263 500 206 l 500 611 q 522 644 500 631 q 574 658 543 658 q 624 644 604 658 q 644 611 644 631 l 644 263 q 560 71 644 153 q 358 -11 475 -11 q 156 71 242 -11 q 71 263 71 153 m 225 933 q 264 1027 225 986 q 357 1068 303 1068 q 451 1027 410 1068 q 492 933 492 986 q 451 838 492 879 q 357 796 410 796 q 264 838 303 796 q 225 933 225 879 m 286 932 q 308 881 286 904 q 358 857 329 857 q 407 880 386 857 q 428 932 428 903 q 407 980 428 958 q 358 1001 386 1001 q 308 980 329 1001 q 286 932 286 958 z "},"Ű":{"ha":810,"x_min":88,"x_max":722,"o":"m 88 301 l 88 968 q 109 1003 88 992 q 161 1015 131 1015 q 213 1003 192 1015 q 235 968 235 992 l 235 301 q 279 167 235 211 q 404 122 324 122 q 575 301 575 122 l 575 968 q 597 1003 575 992 q 649 1015 618 1015 q 701 1003 679 1015 q 722 968 722 992 l 722 301 q 635 67 722 142 q 404 -8 549 -8 q 174 67 261 -8 q 88 301 88 142 m 244 1188 q 254 1208 244 1200 l 378 1321 q 400 1329 385 1329 q 431 1315 417 1329 q 444 1285 444 1300 q 433 1260 444 1269 l 315 1151 q 293 1142 306 1142 q 260 1156 275 1142 q 244 1188 244 1171 m 460 1188 q 469 1208 460 1200 l 593 1321 q 614 1329 600 1329 q 645 1315 631 1329 q 660 1285 660 1300 q 649 1260 660 1271 l 529 1151 q 507 1142 521 1142 q 474 1156 489 1142 q 460 1188 460 1171 z "},"ű":{"ha":715,"x_min":71,"x_max":644,"o":"m 71 263 l 71 610 q 93 644 71 629 q 144 658 115 658 q 195 644 174 658 q 217 610 217 629 l 217 263 q 259 163 217 207 q 358 118 301 118 q 458 162 417 118 q 500 263 500 206 l 500 611 q 522 644 500 631 q 574 658 543 658 q 624 644 604 658 q 644 611 644 631 l 644 263 q 560 71 644 153 q 358 -11 475 -11 q 156 71 242 -11 q 71 263 71 153 m 193 844 q 203 865 193 857 l 326 978 q 349 986 333 986 q 379 972 365 986 q 393 942 393 957 q 382 917 393 926 l 264 808 q 242 799 254 799 q 208 813 224 799 q 193 844 193 828 m 408 844 q 418 865 408 857 l 542 978 q 563 986 549 986 q 594 972 581 986 q 608 942 608 958 q 597 917 608 928 l 478 808 q 456 799 469 799 q 423 813 438 799 q 408 844 408 828 z "},"Ų":{"ha":810,"x_min":88,"x_max":722,"o":"m 88 301 l 88 968 q 109 1003 88 992 q 161 1015 131 1015 q 213 1003 192 1015 q 235 968 235 992 l 235 301 q 279 167 235 211 q 404 122 324 122 q 575 301 575 122 l 575 968 q 597 1003 575 992 q 649 1015 618 1015 q 701 1003 679 1015 q 722 968 722 992 l 722 301 q 529 8 722 65 q 453 -70 482 -25 q 424 -160 424 -115 q 507 -224 424 -224 q 538 -258 538 -224 q 499 -289 538 -289 q 388 -258 429 -289 q 347 -172 347 -226 q 422 -8 347 -83 l 404 -8 q 174 67 261 -8 q 88 301 88 142 z "},"ų":{"ha":715,"x_min":71,"x_max":644,"o":"m 71 263 l 71 610 q 93 644 71 629 q 144 658 115 658 q 195 644 174 658 q 217 610 217 629 l 217 263 q 259 163 217 207 q 358 118 301 118 q 458 162 417 118 q 500 263 500 206 l 500 611 q 522 644 500 631 q 574 658 543 658 q 624 644 604 658 q 644 611 644 631 l 644 263 q 594 109 644 179 q 463 8 543 39 q 386 -70 415 -25 q 357 -160 357 -115 q 440 -224 357 -224 q 471 -258 471 -224 q 432 -289 471 -289 q 322 -258 363 -289 q 281 -172 281 -226 q 353 -11 281 -86 q 154 72 238 -10 q 71 263 71 154 z "},"Ŵ":{"ha":1176,"x_min":19,"x_max":1157,"o":"m 19 956 q 49 998 19 981 q 111 1015 78 1015 q 163 985 154 1015 l 390 193 l 515 690 q 589 733 525 733 q 661 690 650 733 l 788 193 l 1014 985 q 1065 1015 1022 1015 q 1128 998 1099 1015 q 1157 956 1157 981 q 1156 942 1157 946 l 881 42 q 845 5 872 18 q 786 -8 818 -8 q 727 5 754 -8 q 694 42 700 18 l 589 461 l 483 42 q 451 5 478 18 q 390 -8 424 -8 q 331 5 357 -8 q 297 42 304 18 l 21 942 q 19 956 19 946 m 394 1200 q 419 1243 394 1229 l 564 1321 q 588 1328 578 1328 q 611 1321 600 1328 l 756 1244 q 782 1199 782 1228 q 772 1166 782 1181 q 746 1151 761 1151 q 738 1153 743 1151 q 732 1156 735 1156 l 588 1233 l 443 1156 q 431 1151 436 1151 q 405 1166 415 1151 q 394 1200 394 1181 z "},"ŵ":{"ha":950,"x_min":14,"x_max":935,"o":"m 14 603 q 44 646 14 628 q 107 664 75 664 q 151 638 142 664 l 306 206 l 424 589 q 475 621 433 621 q 526 589 517 621 l 643 203 l 799 638 q 842 664 807 664 q 903 646 872 664 q 935 601 935 628 q 929 579 935 590 l 714 15 q 656 -14 703 -14 q 596 14 608 -14 l 475 372 l 356 18 q 293 -14 343 -14 q 235 18 247 -14 l 19 579 q 14 603 14 596 m 281 857 q 306 900 281 886 l 450 978 q 474 985 464 985 q 497 978 486 985 l 642 901 q 668 856 668 885 q 658 823 668 838 q 632 808 647 808 q 624 810 629 808 q 618 813 621 813 l 474 890 l 329 813 q 317 808 322 808 q 291 823 301 808 q 281 857 281 838 z "},"Ŷ":{"ha":775,"x_min":18,"x_max":757,"o":"m 18 954 q 49 997 18 979 q 111 1015 79 1015 q 160 982 142 1015 l 389 542 l 617 982 q 665 1015 633 1015 q 727 997 697 1015 q 757 954 757 979 q 753 933 757 942 l 465 415 q 463 400 463 407 l 463 49 q 440 13 463 26 q 389 0 418 0 q 337 13 358 0 q 315 49 315 26 l 315 400 q 311 415 315 403 l 24 933 q 18 954 18 944 m 194 1200 q 219 1243 194 1229 l 364 1321 q 388 1328 378 1328 q 411 1321 400 1328 l 556 1244 q 582 1199 582 1228 q 572 1166 582 1181 q 546 1151 561 1151 q 538 1153 543 1151 q 532 1156 535 1156 l 388 1233 l 243 1156 q 231 1151 236 1151 q 205 1166 215 1151 q 194 1200 194 1181 z "},"ŷ":{"ha":635,"x_min":14,"x_max":618,"o":"m 82 -312 q 14 -250 14 -312 q 54 -187 14 -187 q 178 -128 117 -187 q 253 40 239 -68 l 19 579 q 14 599 14 586 q 46 647 14 625 q 110 668 78 668 q 154 642 144 668 l 329 190 l 479 642 q 521 668 492 668 q 584 647 550 668 q 618 596 618 625 q 615 579 618 583 l 410 36 l 386 -26 q 360 -86 378 -46 q 331 -147 343 -126 l 297 -199 q 256 -247 276 -231 q 208 -280 235 -262 q 150 -305 182 -297 q 82 -312 118 -312 m 135 857 q 160 900 135 886 l 304 978 q 328 985 318 985 q 351 978 340 985 l 496 901 q 522 856 522 885 q 512 823 522 838 q 486 808 501 808 q 478 810 483 808 q 472 813 475 813 l 328 890 l 183 813 q 171 808 178 808 q 145 823 156 808 q 135 857 135 838 z "},"Ÿ":{"ha":775,"x_min":18,"x_max":757,"o":"m 18 954 q 49 997 18 979 q 111 1015 79 1015 q 160 982 142 1015 l 389 542 l 617 982 q 665 1015 633 1015 q 727 997 697 1015 q 757 954 757 979 q 753 933 757 942 l 465 415 q 463 400 463 407 l 463 49 q 440 13 463 26 q 389 0 418 0 q 337 13 358 0 q 315 49 315 26 l 315 400 q 311 415 315 403 l 24 933 q 18 954 18 944 m 248 1172 q 239 1182 248 1172 q 229 1218 229 1192 q 248 1263 229 1244 q 293 1282 267 1282 q 337 1263 319 1282 q 354 1218 354 1244 q 336 1172 354 1192 q 293 1153 318 1153 q 248 1172 267 1153 m 442 1172 q 433 1182 442 1172 q 424 1218 424 1192 q 442 1263 424 1244 q 486 1282 460 1282 q 531 1263 513 1282 q 549 1218 549 1244 q 531 1172 549 1192 q 486 1153 513 1153 q 442 1172 460 1153 z "},"Ź":{"ha":706,"x_min":25,"x_max":682,"o":"m 25 43 q 40 94 25 69 l 471 885 l 94 885 q 59 903 72 885 q 46 950 46 922 q 58 996 46 976 q 94 1015 71 1015 l 613 1015 q 660 974 660 1015 q 643 919 660 949 l 213 131 l 633 131 q 669 110 656 131 q 682 65 682 90 q 669 20 682 40 q 633 0 656 0 l 71 0 q 25 43 25 0 m 246 1201 q 267 1238 246 1226 l 439 1325 q 454 1328 450 1328 q 488 1310 474 1328 q 501 1271 501 1292 q 479 1233 501 1243 l 311 1149 q 294 1144 303 1144 q 260 1163 275 1144 q 246 1201 246 1181 z "},"ź":{"ha":590,"x_min":32,"x_max":563,"o":"m 32 53 q 57 111 32 76 l 354 538 l 90 538 q 58 556 72 538 q 44 599 44 574 q 57 641 44 624 q 90 658 69 658 l 492 658 q 527 645 513 658 q 542 607 542 632 q 519 547 542 578 l 221 121 l 515 121 q 549 103 535 121 q 563 60 563 86 q 549 17 563 35 q 515 0 536 0 l 83 0 q 45 16 58 0 q 32 53 32 32 m 203 858 q 224 894 203 883 l 396 982 q 411 985 407 985 q 444 967 431 985 q 458 928 458 949 q 436 890 458 900 l 268 806 q 251 801 260 801 q 217 819 232 801 q 203 858 203 838 z "},"Ż":{"ha":706,"x_min":25,"x_max":682,"o":"m 25 43 q 40 94 25 69 l 471 885 l 94 885 q 59 903 72 885 q 46 950 46 922 q 58 996 46 976 q 94 1015 71 1015 l 613 1015 q 660 974 660 1015 q 643 919 660 949 l 213 131 l 633 131 q 669 110 656 131 q 682 65 682 90 q 669 20 682 40 q 633 0 656 0 l 71 0 q 25 43 25 0 m 315 1172 q 306 1182 315 1172 q 297 1218 297 1192 q 315 1263 297 1244 q 360 1282 333 1282 q 404 1263 386 1282 q 422 1218 422 1244 q 404 1172 422 1192 q 360 1153 386 1153 q 315 1172 333 1153 z "},"ż":{"ha":590,"x_min":32,"x_max":563,"o":"m 32 53 q 57 111 32 76 l 354 538 l 90 538 q 58 556 72 538 q 44 599 44 574 q 57 641 44 624 q 90 658 69 658 l 492 658 q 527 645 513 658 q 542 607 542 632 q 519 547 542 578 l 221 121 l 515 121 q 549 103 535 121 q 563 60 563 86 q 549 17 563 35 q 515 0 536 0 l 83 0 q 45 16 58 0 q 32 53 32 32 m 251 829 q 242 839 251 829 q 233 875 233 849 q 251 920 233 901 q 296 939 269 939 q 340 920 322 939 q 358 875 358 901 q 340 829 358 849 q 296 810 322 810 q 251 829 269 810 z "},"Ž":{"ha":706,"x_min":25,"x_max":682,"o":"m 25 43 q 40 94 25 69 l 471 885 l 94 885 q 59 903 72 885 q 46 950 46 922 q 58 996 46 976 q 94 1015 71 1015 l 613 1015 q 660 974 660 1015 q 643 919 660 949 l 213 131 l 633 131 q 669 110 656 131 q 682 65 682 90 q 669 20 682 40 q 633 0 656 0 l 71 0 q 25 43 25 0 m 158 1314 q 168 1346 158 1332 q 192 1360 178 1360 q 210 1351 201 1360 l 350 1247 l 492 1351 q 510 1360 500 1360 q 533 1346 524 1360 q 543 1314 543 1332 q 518 1268 543 1285 l 376 1164 q 350 1154 361 1154 q 325 1164 339 1154 l 182 1268 q 158 1314 158 1286 z "},"ž":{"ha":590,"x_min":32,"x_max":563,"o":"m 32 53 q 57 111 32 76 l 354 538 l 90 538 q 58 556 72 538 q 44 599 44 574 q 57 641 44 624 q 90 658 69 658 l 492 658 q 527 645 513 658 q 542 607 542 632 q 519 547 542 578 l 221 121 l 515 121 q 549 103 535 121 q 563 60 563 86 q 549 17 563 35 q 515 0 536 0 l 83 0 q 45 16 58 0 q 32 53 32 32 m 103 971 q 113 1003 103 989 q 136 1017 122 1017 q 154 1008 146 1017 l 294 904 l 436 1008 q 454 1017 444 1017 q 478 1003 468 1017 q 488 971 488 989 q 463 925 488 942 l 321 821 q 294 811 306 811 q 269 821 283 811 l 126 925 q 103 971 103 943 z "},"ƒ":{"ha":517,"x_min":-101,"x_max":560,"o":"m -101 -126 q -86 -74 -101 -96 q -49 -53 -71 -53 l -18 -53 q 64 96 43 -53 l 160 796 q 263 988 175 908 q 460 1067 351 1067 l 515 1067 q 547 1049 535 1067 q 560 1004 560 1031 q 544 956 560 975 q 508 938 529 938 l 457 938 q 356 897 397 938 q 306 796 315 857 l 278 603 l 461 603 q 491 587 481 603 q 501 550 501 571 q 490 510 501 528 q 458 493 478 493 l 263 493 l 207 96 q 133 -110 189 -29 q -22 -190 76 -190 l -56 -190 q -89 -172 -76 -190 q -101 -126 -101 -153 z "},"Ǽ":{"ha":1057,"x_min":88,"x_max":1029,"o":"m 88 56 l 88 706 q 172 940 88 865 q 393 1015 256 1015 l 981 1015 q 1017 996 1004 1015 q 1029 951 1029 976 q 1016 904 1029 924 q 981 885 1003 885 l 661 885 l 661 567 l 840 567 q 876 549 863 567 q 889 507 889 532 q 876 467 889 485 q 840 450 864 450 l 661 450 l 661 131 l 981 131 q 1016 111 1003 131 q 1029 64 1029 92 q 1017 19 1029 39 q 981 0 1004 0 l 579 0 q 533 13 553 0 q 514 49 514 26 l 514 450 l 226 450 l 226 56 q 212 14 226 28 q 153 0 197 0 q 88 56 88 0 m 226 567 l 514 567 l 514 885 l 393 885 q 226 706 226 885 l 226 567 m 474 1199 q 494 1235 474 1224 l 667 1322 q 682 1325 678 1325 q 715 1307 701 1325 q 729 1268 729 1289 q 707 1231 729 1240 l 539 1146 q 522 1142 531 1142 q 488 1160 503 1142 q 474 1199 474 1178 z "},"ǽ":{"ha":1028,"x_min":35,"x_max":986,"o":"m 35 172 q 117 327 35 283 q 358 371 200 371 l 419 371 l 419 396 q 386 503 419 458 q 281 547 353 547 q 177 526 222 547 q 126 504 132 504 q 90 528 104 504 q 75 579 75 551 q 142 641 75 614 q 285 668 210 668 q 500 551 431 668 q 710 667 582 667 q 903 596 821 667 q 986 401 986 525 q 956 311 986 332 q 860 290 926 290 l 568 290 l 568 258 q 617 148 568 189 q 746 107 667 107 q 853 133 801 107 q 917 160 906 160 q 957 138 940 160 q 974 94 974 117 q 901 23 974 57 q 736 -11 829 -11 q 589 24 656 -11 q 482 125 522 60 q 372 24 436 60 q 242 -11 307 -11 q 94 36 153 -11 q 35 172 35 83 m 182 189 q 207 123 182 146 q 272 100 232 100 q 373 144 326 100 q 419 239 419 189 l 419 290 l 385 290 q 235 270 288 290 q 182 189 182 250 m 396 858 q 417 894 396 883 l 589 982 q 604 985 600 985 q 638 967 624 985 q 651 928 651 949 q 629 890 651 900 l 461 806 q 444 801 453 801 q 410 819 425 801 q 396 858 396 838 m 568 381 l 797 381 q 838 389 828 381 q 849 421 849 397 q 808 517 849 478 q 708 556 768 556 q 609 519 650 556 q 568 426 568 482 l 568 381 z "},"Ǿ":{"ha":786,"x_min":82,"x_max":706,"o":"m 82 301 l 82 706 q 167 940 82 865 q 393 1015 251 1015 q 569 975 497 1015 l 604 1044 q 646 1069 615 1069 q 686 1054 668 1069 q 704 1017 704 1039 q 699 994 704 1004 l 653 903 q 706 706 706 826 l 706 301 q 620 67 706 142 q 393 -8 535 -8 q 215 31 289 -8 l 189 -22 q 143 -49 175 -49 q 104 -33 119 -49 q 89 3 89 -17 q 93 24 89 14 l 133 104 q 82 301 82 182 m 229 294 l 506 849 q 393 885 463 885 q 229 706 229 885 l 229 294 m 279 158 q 393 122 319 122 q 515 167 472 122 q 558 301 558 211 l 558 714 l 279 158 m 285 1201 q 306 1238 285 1226 l 478 1325 q 493 1328 489 1328 q 526 1310 513 1328 q 540 1271 540 1292 q 518 1233 540 1243 l 350 1149 q 333 1144 342 1144 q 299 1163 314 1144 q 285 1201 285 1181 z "},"ǿ":{"ha":676,"x_min":50,"x_max":625,"o":"m 50 265 l 50 393 q 135 585 50 503 q 338 667 219 667 q 486 625 415 667 l 531 693 q 556 708 540 708 q 582 697 571 708 q 593 671 593 686 q 585 647 593 664 l 542 582 q 625 393 625 503 l 625 265 q 538 73 625 157 q 338 -11 451 -11 q 181 36 251 -11 l 136 -32 q 113 -44 128 -44 q 89 -35 100 -44 q 78 -11 78 -25 q 85 8 78 -1 l 129 78 q 50 265 50 160 m 196 265 q 210 201 196 229 l 413 513 q 338 538 376 538 q 238 493 279 538 q 196 393 196 449 l 196 265 m 247 858 q 268 894 247 883 l 440 982 q 456 985 451 985 q 489 967 475 985 q 503 928 503 949 q 481 890 503 900 l 313 806 q 296 801 304 801 q 262 819 276 801 q 247 858 247 838 m 254 147 q 338 118 292 118 q 437 163 394 118 q 479 265 479 208 l 479 393 q 461 460 479 426 l 254 147 z "},"Ș":{"ha":711,"x_min":40,"x_max":664,"o":"m 40 153 q 60 206 40 179 q 104 232 79 232 q 141 215 119 232 q 183 177 163 197 q 247 140 204 157 q 342 122 289 122 q 469 160 421 122 q 517 269 517 197 q 470 381 517 336 q 358 451 424 425 q 225 508 292 478 q 112 600 158 539 q 65 753 65 661 q 94 881 65 826 q 171 964 122 935 q 273 1006 219 993 q 386 1019 326 1019 q 465 1015 424 1019 q 546 999 506 1010 q 613 967 586 988 q 639 919 639 946 q 622 867 639 893 q 578 840 606 840 q 540 853 564 840 q 477 880 517 867 q 386 893 438 893 q 260 862 307 893 q 213 767 213 831 q 238 695 213 725 q 302 646 263 665 q 390 608 342 626 q 487 564 439 589 q 574 506 535 539 q 639 417 614 474 q 664 285 664 360 q 577 65 664 140 q 347 -11 490 -11 q 130 42 219 -11 q 40 153 40 96 m 242 -193 q 263 -157 242 -168 l 435 -71 q 450 -67 443 -67 q 483 -85 469 -67 q 497 -124 497 -103 q 475 -162 497 -150 l 307 -246 q 290 -251 296 -251 q 256 -233 271 -251 q 242 -193 242 -215 z "},"ș":{"ha":561,"x_min":38,"x_max":521,"o":"m 38 100 q 52 143 38 121 q 88 165 67 165 q 122 149 100 165 q 182 117 144 133 q 272 101 219 101 q 390 176 390 101 q 356 240 390 217 q 272 276 321 263 q 174 306 222 289 q 90 363 125 322 q 56 467 56 403 q 114 608 56 549 q 293 667 172 667 q 437 642 372 667 q 501 585 501 618 q 485 540 501 565 q 446 514 469 514 q 389 534 438 514 q 296 554 340 554 q 212 529 240 554 q 183 474 183 504 q 218 421 183 440 q 303 389 253 401 q 402 358 353 376 q 486 296 451 340 q 521 182 521 251 q 457 40 521 92 q 276 -11 393 -11 q 108 24 178 -11 q 38 100 38 58 m 156 -193 q 176 -157 156 -168 l 349 -71 q 364 -67 357 -67 q 397 -85 383 -67 q 411 -124 411 -103 q 389 -162 411 -150 l 221 -246 q 204 -251 210 -251 q 170 -233 185 -251 q 156 -193 156 -215 z "},"ȷ":{"ha":299,"x_min":-53,"x_max":222,"o":"m -53 -251 q -36 -206 -53 -224 q 4 -187 -19 -187 q 63 -153 49 -187 q 76 -50 76 -119 l 76 611 q 97 645 76 632 q 149 658 117 658 q 201 645 181 658 q 222 611 222 632 l 222 -50 q 172 -242 222 -171 q 24 -312 122 -312 q -53 -251 -53 -312 z "},"ə":{"ha":658,"x_min":42,"x_max":607,"o":"m 42 246 q 51 313 42 288 q 82 349 61 339 q 121 363 103 360 q 168 365 139 365 l 463 365 l 463 397 q 413 508 463 467 q 282 549 363 549 q 174 522 225 549 q 111 496 122 496 q 72 518 88 496 q 56 561 56 540 q 122 632 56 597 q 286 667 188 667 q 517 590 428 667 q 607 390 607 514 l 607 258 q 522 69 607 149 q 318 -11 438 -11 q 124 62 206 -11 q 42 246 42 135 m 179 233 q 220 139 179 178 q 321 100 261 100 q 421 137 379 100 q 463 231 463 174 l 463 275 l 231 275 q 190 267 201 275 q 179 233 179 258 z "},"ˆ":{"ha":388,"x_min":0,"x_max":388,"o":"m 0 857 q 25 900 0 886 l 169 978 q 193 985 183 985 q 217 978 206 985 l 361 901 q 388 856 388 885 q 377 823 388 838 q 351 808 367 808 q 343 810 349 808 q 338 813 340 813 l 193 890 l 49 813 q 36 808 42 808 q 10 823 21 808 q 0 857 0 838 z "},"ˇ":{"ha":399,"x_min":7,"x_max":392,"o":"m 7 971 q 17 1003 7 989 q 40 1017 26 1017 q 58 1008 50 1017 l 199 904 l 340 1008 q 358 1017 349 1017 q 382 1003 372 1017 q 392 971 392 989 q 367 925 392 942 l 225 821 q 199 811 211 811 q 174 821 189 811 l 31 925 q 7 971 7 943 z "},"˘":{"ha":353,"x_min":0,"x_max":353,"o":"m 0 997 l 83 997 q 112 922 83 953 q 176 890 140 890 q 240 922 213 890 q 268 997 268 953 l 353 997 q 299 875 353 928 q 176 822 244 822 q 53 874 107 822 q 0 997 0 926 z "},"˙":{"ha":271,"x_min":79,"x_max":204,"o":"m 97 829 q 88 839 97 829 q 79 875 79 849 q 97 920 79 901 q 142 939 115 939 q 186 920 168 939 q 204 875 204 901 q 186 829 204 849 q 142 810 168 810 q 97 829 115 810 z "},"˚":{"ha":267,"x_min":0,"x_max":267,"o":"m 0 933 q 39 1027 0 986 q 132 1068 78 1068 q 226 1027 185 1068 q 267 933 267 986 q 226 838 267 879 q 132 796 185 796 q 39 838 78 796 q 0 933 0 879 m 61 932 q 83 881 61 904 q 133 857 104 857 q 182 880 161 857 q 203 932 203 903 q 182 980 203 958 q 133 1001 161 1001 q 83 980 104 1001 q 61 932 61 958 z "},"˛":{"ha":190,"x_min":0,"x_max":190,"o":"m 0 -172 q 124 33 0 -54 l 182 8 q 106 -70 135 -25 q 76 -160 76 -115 q 160 -224 76 -224 q 190 -258 190 -224 q 151 -289 190 -289 q 41 -258 82 -289 q 0 -172 0 -226 z "},"˜":{"ha":458,"x_min":0,"x_max":458,"o":"m 0 883 q 40 951 0 931 q 121 972 81 972 q 217 951 160 972 q 313 929 275 929 q 378 947 346 929 q 419 964 410 964 q 449 947 439 964 q 458 917 458 931 q 419 847 458 867 q 340 828 381 828 q 239 849 296 828 q 147 871 182 871 q 81 852 114 871 q 39 833 49 833 q 10 851 19 833 q 0 883 0 868 z "},"˝":{"ha":415,"x_min":0,"x_max":415,"o":"m 0 844 q 10 865 0 857 l 133 978 q 156 986 140 986 q 186 972 172 986 q 200 942 200 957 q 189 917 200 926 l 71 808 q 49 799 61 799 q 15 813 31 799 q 0 844 0 828 m 215 844 q 225 865 215 857 l 349 978 q 369 986 356 986 q 401 972 386 986 q 415 942 415 958 q 404 917 415 928 l 285 808 q 263 799 276 799 q 230 813 244 799 q 215 844 215 828 z "},"π":{"ha":725,"x_min":76,"x_max":649,"o":"m 76 47 l 76 610 q 95 646 76 633 q 142 658 114 658 l 583 658 q 630 646 611 658 q 649 610 649 633 l 649 47 q 627 12 649 24 q 575 0 606 0 q 523 12 544 0 q 501 47 501 24 l 501 528 l 222 528 l 222 47 q 201 12 222 24 q 149 0 179 0 q 97 12 118 0 q 76 47 76 24 z "},"Ẁ":{"ha":1176,"x_min":19,"x_max":1157,"o":"m 19 956 q 49 998 19 981 q 111 1015 78 1015 q 163 985 154 1015 l 390 193 l 515 690 q 589 733 525 733 q 661 690 650 733 l 788 193 l 1014 985 q 1065 1015 1022 1015 q 1128 998 1099 1015 q 1157 956 1157 981 q 1156 942 1157 946 l 881 42 q 845 5 872 18 q 786 -8 818 -8 q 727 5 754 -8 q 694 42 700 18 l 589 461 l 483 42 q 451 5 478 18 q 390 -8 424 -8 q 331 5 357 -8 q 297 42 304 18 l 21 942 q 19 956 19 946 m 444 1271 q 458 1310 444 1292 q 492 1328 472 1328 q 507 1325 496 1328 l 679 1238 q 700 1201 700 1226 q 686 1163 700 1181 q 653 1144 672 1144 q 635 1149 643 1144 l 467 1233 q 444 1271 444 1243 z "},"ẁ":{"ha":950,"x_min":14,"x_max":935,"o":"m 14 603 q 44 646 14 628 q 107 664 75 664 q 151 638 142 664 l 306 206 l 424 589 q 475 621 433 621 q 526 589 517 621 l 643 203 l 799 638 q 842 664 807 664 q 903 646 872 664 q 935 601 935 628 q 929 579 935 590 l 714 15 q 656 -14 703 -14 q 596 14 608 -14 l 475 372 l 356 18 q 293 -14 343 -14 q 235 18 247 -14 l 19 579 q 14 603 14 596 m 322 928 q 336 967 322 949 q 369 985 350 985 q 385 982 374 985 l 557 894 q 578 858 578 883 q 564 819 578 838 q 531 801 550 801 q 513 806 521 801 l 344 890 q 322 928 322 900 z "},"Ẃ":{"ha":1176,"x_min":19,"x_max":1157,"o":"m 19 956 q 49 998 19 981 q 111 1015 78 1015 q 163 985 154 1015 l 390 193 l 515 690 q 589 733 525 733 q 661 690 650 733 l 788 193 l 1014 985 q 1065 1015 1022 1015 q 1128 998 1099 1015 q 1157 956 1157 981 q 1156 942 1157 946 l 881 42 q 845 5 872 18 q 786 -8 818 -8 q 727 5 754 -8 q 694 42 700 18 l 589 461 l 483 42 q 451 5 478 18 q 390 -8 424 -8 q 331 5 357 -8 q 297 42 304 18 l 21 942 q 19 956 19 946 m 476 1201 q 497 1238 476 1226 l 669 1325 q 685 1328 681 1328 q 718 1310 704 1328 q 732 1271 732 1292 q 710 1233 732 1243 l 542 1149 q 525 1144 533 1144 q 491 1163 506 1144 q 476 1201 476 1181 z "},"ẃ":{"ha":950,"x_min":14,"x_max":935,"o":"m 14 603 q 44 646 14 628 q 107 664 75 664 q 151 638 142 664 l 306 206 l 424 589 q 475 621 433 621 q 526 589 517 621 l 643 203 l 799 638 q 842 664 807 664 q 903 646 872 664 q 935 601 935 628 q 929 579 935 590 l 714 15 q 656 -14 703 -14 q 596 14 608 -14 l 475 372 l 356 18 q 293 -14 343 -14 q 235 18 247 -14 l 19 579 q 14 603 14 596 m 369 858 q 390 894 369 883 l 563 982 q 578 985 574 985 q 611 967 597 985 q 625 928 625 949 q 603 890 625 900 l 435 806 q 418 801 426 801 q 384 819 399 801 q 369 858 369 838 z "},"Ẅ":{"ha":1176,"x_min":19,"x_max":1157,"o":"m 19 956 q 49 998 19 981 q 111 1015 78 1015 q 163 985 154 1015 l 390 193 l 515 690 q 589 733 525 733 q 661 690 650 733 l 788 193 l 1014 985 q 1065 1015 1022 1015 q 1128 998 1099 1015 q 1157 956 1157 981 q 1156 942 1157 946 l 881 42 q 845 5 872 18 q 786 -8 818 -8 q 727 5 754 -8 q 694 42 700 18 l 589 461 l 483 42 q 451 5 478 18 q 390 -8 424 -8 q 331 5 357 -8 q 297 42 304 18 l 21 942 q 19 956 19 946 m 448 1172 q 439 1182 448 1172 q 429 1218 429 1192 q 448 1263 429 1244 q 493 1282 467 1282 q 537 1263 519 1282 q 554 1218 554 1244 q 536 1172 554 1192 q 493 1153 518 1153 q 448 1172 467 1153 m 642 1172 q 633 1182 642 1172 q 624 1218 624 1192 q 642 1263 624 1244 q 686 1282 660 1282 q 731 1263 713 1282 q 749 1218 749 1244 q 731 1172 749 1192 q 686 1153 713 1153 q 642 1172 660 1153 z "},"ẅ":{"ha":950,"x_min":14,"x_max":935,"o":"m 14 603 q 44 646 14 628 q 107 664 75 664 q 151 638 142 664 l 306 206 l 424 589 q 475 621 433 621 q 526 589 517 621 l 643 203 l 799 638 q 842 664 807 664 q 903 646 872 664 q 935 601 935 628 q 929 579 935 590 l 714 15 q 656 -14 703 -14 q 596 14 608 -14 l 475 372 l 356 18 q 293 -14 343 -14 q 235 18 247 -14 l 19 579 q 14 603 14 596 m 334 829 q 325 839 334 829 q 315 875 315 849 q 334 920 315 901 q 379 939 353 939 q 423 920 406 939 q 440 875 440 901 q 422 829 440 849 q 379 810 404 810 q 334 829 353 810 m 528 829 q 519 839 528 829 q 510 875 510 849 q 528 920 510 901 q 572 939 546 939 q 617 920 599 939 q 635 875 635 901 q 617 829 635 849 q 572 810 599 810 q 528 829 546 810 z "},"Ỳ":{"ha":775,"x_min":18,"x_max":757,"o":"m 18 954 q 49 997 18 979 q 111 1015 79 1015 q 160 982 142 1015 l 389 542 l 617 982 q 665 1015 633 1015 q 727 997 697 1015 q 757 954 757 979 q 753 933 757 942 l 465 415 q 463 400 463 407 l 463 49 q 440 13 463 26 q 389 0 418 0 q 337 13 358 0 q 315 49 315 26 l 315 400 q 311 415 315 403 l 24 933 q 18 954 18 944 m 244 1271 q 258 1310 244 1292 q 292 1328 272 1328 q 307 1325 296 1328 l 479 1238 q 500 1201 500 1226 q 486 1163 500 1181 q 453 1144 472 1144 q 435 1149 443 1144 l 267 1233 q 244 1271 244 1243 z "},"ỳ":{"ha":635,"x_min":14,"x_max":618,"o":"m 82 -312 q 14 -250 14 -312 q 54 -187 14 -187 q 178 -128 117 -187 q 253 40 239 -68 l 19 579 q 14 599 14 586 q 46 647 14 625 q 110 668 78 668 q 154 642 144 668 l 329 190 l 479 642 q 521 668 492 668 q 584 647 550 668 q 618 596 618 625 q 615 579 618 583 l 410 36 l 386 -26 q 360 -86 378 -46 q 331 -147 343 -126 l 297 -199 q 256 -247 276 -231 q 208 -280 235 -262 q 150 -305 182 -297 q 82 -312 118 -312 m 164 928 q 178 967 164 949 q 211 985 192 985 q 226 982 215 985 l 399 894 q 419 858 419 883 q 406 819 419 838 q 372 801 392 801 q 354 806 363 801 l 186 890 q 164 928 164 900 z "},"–":{"ha":656,"x_min":57,"x_max":599,"o":"m 70 290 q 64 298 70 290 q 57 333 57 307 q 70 378 57 360 q 104 396 83 396 l 549 396 q 583 377 568 396 q 599 333 599 358 q 583 290 599 307 q 549 272 568 272 l 104 272 q 70 290 83 272 z "},"—":{"ha":1044,"x_min":57,"x_max":988,"o":"m 70 290 q 64 298 70 290 q 57 333 57 307 q 70 378 57 360 q 104 396 83 396 l 939 396 q 973 377 958 396 q 988 333 988 358 q 973 290 988 307 q 939 272 958 272 l 104 272 q 70 290 83 272 z "},"‘":{"ha":244,"x_min":36,"x_max":201,"o":"m 36 824 q 106 1008 36 851 q 138 1029 113 1029 q 172 1018 156 1029 q 188 989 188 1007 q 183 972 188 983 l 153 899 q 201 824 201 878 q 177 765 201 789 q 118 740 153 740 q 60 765 85 740 q 36 824 36 789 z "},"’":{"ha":242,"x_min":44,"x_max":208,"o":"m 44 946 q 68 1005 44 981 q 126 1029 92 1029 q 184 1005 160 1029 q 208 947 208 981 q 139 761 208 915 q 107 740 132 740 q 73 751 89 740 q 57 781 57 763 q 61 797 57 789 l 92 871 q 44 946 44 894 z "},"‚":{"ha":257,"x_min":46,"x_max":211,"o":"m 46 75 q 69 134 46 110 q 128 158 93 158 q 187 134 163 158 q 211 75 211 110 q 142 -110 211 47 q 108 -131 132 -131 q 76 -119 92 -131 q 60 -90 60 -108 q 63 -74 60 -79 l 93 0 q 46 75 46 21 z "},"“":{"ha":483,"x_min":36,"x_max":440,"o":"m 36 824 q 106 1008 36 851 q 138 1029 115 1029 q 172 1018 156 1029 q 188 989 188 1007 q 183 972 188 983 l 153 899 q 201 824 201 878 q 177 765 201 789 q 118 740 153 740 q 60 765 85 740 q 36 824 36 789 m 275 824 q 344 1008 275 851 q 378 1029 354 1029 q 410 1018 394 1029 q 426 989 426 1007 q 424 972 426 979 l 393 899 q 440 824 440 878 q 417 765 440 789 q 358 740 393 740 q 299 765 324 740 q 275 824 275 789 z "},"”":{"ha":483,"x_min":44,"x_max":450,"o":"m 44 946 q 69 1005 44 981 q 128 1029 93 1029 q 185 1005 161 1029 q 210 947 210 981 q 140 761 210 918 q 108 740 131 740 q 74 751 90 740 q 58 781 58 763 q 63 797 58 789 l 93 871 q 44 946 44 894 m 285 946 q 308 1005 285 981 q 367 1029 332 1029 q 426 1005 401 1029 q 450 947 450 981 q 381 761 450 918 q 347 740 371 740 q 315 751 331 740 q 299 781 299 763 q 301 797 299 792 l 332 871 q 285 946 285 894 z "},"„":{"ha":496,"x_min":46,"x_max":450,"o":"m 46 75 q 69 134 46 110 q 128 158 93 158 q 187 134 163 158 q 211 75 211 110 q 142 -110 211 47 q 108 -131 132 -131 q 76 -119 92 -131 q 60 -90 60 -108 q 63 -74 60 -79 l 93 0 q 46 75 46 21 m 285 75 q 309 134 285 110 q 368 158 333 158 q 426 134 401 158 q 450 75 450 110 q 381 -110 450 47 q 349 -131 371 -131 q 315 -119 331 -131 q 299 -90 299 -108 q 303 -74 299 -82 l 333 0 q 285 75 285 21 z "},"†":{"ha":600,"x_min":29,"x_max":571,"o":"m 29 631 q 42 672 29 656 q 76 689 56 689 l 226 681 l 226 968 q 248 1001 226 988 q 299 1015 269 1015 q 349 1001 326 1015 q 372 968 372 986 l 372 681 l 521 689 q 556 672 540 689 q 571 631 571 654 q 556 590 571 606 q 521 574 540 574 l 372 582 l 372 26 q 349 -12 372 4 q 299 -29 326 -29 q 248 -12 269 -29 q 226 26 226 4 l 226 582 l 76 574 q 42 589 56 574 q 29 631 29 604 z "},"‡":{"ha":615,"x_min":38,"x_max":578,"o":"m 38 335 q 51 376 38 360 q 85 393 64 393 l 233 385 l 233 582 l 85 574 q 51 589 64 574 q 38 631 38 604 q 51 672 38 656 q 85 689 64 689 l 233 681 l 233 968 q 255 1001 233 988 q 307 1015 276 1015 q 358 1001 335 1015 q 381 968 381 986 l 381 681 l 529 689 q 563 672 549 689 q 578 631 578 654 q 563 590 578 606 q 529 574 549 574 l 381 582 l 381 385 l 529 393 q 563 376 549 393 q 578 335 578 358 q 563 293 578 310 q 529 276 549 276 l 381 285 l 381 26 q 358 -12 381 4 q 307 -29 335 -29 q 255 -12 276 -29 q 233 26 233 4 l 233 285 l 85 276 q 51 292 64 276 q 38 335 38 308 z "},"•":{"ha":446,"x_min":53,"x_max":392,"o":"m 104 302 q 78 327 104 302 q 53 417 53 351 q 104 531 53 482 q 224 579 156 579 q 342 531 292 579 q 392 417 392 482 q 342 302 392 351 q 224 253 292 253 q 104 302 156 253 z "},"…":{"ha":778,"x_min":46,"x_max":733,"o":"m 69 16 q 58 28 69 16 q 46 75 46 40 q 69 134 46 110 q 129 158 93 158 q 187 134 163 158 q 211 75 211 110 q 187 17 211 42 q 129 -8 163 -8 q 69 16 93 -8 m 332 16 q 320 28 332 16 q 308 75 308 40 q 332 134 308 110 q 392 158 356 158 q 449 134 425 158 q 474 75 474 110 q 449 17 474 42 q 392 -8 425 -8 q 332 16 356 -8 m 592 16 q 580 28 592 16 q 568 75 568 40 q 592 134 568 110 q 651 158 615 158 q 709 134 685 158 q 733 75 733 110 q 709 17 733 42 q 651 -8 685 -8 q 592 16 615 -8 z "},"‰":{"ha":1528,"x_min":43,"x_max":1488,"o":"m 43 639 l 43 844 q 231 1015 43 1015 q 367 974 315 1015 q 418 844 418 933 l 418 639 q 367 509 418 550 q 231 468 315 468 q 43 639 43 468 m 144 639 q 231 557 144 557 q 318 639 318 557 l 318 844 q 231 926 318 926 q 144 844 144 926 l 144 639 m 233 3 q 239 24 233 14 l 749 1044 q 790 1069 760 1069 q 831 1054 813 1069 q 849 1017 849 1039 q 844 994 849 1006 l 335 -22 q 288 -49 322 -49 q 249 -33 264 -49 q 233 3 233 -17 m 657 167 l 657 372 q 844 543 657 543 q 981 502 929 543 q 1032 372 1032 461 l 1032 167 q 981 37 1032 78 q 844 -4 929 -4 q 657 167 657 -4 m 758 167 q 844 85 758 85 q 932 167 932 85 l 932 372 q 844 454 932 454 q 758 372 758 454 l 758 167 m 1113 167 l 1113 372 q 1300 543 1113 543 q 1436 502 1385 543 q 1488 372 1488 461 l 1488 167 q 1436 37 1488 78 q 1300 -4 1385 -4 q 1113 167 1113 -4 m 1214 167 q 1300 85 1214 85 q 1388 167 1388 85 l 1388 372 q 1300 454 1388 454 q 1214 372 1214 454 l 1214 167 z "},"‹":{"ha":358,"x_min":39,"x_max":306,"o":"m 39 383 q 64 442 39 399 l 174 647 q 218 667 185 667 q 278 643 251 667 q 306 594 306 619 q 301 578 306 586 l 199 385 l 301 192 q 306 176 306 186 q 278 127 306 151 q 217 103 251 103 q 174 124 183 103 l 64 328 q 39 383 39 371 z "},"›":{"ha":358,"x_min":53,"x_max":319,"o":"m 53 176 q 57 192 53 186 l 160 385 l 57 578 q 53 594 53 586 q 80 643 53 619 q 140 667 107 667 q 185 647 174 667 l 294 442 q 319 383 319 399 q 294 328 319 371 l 185 124 q 142 103 175 103 q 80 127 107 103 q 53 176 53 151 z "},"⁄":{"ha":247,"x_min":-185,"x_max":431,"o":"m -185 3 q -179 24 -185 14 l 331 1044 q 372 1069 342 1069 q 413 1054 394 1069 q 431 1017 431 1039 q 426 994 431 1006 l -83 -22 q -131 -49 -97 -49 q -169 -33 -154 -49 q -185 3 -185 -17 z "},"⁰":{"ha":481,"x_min":50,"x_max":425,"o":"m 50 639 l 50 844 q 238 1015 50 1015 q 374 974 322 1015 q 425 844 425 933 l 425 639 q 374 509 425 550 q 238 468 322 468 q 50 639 50 468 m 151 639 q 238 557 151 557 q 325 639 325 557 l 325 844 q 238 926 325 926 q 151 844 151 926 l 151 639 z "},"⁴":{"ha":425,"x_min":10,"x_max":411,"o":"m 10 625 q 15 644 10 635 l 208 989 q 251 1015 222 1015 q 284 1004 267 1015 q 301 978 301 993 q 297 964 301 969 l 139 683 l 240 683 l 240 756 q 290 788 240 788 q 342 756 342 788 l 342 683 l 379 683 q 411 636 411 683 q 401 605 411 619 q 379 590 392 590 l 342 590 l 342 504 q 290 472 342 472 q 240 504 240 472 l 240 590 l 44 590 q 10 625 10 590 z "},"⁵":{"ha":440,"x_min":31,"x_max":407,"o":"m 31 601 q 43 638 31 628 q 81 649 56 649 q 132 610 132 649 q 215 557 132 557 q 306 636 306 557 l 306 650 q 218 731 306 731 l 100 731 q 58 769 58 731 q 60 797 58 786 l 79 983 q 100 1015 82 1015 l 347 1015 q 378 971 378 1015 q 347 926 378 926 l 164 926 l 153 810 l 218 810 q 356 772 304 810 q 407 650 407 733 l 407 636 q 355 509 407 550 q 219 468 303 468 q 81 508 132 468 q 31 601 31 547 z "},"⁶":{"ha":469,"x_min":50,"x_max":426,"o":"m 50 647 l 50 844 q 103 974 50 933 q 243 1015 156 1015 q 379 974 332 1015 q 426 879 426 932 q 379 838 426 838 q 326 875 326 838 q 302 913 326 899 q 240 926 278 926 q 151 844 151 926 l 151 767 q 260 803 186 803 q 426 649 426 803 l 426 639 q 375 509 426 550 q 239 468 324 468 q 50 647 50 468 m 151 632 q 239 550 151 550 q 326 632 326 550 l 326 642 q 238 725 326 725 q 151 649 151 725 l 151 632 z "},"⁷":{"ha":425,"x_min":26,"x_max":403,"o":"m 26 869 l 26 983 q 40 1005 26 994 q 72 1015 54 1015 l 358 1015 q 388 1005 374 1015 q 403 983 403 994 l 403 897 q 385 838 403 871 l 176 483 q 147 468 168 468 q 103 483 122 468 q 83 519 83 499 q 88 536 83 528 l 303 878 l 303 926 l 128 926 l 128 869 q 113 847 128 856 q 78 838 97 838 q 42 847 57 838 q 26 869 26 856 z "},"⁸":{"ha":458,"x_min":40,"x_max":417,"o":"m 40 621 l 40 631 q 136 769 40 738 q 58 883 58 796 q 229 1015 58 1015 q 399 883 399 1015 q 321 769 399 796 q 417 631 417 738 l 417 621 q 365 506 417 543 q 229 468 314 468 q 92 506 143 468 q 40 621 40 543 m 142 632 q 229 549 142 549 q 317 632 317 549 l 317 647 q 229 726 317 726 q 142 647 142 726 l 142 632 m 229 933 q 156 871 156 933 q 229 808 156 808 q 301 871 301 808 q 229 933 301 933 z "},"⁹":{"ha":475,"x_min":43,"x_max":419,"o":"m 43 604 q 90 646 43 646 q 143 608 143 646 q 167 571 143 585 q 229 557 192 557 q 319 639 319 557 l 319 717 q 211 681 285 681 q 43 835 43 681 l 43 844 q 94 974 43 933 q 232 1015 146 1015 q 368 974 317 1015 q 419 844 419 933 l 419 639 q 226 468 419 468 q 90 510 138 468 q 43 604 43 551 m 144 840 q 232 758 144 758 q 319 835 319 758 l 319 850 q 232 933 319 933 q 144 850 144 933 l 144 840 z "},"₀":{"ha":482,"x_min":53,"x_max":428,"o":"m 53 167 l 53 372 q 240 543 53 543 q 376 502 325 543 q 428 372 428 461 l 428 167 q 376 37 428 78 q 240 -4 325 -4 q 53 167 53 -4 m 154 167 q 240 85 154 85 q 328 167 328 85 l 328 372 q 240 454 328 454 q 154 372 154 454 l 154 167 z "},"₁":{"ha":256,"x_min":15,"x_max":194,"o":"m 15 436 q 33 472 15 461 l 128 539 q 150 544 139 544 q 181 535 167 544 q 194 513 194 526 l 194 32 q 144 0 194 0 q 93 32 93 0 l 93 425 l 67 403 q 49 397 57 397 q 25 409 35 397 q 15 436 15 421 z "},"₂":{"ha":439,"x_min":38,"x_max":401,"o":"m 38 32 l 38 104 q 78 183 38 143 q 168 252 119 224 q 258 317 217 281 q 299 389 299 354 q 279 433 299 414 q 221 451 260 451 q 147 389 147 451 q 132 363 147 375 q 93 351 117 351 q 49 404 49 351 q 99 505 49 467 q 219 543 150 543 q 347 501 293 543 q 400 392 400 460 q 360 292 400 339 q 271 219 319 246 q 182 162 222 192 q 142 108 142 132 l 142 89 l 369 89 q 392 76 382 89 q 401 44 401 63 q 392 14 401 28 q 369 0 382 0 l 82 0 q 52 9 67 0 q 38 32 38 18 z "},"₃":{"ha":450,"x_min":33,"x_max":410,"o":"m 33 132 q 44 163 33 154 q 81 171 54 171 q 122 163 111 171 q 132 136 132 154 q 219 85 132 85 q 288 103 267 85 q 310 161 310 121 l 310 175 q 218 243 310 243 q 186 282 186 243 q 218 322 186 321 q 275 338 256 324 q 294 393 294 351 q 221 457 294 457 q 146 408 146 457 q 99 371 146 371 q 56 379 65 371 q 46 413 46 388 q 88 503 46 463 q 221 543 129 543 q 390 410 390 543 q 326 286 390 315 q 410 175 410 257 l 410 161 q 357 35 410 75 q 217 -4 304 -4 q 81 38 128 -4 q 33 132 33 79 z "}}}
